<svg width="281" height="264" viewBox="0 0 281 264" fill="none" xmlns="http://www.w3.org/2000/svg">
<path d="M276.708 144.118C273.187 136.774 267.265 131.824 260.542 129.908C259.902 127.673 259.262 125.598 258.461 123.522C251.259 103.725 236.533 88.5581 216.686 84.7264C216.846 80.2561 216.686 75.7858 216.206 71.4751C216.366 71.4751 216.526 71.4751 216.686 71.4751C230.451 71.4751 230.451 50.0815 216.686 50.0815C214.605 50.0815 212.684 50.5604 211.244 51.5183C208.683 44.9725 205.321 38.9057 200.84 33.3178C196.038 27.2509 189.956 22.142 183.393 18.3103C183.553 17.5121 183.713 16.5541 183.713 15.7559V13.2014C183.713 7.45386 178.912 2.50458 172.989 2.50458C169.468 2.50458 166.267 4.26078 164.346 6.97489C159.544 4.58008 154.583 2.82389 149.301 1.70631C130.254 -2.764 108.485 3.30285 91.199 11.2856C78.0741 17.3524 67.03 27.0913 61.1078 39.704C28.1355 33.7968 -6.27733 69.5593 1.72566 104.523C3.16619 110.431 5.40703 116.178 8.44816 121.447C4.60673 123.043 1.88572 126.875 1.88572 131.186C1.88572 136.933 6.6875 141.883 12.6097 141.883H13.41C16.4511 141.883 19.1722 140.605 21.0929 138.53C26.5349 144.437 32.7772 149.865 39.1796 154.495C33.2574 173.175 36.7787 193.131 46.8625 210.214C58.8669 230.49 79.5146 241.347 102.883 241.826C116.648 242.145 129.453 238.633 140.657 232.247C152.342 238.633 164.986 242.624 178.912 242.464C208.363 242.305 240.214 220.113 255.42 195.846C256.541 194.089 257.501 192.173 258.461 190.258C264.384 188.661 269.826 185.628 273.987 181.477C283.591 172.217 282.15 155.293 276.708 144.118Z" fill="#178CA4" fill-opacity="0.3"/>
<path d="M194.437 3.30286C191.236 3.30286 188.675 5.85732 188.675 9.0504V9.84867C188.675 13.0417 191.236 15.5962 194.437 15.5962C197.639 15.5962 200.2 13.0417 200.2 9.84867V9.0504C200.2 5.85732 197.639 3.30286 194.437 3.30286Z" fill="#178CA4" fill-opacity="0.3"/>
<path d="M15.0106 151.781C7.6479 151.781 7.6479 163.276 15.0106 163.276C22.5334 163.276 22.5334 151.781 15.0106 151.781Z" fill="#178CA4" fill-opacity="0.3"/>
<path d="M226.609 11.4452C219.247 11.4452 219.247 22.9403 226.609 22.9403C233.972 22.9403 233.972 11.4452 226.609 11.4452Z" fill="#178CA4" fill-opacity="0.3"/>
<path d="M128.653 247.094C118.089 247.094 118.089 263.539 128.653 263.539C139.217 263.539 139.217 247.094 128.653 247.094Z" fill="#178CA4" fill-opacity="0.3"/>
<g clip-path="url(#clip0_12_2)" filter="url(#filter0_d_12_2)">
<path fill-rule="evenodd" clip-rule="evenodd" d="M141.444 132.725C152.206 137.53 163.694 140.588 174.601 145.393C182.89 149.033 191.615 152.236 199.468 154.566C202.231 155.44 204.849 156.75 207.612 156.604C211.538 146.849 214.883 136.365 218.664 126.173C222.445 115.835 226.953 105.643 229.571 95.5961C217.646 91.3736 203.831 86.7143 191.324 81.4725C182.163 77.6868 172.565 73.6099 163.403 71.5714C157.005 86.2775 151.333 102.585 146.534 117.582C144.934 122.679 142.026 127.338 141.444 132.725Z" fill="black"/>
<path fill-rule="evenodd" clip-rule="evenodd" d="M227.535 97.0522C220.845 115.544 213.574 134.909 206.594 154.129C186.089 148.159 164.857 138.986 143.771 131.56C150.024 113.505 156.859 92.8297 164.567 73.4643C185.507 80.4533 205.721 89.4808 227.535 97.0522ZM165.294 75.2115C164.13 76.6676 163.403 79.7253 162.385 82.2005C159.477 88.8983 157.15 96.6154 154.823 103.313C151.479 113.214 147.552 122.387 145.371 130.978C164.712 138.258 185.217 145.393 205.867 153.11C213.138 135.346 218.955 116.272 225.499 98.0714C216.337 93.7033 204.849 89.772 195.396 86.7143C185.944 82.9286 176.491 79.7253 167.184 76.2308C169.366 77.978 172.274 78.5604 174.892 79.7253C177.509 80.8901 180.272 82.0549 183.181 82.9286C188.707 84.6758 194.087 87.1511 199.614 88.7527C203.976 90.0632 208.193 91.956 212.411 93.5577C216.628 95.1593 221.136 96.3242 225.063 98.3626C218.519 116.418 212.847 134.909 205.576 152.382C191.034 146.994 175.764 141.607 160.931 136.074C155.987 134.181 150.897 133.016 146.389 130.832C152.351 112.341 159.622 93.7033 166.021 75.2115C165.585 74.9203 165.439 75.2115 165.294 75.2115ZM166.166 77.5412C162.822 85.5494 160.058 94.8681 156.714 103.75C153.369 112.777 150.461 122.096 147.552 129.668C149.879 131.852 153.66 132.288 156.859 133.453C172.129 138.986 188.998 146.849 204.267 150.635C211.538 133.89 217.501 116.272 223.463 98.7994C205.867 91.956 185.071 84.0934 166.166 77.5412Z" fill="white"/>
<path fill-rule="evenodd" clip-rule="evenodd" d="M221.718 99.8187C216.046 116.418 208.63 133.599 203.685 148.742C186.525 143.063 167.911 136.22 150.024 129.668C154.678 113.36 161.658 95.8874 167.039 79.2885C185.362 85.5494 203.104 93.1209 221.718 99.8187ZM189.579 94.8681C189.434 97.489 190.888 100.401 194.669 100.547C199.032 100.11 201.213 91.6648 195.396 90.9368C192.633 90.6456 190.597 91.8104 189.579 94.8681ZM188.271 122.387C190.888 117 194.815 108.264 194.524 103.168C192.197 99.6731 187.689 101.712 186.816 106.08C183.326 105.206 177.8 102.148 177.8 107.244C178.963 109.137 183.181 109.72 185.217 110.593C184.49 112.049 184.053 114.088 183.326 115.253C180.127 114.525 176.928 113.651 173.583 112.777C170.82 113.797 168.784 116.854 166.603 119.33C165.003 121.514 160.64 124.28 161.513 127.775C161.658 127.775 161.804 127.92 161.804 128.066C164.712 129.085 166.312 126.319 168.202 124.863C170.093 123.261 171.838 121.223 173.583 119.621C177.946 121.368 182.454 122.97 186.38 123.843C186.816 123.115 187.689 122.97 188.271 122.387ZM194.96 108.409C194.815 108.992 194.378 109.72 194.524 110.157C196.705 113.214 199.759 115.835 199.323 119.912C198.014 123.698 196.414 126.901 194.524 129.522C192.052 131.415 189.143 132.143 185.798 132.143C184.49 131.852 183.326 131.56 182.017 131.269C179.254 129.668 177.364 127.629 175.328 125.736C174.455 124.717 174.455 123.261 173.001 122.679C172.274 122.824 171.692 123.407 171.111 124.28C172.419 127.484 175.037 131.124 179.109 133.453C186.525 137.093 191.761 135.929 196.123 132.725C204.267 125.445 204.558 112.777 195.542 108.118C195.105 108.118 194.96 108.118 194.96 108.409Z" fill="#FFC229"/>
<path fill-rule="evenodd" clip-rule="evenodd" d="M151.333 72.7362C153.951 75.3571 157.15 78.706 160.204 81.1813C161.367 82.0549 162.676 83.3654 163.549 83.6566C165.585 84.3846 168.638 84.239 171.111 84.3846C179.109 84.8214 187.834 84.6758 195.251 84.239C203.104 77.8324 209.793 70.1154 215.319 61.3791C215.174 52.206 215.028 43.1786 214.738 34.2967C211.829 29.9286 207.612 26.8709 204.412 22.6483C202.667 20.7555 200.631 19.1538 198.886 17.1154C196.705 15.9505 195.687 13.0384 192.924 12.0192C191.034 11.4368 188.416 11.4368 185.944 11.4368C178.527 11.4368 169.947 11 162.967 11.1456C162.822 11.1456 162.822 11.1456 162.822 11.2912C162.24 11.2912 161.658 11.2912 160.931 11.2912C156.423 14.2033 153.078 18.717 149.443 22.6483C145.807 26.5797 142.317 30.8022 139.118 35.1703C138.972 44.1978 139.554 52.6428 140.281 60.6511C143.48 64.8736 147.407 68.8049 151.333 72.7362Z" fill="black"/>
<path fill-rule="evenodd" clip-rule="evenodd" d="M191.179 13.7665C195.396 16.533 198.45 20.4643 202.231 23.522C205.576 27.0165 209.066 30.511 212.556 34.0055C213.72 42.3049 213.283 51.3324 213.283 60.6511C208.339 68.9505 201.504 75.2115 194.524 81.4725C187.834 82.3461 179.691 82.0549 172.419 81.7637C169.802 81.6181 167.184 82.2005 165.148 81.4725C162.967 80.7445 160.64 78.1236 158.895 76.522C156.859 74.6291 154.969 72.8819 153.078 71.1346C149.443 67.3489 145.516 64 142.171 59.9231C141.881 52.0604 141.59 44.0522 141.444 35.7527C147.988 27.7445 154.387 19.445 162.676 13.1841C172.565 12.6016 181.29 13.6209 191.179 13.7665ZM204.122 71.4258C207.176 68.3681 210.084 65.1648 212.265 61.3791C212.556 52.6428 212.411 43.9066 211.684 35.7527C205.43 28.0357 197.868 21.6291 190.597 15.0769C184.78 15.0769 177.8 14.4945 171.838 14.7857C168.348 14.9313 164.276 14.0577 161.804 15.9505C169.947 14.3489 180.563 16.2417 190.016 15.5137C194.087 18.2802 197.287 22.0659 200.777 25.2692C204.267 28.7637 208.048 31.8214 210.957 35.7527C211.393 39.6841 211.393 43.761 211.684 47.9835C211.829 52.206 212.411 56.8654 211.974 60.6511C211.684 62.5439 209.211 64.8736 208.048 66.3297C206.594 68.0769 205.14 69.533 203.685 71.1346C202.086 72.5906 200.631 74.1923 199.177 75.7939C198.159 76.3764 197.578 77.25 196.705 77.8324C196.269 78.706 194.524 78.9972 194.669 80.1621C198.596 77.978 201.213 74.3379 204.122 71.4258ZM162.676 17.261C156.568 23.2308 149.879 28.7637 144.934 35.8983C144.644 39.6841 144.789 43.761 144.934 47.6923C145.08 51.3324 144.498 56.1374 145.662 58.9038C146.243 60.3599 149.152 62.6895 150.461 64.1456C154.096 67.9313 156.714 70.261 160.495 74.0467C161.949 75.6483 164.13 78.4148 165.875 78.8516C168.057 79.2884 170.82 78.706 173.147 78.706C180.563 78.5604 188.125 79.1428 194.815 78.1236C197.868 75.9395 200.195 73.0275 202.813 70.4066C203.976 68.9505 205.14 67.3489 206.448 66.0384C207.175 64.4368 209.502 63.1264 209.939 61.5247C210.375 59.9231 210.084 57.5934 209.939 55.4093C209.648 49.2939 209.939 41.7225 209.357 36.4808C206.885 32.4038 203.249 29.4917 200.05 26.1428C196.414 23.2308 193.942 19.1538 190.016 16.533C180.854 16.533 171.256 16.3874 162.676 17.261ZM143.626 34.7335C143.189 35.6071 142.899 36.6264 142.608 37.7912C142.462 41.1401 142.753 44.7802 142.462 47.8379C143.189 52.0604 142.171 58.0302 144.207 60.9423C143.48 53.6621 142.026 41.8681 144.062 34.5879C149.152 28.6181 154.678 23.0852 160.204 17.4066C160.204 17.261 160.204 16.9698 160.058 16.9698C154.242 22.5027 148.57 28.3269 143.626 34.7335ZM146.243 62.8351C152.206 68.9505 158.168 74.9203 164.712 80.3077C164.857 79.2884 163.258 78.8516 162.676 77.978C161.804 77.25 161.222 76.522 160.349 75.7939C158.895 74.1923 157.441 72.5906 155.696 71.2802C152.642 68.2225 149.443 65.3104 146.389 62.2527C146.243 62.2527 146.098 61.9615 145.952 62.2527C146.243 62.5439 146.098 62.8351 146.243 62.8351ZM190.888 79.4341C183.326 80.5989 174.746 80.1621 166.603 80.3077C166.893 81.0357 167.911 80.7445 168.638 81.0357C176.928 81.0357 185.362 81.3269 192.633 79.8709C192.342 79.1428 191.47 79.4341 190.888 79.4341Z" fill="white"/>
<path fill-rule="evenodd" clip-rule="evenodd" d="M180.563 18.4258C183.326 18.1346 186.816 18.4258 189.725 18.4258C195.978 24.3956 202.667 30.0742 208.048 37.0632C208.048 44.6346 208.775 52.6428 208.63 60.7967C206.594 63.8544 203.685 66.0384 201.504 68.8049C199.032 71.4258 196.851 74.1923 194.233 76.522C185.508 77.5412 175.037 76.8132 166.166 77.1044C159.186 71.8626 154.387 64.4368 147.843 58.6126C147.552 51.1868 147.261 43.761 146.97 36.3352C149.152 32.8406 152.497 30.3654 155.26 27.4533C158.023 24.5412 160.64 21.4835 163.694 18.8626C169.511 19.0082 174.601 18.4258 180.563 18.4258ZM178.091 19.5906C175.91 18.8626 174.892 20.7555 174.165 22.0659C173.583 21.7747 173.001 21.6291 171.983 21.6291C168.929 24.1044 169.802 30.511 169.22 35.6071C168.638 35.4615 167.766 35.4615 167.039 35.6071C166.021 36.3352 166.021 38.228 165.439 39.5384C165.439 47.6923 166.893 54.2445 170.674 58.7582C174.165 61.6703 181.872 61.3791 185.362 58.6126C190.161 53.5165 188.852 42.3049 189.143 32.9863C188.852 30.8022 188.707 28.4725 186.816 27.8901C185.798 27.5989 185.071 28.6181 184.635 28.6181C184.49 25.706 184.49 22.5027 182.89 21.0467C180.854 20.7555 180.127 21.7747 179.545 22.9395C179.254 21.4835 179.109 20.1731 178.091 19.5906ZM168.638 59.4862C163.112 58.1758 159.913 64.5824 163.549 67.4945C164.421 67.7857 165.585 67.6401 166.312 67.3489C167.33 68.0769 168.493 68.6593 168.348 70.4066C168.057 70.989 167.475 71.4258 166.312 71.2802C165.294 70.989 165.294 69.6786 164.13 69.3873C163.258 69.5329 162.676 70.1154 162.094 70.6978C162.24 75.3571 169.075 76.0851 170.965 72.5906C171.547 68.3681 170.238 65.1648 167.184 64.2912C166.603 63.8544 165.439 64.2912 165.148 63.5632C166.748 62.5439 169.802 63.8544 169.947 61.2335C170.093 60.3599 169.366 59.9231 168.638 59.4862ZM198.45 67.9313C199.614 62.8351 195.251 59.3406 190.888 61.5247C190.743 62.6895 190.597 64.1456 190.597 65.6016C190.743 69.0961 190.452 73.3187 191.615 75.7939C192.342 75.7939 193.215 75.9395 193.797 75.6483C194.087 74.4835 193.942 72.8818 194.087 71.5714C196.123 71.1346 197.578 69.6786 198.45 67.9313ZM184.344 76.0851C186.38 76.0851 187.543 75.2115 188.561 74.1923C190.161 69.9698 190.452 60.6511 184.199 61.3791C184.053 61.3791 184.053 61.3791 184.053 61.5247C178.818 62.6895 179.4 75.0659 184.344 76.0851ZM171.692 61.6703C171.111 62.1071 171.256 63.8544 171.402 64.728C172.274 64.728 173.147 64.728 174.019 64.728C174.019 68.3681 173.874 72.2994 174.455 75.3571C175.183 75.7939 176.2 75.6483 176.637 75.2115C177.218 72.2994 176.491 67.9313 177.218 64.8736C177.946 64.8736 178.673 65.0192 179.254 64.728C179.691 64 179.981 62.5439 179.545 61.6703C177.218 61.5247 174.165 61.3791 171.692 61.6703Z" fill="#FF4A2C"/>
<path fill-rule="evenodd" clip-rule="evenodd" d="M176.637 21.4835C176.928 21.4835 177.218 21.4835 177.509 21.4835C179.254 23.2308 178.673 27.0165 178.818 30.6566C178.964 33.4231 178.673 36.4808 179.545 38.3736C180.418 36.772 179.836 34.2967 179.981 31.967C180.272 28.4725 179.836 23.522 182.454 22.2115C183.617 22.6483 183.181 24.25 183.326 25.4148C183.472 29.783 183.035 35.8983 184.635 38.8104C186.089 36.3352 183.617 29.783 187.107 29.3461C187.98 29.6374 187.834 31.0934 188.271 31.8214C188.271 41.7225 189.434 53.6621 183.908 58.3214C180.563 59.195 175.328 59.4862 172.71 57.739C169.366 54.6813 167.911 47.6923 167.621 41.5769C167.475 39.9753 167.475 37.5 168.784 36.772C170.82 37.9368 168.929 42.8874 170.674 44.3434C171.692 39.6841 171.111 33.2775 171.547 28.0357C172.274 26.4341 171.547 23.522 173.583 23.2308C174.892 27.1621 173.583 33.8599 174.746 37.9368C176.055 37.2088 175.619 35.3159 175.619 33.7143C175.619 29.783 175.183 25.2692 176.055 22.2115C175.91 21.9203 176.2 21.6291 176.637 21.4835Z" fill="white"/>
<path fill-rule="evenodd" clip-rule="evenodd" d="M168.493 61.6703C166.893 61.9615 164.13 61.2335 164.276 64C164.567 65.456 166.603 65.3104 167.911 65.7472C169.656 66.6209 170.238 68.8049 170.238 71.5714C169.947 71.717 170.238 72.445 169.802 72.445C168.202 75.0659 163.694 73.7555 163.549 71.1346C164.421 71.4258 164.712 72.445 165.585 72.8819C166.457 73.0275 168.202 73.3187 168.784 72.7362C170.965 69.0961 167.766 65.456 163.694 65.8928C161.222 62.9808 166.312 59.3406 168.493 61.6703Z" fill="white"/>
<path fill-rule="evenodd" clip-rule="evenodd" d="M193.069 71.1346C192.633 72.0082 193.36 74.0467 192.633 74.6291C191.47 73.6099 192.197 71.1346 192.052 69.0961C191.906 67.2033 191.761 64.4368 191.761 62.2527C195.396 61.0879 198.014 63.4176 197.287 67.6401C196.269 69.2417 194.524 70.1154 193.069 71.1346ZM193.506 63.5632C193.069 65.0192 193.069 67.9313 193.651 69.2417C197.287 69.6786 197.287 62.1071 193.506 63.5632Z" fill="white"/>
<path fill-rule="evenodd" clip-rule="evenodd" d="M183.472 74.1923C180.999 71.717 181.29 64 184.344 62.5439C184.926 62.5439 185.653 62.5439 186.235 62.6895C188.998 65.0192 189.434 76.2308 183.472 74.1923ZM184.49 73.4643C188.271 73.1731 188.707 64.2912 184.49 64.1456C182.308 65.456 181.581 72.445 184.49 73.4643Z" fill="white"/>
<path fill-rule="evenodd" clip-rule="evenodd" d="M178.382 63.1264C178.527 64 176.928 63.272 176.637 63.7088C175.619 66.3297 176.2 70.6978 175.764 73.7555C175.037 70.8434 175.473 66.7665 174.746 63.8544C174.019 63.5632 173.001 63.7088 172.419 63.8544C172.419 63.4176 172.274 62.9808 172.565 62.6895C174.455 62.8352 177.218 62.1071 178.382 63.1264Z" fill="white"/>
<path fill-rule="evenodd" clip-rule="evenodd" d="M194.087 64.728C194.524 64.5824 194.669 64.8736 194.96 64.8736C195.251 65.8928 195.251 67.6401 194.087 67.6401C194.087 66.6209 194.087 65.7472 194.087 64.728Z" fill="#FF4A2C"/>
<path fill-rule="evenodd" clip-rule="evenodd" d="M185.071 71.8626C182.744 71.5714 183.908 67.0577 184.49 65.6016C184.49 65.456 184.78 65.3104 184.78 65.1648C186.962 65.8928 186.816 70.989 185.071 71.8626Z" fill="#FF4A2C"/>
<path fill-rule="evenodd" clip-rule="evenodd" d="M135.918 144.228C139.263 131.415 139.699 116.563 140.136 101.566C135.918 100.547 130.683 103.022 125.593 103.75C124.721 103.896 124.721 102.876 123.848 103.168C122.685 103.022 122.249 104.187 121.812 103.896C121.376 101.566 120.503 99.6731 118.904 98.945C119.195 96.4698 118.031 93.1209 117.886 90.5C121.376 90.0632 121.958 87.5879 125.593 87.2967C127.338 72.445 130.683 58.7582 131.701 43.4698C129.229 43.033 126.175 43.761 123.267 44.489C120.358 45.217 117.304 45.7994 114.541 46.3819C112.796 46.0906 111.342 45.5082 109.306 45.6538C109.16 44.6346 109.015 43.761 108.433 43.1786C107.415 42.7417 106.397 42.4505 104.943 42.8873C104.216 41.5769 103.198 40.7033 102.035 40.1209C95.927 40.7033 89.383 41.5769 82.8389 43.033C71.2051 45.7994 58.8442 47.4011 49.3917 51.3324C49.1008 52.206 49.5371 53.5165 49.3917 54.3901C48.3737 54.6813 47.3557 54.9725 46.9195 55.5549C46.4832 56.4286 47.0649 58.1758 46.9195 59.195C46.0469 58.9038 44.7381 59.6319 43.8656 59.3406C39.2121 61.9615 31.2138 61.8159 26.7057 64.1456C28.887 71.4258 32.8135 78.2692 36.0128 84.967C40.0846 90.6456 43.7202 97.1978 48.9554 101.275C50.9913 101.566 52.7364 102.294 55.354 101.712C56.0811 105.206 56.8082 108.846 58.6987 110.739C57.6808 111.904 58.6987 114.379 58.5533 116.126C56.6628 116.418 55.0632 117.582 52.8818 118.165C48.0829 119.33 41.8297 119.184 38.9212 122.096C41.5388 130.104 45.3198 136.074 48.6646 142.772C52.4455 148.887 56.8082 154.129 61.898 158.497C63.4977 158.934 65.3882 158.788 66.9878 159.225C67.715 161.846 68.5875 164.176 70.7688 164.613C69.3146 165.923 70.1871 168.835 70.1871 171.165C64.5157 173.058 57.3899 174.077 52.3001 176.698C53.4635 182.813 56.6628 187.909 59.2804 192.714C61.7526 197.956 64.6611 202.615 67.5695 207.275C69.8963 209.313 72.0776 211.352 74.4044 213.244C75.2769 213.39 76.0041 213.681 76.5858 214.118C77.7491 214.118 78.6217 214.264 79.7851 214.264C80.2213 217.03 81.2393 218.777 81.821 221.253C86.9108 223.582 96.6541 220.088 103.489 218.923C104.216 220.67 105.089 222.272 106.543 223C110.324 222.126 114.25 221.544 118.031 220.525C119.195 220.233 120.213 219.797 121.376 219.36H121.521C121.958 218.049 121.958 216.302 122.539 215.137C128.211 213.827 133.737 212.516 139.554 211.497C140.281 210.769 140.863 209.896 141.444 209.168C141.299 206.838 141.154 204.799 140.717 202.324C143.044 202.324 143.48 200.868 144.789 200.14C146.243 199.994 147.116 199.849 148.279 199.266C149.879 194.753 150.024 189.802 150.606 184.415C151.479 175.824 152.06 166.942 150.751 157.332C145.371 156.604 138.245 158.934 132.864 159.516C132.428 157.478 131.556 156.022 130.683 154.566C131.41 152.527 130.683 149.324 130.538 146.703C132.283 146.558 133.446 144.228 135.918 144.228Z" fill="black"/>
<path fill-rule="evenodd" clip-rule="evenodd" d="M102.471 43.1786C99.9988 44.489 96.7995 44.489 93.8911 45.0714C79.9305 47.5467 64.3702 51.1868 51.573 53.5165C50.7004 51.6236 53.0272 51.478 53.8997 51.1868C63.6431 48.8571 74.259 47.1099 83.8569 44.9258C90.4009 43.4698 97.2358 42.1593 102.471 43.1786Z" fill="#B6CBCE"/>
<path fill-rule="evenodd" clip-rule="evenodd" d="M106.979 45.0714C110.324 57.3022 111.924 70.8434 114.396 84.239C115.123 88.0247 117.304 93.8489 115.995 96.6154C114.832 99.0906 106.688 99.8187 103.053 100.692C93.0186 102.876 83.4207 104.478 73.8227 106.225C69.0238 107.099 64.2248 108.992 60.0076 108.264C57.5354 105.497 56.8083 101.129 55.9357 96.9066C54.9178 92.684 53.8998 88.0247 53.1727 83.6566C51.4276 74.4835 49.1008 65.0192 48.81 57.011C66.697 52.3516 86.0383 49.4395 103.634 45.6538C104.798 45.217 105.816 44.7802 106.979 45.0714ZM112.796 83.9478C111.342 75.6483 109.597 67.2033 108.143 59.195C107.415 55.1181 106.979 51.0412 105.089 48.2747C103.053 46.6731 99.4172 48.1291 96.6541 48.7115C85.602 51.3324 71.9322 52.9341 60.8801 55.7005C57.2445 56.5742 53.3181 57.011 51.1368 59.4863C50.8459 63.1264 52.0093 66.9121 52.7364 70.989C53.4635 74.9203 54.1906 79.2884 54.9178 83.3654C56.372 91.5192 57.9716 99.8187 61.0255 105.643C69.1692 105.934 78.6217 103.022 87.7833 101.712C97.0904 100.255 106.397 98.5082 114.105 95.7417C114.687 92.1016 113.669 88.0247 112.796 83.9478Z" fill="#B6CBCE"/>
<path fill-rule="evenodd" clip-rule="evenodd" d="M102.907 49.8764C107.125 62.9808 109.742 79.2884 111.924 93.4121C108.433 95.3049 104.216 96.3242 99.708 97.489C92.4368 99.3819 84.1477 99.9643 76.4403 102.148C71.4959 103.459 66.4061 104.187 61.898 104.332C59.135 98.3626 58.4079 90.3544 56.6628 82.9286C54.9177 75.5027 53.4635 67.9313 52.7364 61.2335C54.9177 58.7582 58.8442 58.1758 62.3343 57.4478C73.0956 54.9725 85.8928 53.2253 96.7995 50.75C98.9809 50.1676 101.017 49.1483 102.907 49.8764ZM107.997 77.25C106.252 68.6593 104.652 59.6319 102.326 52.3516C101.889 51.7692 101.162 51.6236 100.871 51.1868C99.8534 51.3324 98.9809 51.478 98.2538 51.9148C98.2538 52.4972 100.581 51.7692 100.871 52.4972C103.925 60.3599 105.089 70.8434 107.706 79.1428C108.433 78.8516 107.706 77.6868 107.997 77.25ZM61.898 59.7775C63.6431 60.3599 66.2607 59.0494 67.1333 57.8846C65.2428 57.3022 62.7706 58.6126 61.898 59.7775ZM54.4815 61.8159C54.7723 62.1071 54.9177 62.2527 55.354 62.3983C55.7903 61.5247 57.6808 61.6703 57.9716 60.6511C56.9537 60.3599 54.6269 60.6511 54.4815 61.8159ZM63.2068 85.1126C63.6431 85.5494 63.6431 86.4231 63.934 87.0055C68.8783 95.4505 76.1495 101.42 89.2375 97.3434C92.7277 95.7417 96.0724 93.9945 98.69 91.956C99.708 90.5 100.871 89.1895 101.889 87.7335C103.925 82.6374 104.943 76.8132 103.344 70.6978C101.889 65.0192 95.0545 58.7582 90.8372 57.3022C86.6199 55.9917 82.1118 56.4286 77.022 56.8654C76.8766 56.8654 76.8766 56.8654 76.8766 57.011C65.2428 61.5247 59.7167 70.261 63.2068 85.1126ZM55.9357 68.8049C56.6628 68.2225 56.0811 66.1841 55.6448 65.3104C55.354 65.3104 55.354 65.1648 55.0632 65.1648C54.7723 66.0385 54.9177 68.5137 55.9357 68.8049ZM60.153 90.9368C59.5713 84.8214 58.117 77.1044 55.9357 72.0082C56.6628 78.2692 58.2625 85.5494 60.153 90.9368ZM108.87 90.9368C110.324 90.7912 109.888 88.8983 109.451 87.8791C109.306 87.8791 109.16 87.8791 108.87 88.0247C108.724 89.0439 108.288 90.2088 108.87 90.9368ZM73.3864 101.566C70.1871 101.42 65.679 103.022 63.0614 102.148C62.4797 101.857 62.4797 100.547 61.4618 100.547C61.1709 106.225 70.1871 103.022 73.3864 101.566ZM103.489 94.8681C105.525 94.8681 107.561 93.7033 108.433 92.5384C106.397 92.5384 104.216 93.7033 103.489 94.8681Z" fill="#B6CBCE"/>
<path fill-rule="evenodd" clip-rule="evenodd" d="M110.906 48.4203C112.942 53.8077 113.669 61.3791 115.414 67.6401C115.414 61.6703 113.523 54.3901 112.069 48.5659C113.814 49.0027 113.669 52.4972 114.105 54.9725C115.995 63.4176 118.468 74.0467 119.922 82.4917C120.213 84.239 120.067 85.9862 119.922 87.5879C118.904 87.5879 117.886 88.3159 117.304 88.0247C114.977 74.7747 112.942 61.0879 109.888 48.1291C110.324 48.1291 110.76 48.1291 110.906 48.4203Z" fill="#B6CBCE"/>
<path fill-rule="evenodd" clip-rule="evenodd" d="M128.211 45.945C128.647 45.7994 129.083 45.7994 129.52 45.6538C127.629 57.3022 125.593 68.9505 124.575 81.1813C124.43 81.9093 124.284 82.9285 124.284 83.8022C123.994 84.3846 124.43 85.8406 123.266 85.4038C122.249 85.695 122.976 83.8022 122.83 83.2198C122.83 82.3461 123.121 81.6181 123.121 80.7445C123.266 78.9972 123.557 77.3956 123.848 75.7939C125.302 66.0384 126.03 55.8461 127.775 46.2362C127.92 46.2362 127.92 46.0906 128.211 45.945Z" fill="#B6CBCE"/>
<path fill-rule="evenodd" clip-rule="evenodd" d="M47.2103 61.9615C49.2462 72.8818 50.8459 84.6758 53.4635 95.3049C52.7364 95.5961 52.0093 95.7417 51.2821 96.0329C48.3737 85.8406 46.6286 74.1923 44.4473 62.9807C44.1564 61.8159 46.3378 62.3983 47.2103 61.9615Z" fill="#B6CBCE"/>
<path fill-rule="evenodd" clip-rule="evenodd" d="M30.7776 65.8928C33.2498 72.5906 36.4491 78.1236 39.6484 83.8022C41.3934 86.4231 42.7022 89.4808 44.7382 91.6648C46.3378 94.4313 48.81 95.8873 49.828 99.5275C40.9572 91.0824 34.4131 79.434 28.7416 66.3296C28.7416 65.7472 29.905 66.184 30.7776 65.8928Z" fill="#B6CBCE"/>
<path fill-rule="evenodd" clip-rule="evenodd" d="M41.9751 63.5632C44.1564 73.7555 45.9015 84.3846 48.3737 94.2857C41.8297 86.2775 36.449 76.3764 31.7955 65.456C35.1402 64.8736 38.4849 64.2912 41.9751 63.5632Z" fill="#B6CBCE"/>
<path fill-rule="evenodd" clip-rule="evenodd" d="M77.3129 59.195C77.3129 59.0494 77.3129 59.0494 77.4583 59.0494C89.8192 56.7198 96.5087 62.6895 100.871 72.1538C100.581 73.9011 101.308 76.2308 101.598 78.4148C101.308 81.0357 100.29 83.2198 99.9988 85.8406C98.3992 88.0247 96.5087 90.2088 94.4728 92.2472C90.1101 95.4505 82.5481 97.6346 77.022 96.1786C72.6593 95.0137 69.1692 91.228 66.697 87.8791C64.3702 82.9286 62.916 75.6483 64.5156 71.1346C67.2787 66.0384 70.1871 61.0879 77.3129 59.195ZM80.803 60.3599C75.7132 61.3791 71.9322 64 69.1692 66.9121C68.1512 68.9505 66.5516 70.8434 65.9699 73.7555C64.8065 79.2884 67.5695 87.0055 70.7688 90.6456C75.4224 93.9945 80.9484 96.3242 89.6738 93.9945C97.3812 89.3352 102.326 82.783 99.2717 70.6978C98.1083 68.3681 96.7995 66.3297 95.3453 64.4368C91.8551 61.6703 86.6199 59.195 80.803 60.3599Z" fill="#FF4A2C"/>
<path fill-rule="evenodd" clip-rule="evenodd" d="M78.3309 62.3983C81.5302 61.5247 84.8749 61.2335 87.6379 61.8159C90.401 62.2527 94.0365 64.4368 95.4908 66.4753C99.708 72.1538 99.2718 82.3461 96.0725 86.8599C93.7457 89.1895 91.5643 91.5192 88.2196 93.1209C75.4224 96.4698 66.8424 88.8983 66.697 75.3571C67.8604 69.0961 71.0597 64.2912 78.3309 62.3983ZM88.9467 64.1456C86.62 63.1264 81.821 61.8159 79.4942 64.4368C80.9485 63.7088 82.4027 64 84.1478 63.5632C86.7654 64.1456 89.2376 64.8736 90.9827 66.6209C91.7098 67.0577 92.4369 68.9505 93.4548 68.2225C92.146 66.4753 90.5464 65.3104 88.9467 64.1456ZM68.2967 76.2307C69.0238 73.6099 69.7509 70.8434 71.6414 68.9505C72.9502 67.3489 75.4224 66.3297 77.0221 64.8736C71.6414 66.3297 67.5696 70.6978 68.2967 76.2307ZM88.9467 67.7857C86.9108 66.9121 81.2393 66.184 78.6217 68.9505C83.2752 67.2033 87.3471 67.9313 89.6738 70.261C90.8372 71.8626 91.7098 73.7555 92.146 76.522C92.2915 79.8709 91.2735 82.3461 90.1101 84.8214C89.5284 85.4038 88.0742 86.7143 88.8013 87.0055C94.6182 83.8022 93.6003 72.445 88.9467 67.7857ZM80.6576 88.3159C78.1854 87.7335 76.0041 87.4423 74.4044 85.5494C70.1872 80.7445 71.0597 72.7362 76.0041 69.8242C76.0041 69.6786 75.8587 69.3873 75.5678 69.5329C74.1136 70.6978 72.9502 72.0082 71.9323 73.4643C67.5696 82.4917 77.8946 93.8489 86.4745 87.1511C84.4386 87.8791 82.6935 88.3159 80.6576 88.3159ZM86.3291 70.989C77.6037 68.0769 71.9322 77.5412 77.6037 84.5302C79.3488 86.1318 82.839 86.4231 85.8929 85.4038C83.4207 84.8214 80.2214 85.2582 78.3309 83.6566C76.5858 82.0549 75.5678 77.6868 76.2949 75.2115C77.7492 72.2994 82.4027 70.5522 86.0383 72.0082C90.401 73.4643 90.5464 81.0357 88.5105 84.239C93.0186 82.0549 90.9827 71.8626 86.3291 70.989ZM91.2735 88.4615C97.963 86.8599 98.8355 75.6483 94.7636 68.9505C97.6721 77.3956 96.5087 84.967 91.2735 88.4615ZM86.62 82.3461C82.1119 83.3654 78.9125 82.3461 79.058 77.25C79.3488 76.2307 79.7851 75.3571 80.3668 74.6291C75.4224 77.8324 81.5302 87.2967 86.62 82.3461ZM78.3309 91.3736C77.022 90.5 75.4224 90.2088 74.259 89.1895C72.3685 87.1511 70.1872 84.239 69.4601 80.7445C69.3146 80.0165 69.6055 78.8516 68.8784 78.4148C68.5875 85.5494 72.8048 91.5192 78.3309 91.3736ZM80.3668 92.5384C82.9844 92.3928 88.0742 93.5577 89.6738 90.7912C86.4745 92.2472 83.1298 91.8104 79.9305 91.8104C79.7851 92.3928 80.2214 92.1016 80.3668 92.5384Z" fill="#FF4A2C"/>
<path fill-rule="evenodd" clip-rule="evenodd" d="M53.7544 96.6154C53.8998 97.3434 54.0452 98.0714 54.1906 98.7994C53.3181 98.6538 53.0273 98.945 52.0093 99.2362C50.8459 97.7802 51.8639 96.4698 53.7544 96.6154Z" fill="#B6CBCE"/>
<path fill-rule="evenodd" clip-rule="evenodd" d="M71.2051 163.157C69.8963 162.137 69.3146 159.953 68.4421 158.06C65.9699 143.791 62.4797 127.047 60.153 112.632C63.0614 110.157 68.1512 109.72 72.5139 108.846C85.8928 106.371 100.29 104.187 113.232 100.984C113.523 100.984 113.523 100.692 113.669 100.692C114.832 100.547 116.141 100.11 117.013 100.401C119.922 103.022 120.067 107.681 121.231 112.049C122.394 116.272 122.83 121.223 123.703 125.591C124.575 129.959 125.739 134.618 126.466 139.132C127.338 143.646 128.647 148.014 127.484 151.799C124.284 154.42 119.486 155.148 114.832 155.731C100.29 157.915 84.1477 163.157 71.2051 163.157ZM107.852 104.187C103.198 105.06 97.8175 106.08 92.5823 106.953C87.2016 107.973 81.6756 108.118 77.022 109.574C72.3685 111.03 65.9699 110.739 62.916 113.942C62.7706 121.223 65.0973 129.668 66.5516 137.821C67.2787 141.898 68.1512 145.975 69.1692 149.907C70.0417 153.838 70.478 157.915 72.6593 160.681C76.5857 161.701 81.2393 160.244 85.7474 159.371C94.909 157.624 104.071 156.604 112.796 154.42C117.159 153.401 121.812 152.964 125.448 150.926C126.902 143.937 123.848 135.055 122.249 126.464C121.521 122.242 120.503 117.874 119.631 113.797C118.758 109.72 117.886 105.497 115.414 103.168C112.796 102.585 110.469 103.75 107.852 104.187Z" fill="#B6CBCE"/>
<path fill-rule="evenodd" clip-rule="evenodd" d="M123.267 149.907C108.288 153.547 91.7097 157.478 76.2949 158.934C75.2769 158.643 74.259 158.497 73.3864 158.06C69.8963 146.558 67.4241 133.744 65.3882 121.223C66.5516 123.407 66.4061 127.484 68.0058 129.231C68.2966 125.882 66.1153 121.223 66.2607 117.582C66.5516 115.398 70.6234 115.835 71.9322 114.525C69.8963 114.234 67.1333 114.816 65.5336 116.126C64.9519 114.379 67.4241 113.942 68.7329 113.651C82.8389 110.593 99.9988 107.973 113.814 105.788C114.396 105.934 114.687 106.662 115.268 106.808C117.304 113.36 118.904 120.931 120.358 128.357C121.812 135.492 122.976 143.209 123.267 149.907ZM106.688 108.701C107.561 109.137 110.469 108.701 110.906 107.681C110.324 106.662 106.979 107.681 106.688 108.701ZM87.6379 111.904C85.8928 112.195 84.7294 112.777 83.2752 113.214C79.9305 115.398 77.6037 118.31 75.2769 121.077C74.259 123.989 72.9502 126.755 72.9502 130.396C73.6773 140.442 77.3129 148.014 83.1298 151.217C85.4565 151.654 87.347 152.527 89.5284 153.11C96.2178 153.401 102.907 152.091 107.561 148.887C110.906 146.558 114.977 141.462 115.559 137.385C116.141 134.036 115.414 129.376 114.396 125.736C112.505 118.893 107.997 114.525 103.634 111.904C99.5626 110.157 94.1819 110.302 88.0742 111.467C87.9287 111.467 87.9287 111.467 87.9287 111.613C87.7833 111.758 87.6379 111.758 87.6379 111.904ZM121.085 145.83C121.231 146.994 120.067 148.159 120.503 149.033C122.103 148.305 121.958 145.83 121.812 144.228C121.521 138.841 119.631 132.434 118.322 126.319C117.013 120.058 115.995 113.651 113.959 108.846C113.669 108.846 113.669 108.555 113.378 108.555C116.286 119.621 119.049 133.744 121.085 145.83ZM71.2051 141.753C71.2051 138.986 70.1871 134.764 69.1692 131.997C69.0238 131.997 68.8783 131.997 68.5875 132.143C69.0238 135.201 69.3146 140.005 71.2051 141.753ZM74.6952 157.332C76.8766 158.206 80.0759 158.06 82.9844 157.041C82.2572 156.313 80.803 156.75 79.6396 156.75C78.4762 156.75 77.1674 156.604 76.1495 156.604C75.8586 156.313 75.4224 156.313 75.1315 156.022C74.9861 156.022 74.8407 156.022 74.5498 156.168C74.259 156.75 74.6952 156.75 74.6952 157.332ZM110.906 151.654C112.214 151.654 114.687 151.363 114.832 150.198C113.814 149.761 111.051 150.489 110.906 151.654ZM105.525 152.819C106.397 152.964 108.288 152.527 108.288 151.654C107.27 151.363 105.525 151.799 105.525 152.819Z" fill="#B6CBCE"/>
<path fill-rule="evenodd" clip-rule="evenodd" d="M122.394 105.788C122.83 105.643 123.412 105.643 123.848 105.497C126.32 116.854 127.484 128.212 129.956 138.841C130.247 140.297 131.701 143.209 130.247 144.082C126.466 132.288 125.593 118.456 122.249 106.225C122.103 106.08 122.103 105.934 122.394 105.788Z" fill="#B6CBCE"/>
<path fill-rule="evenodd" clip-rule="evenodd" d="M138.39 103.459C137.518 114.816 136.645 126.173 134.9 136.948C134.319 131.56 135.773 126.173 135.773 120.786C136.5 115.544 136.355 109.72 136.355 104.041C136.645 103.313 137.518 103.75 138.39 103.459Z" fill="#B6CBCE"/>
<path fill-rule="evenodd" clip-rule="evenodd" d="M135.191 104.041C135.191 115.835 134.173 127.047 132.719 137.821C131.265 127.192 128.211 116.854 125.884 106.662C129.083 105.788 131.701 104.624 135.191 104.041Z" fill="#B6CBCE"/>
<path fill-rule="evenodd" clip-rule="evenodd" d="M58.6988 119.33C61.4618 131.852 62.7706 144.082 65.6791 156.604C62.6252 156.313 62.6252 152.091 61.8981 149.324C59.5713 140.297 58.2625 129.522 56.2266 120.349C57.0991 120.058 58.2625 119.33 58.6988 119.33Z" fill="#B6CBCE"/>
<path fill-rule="evenodd" clip-rule="evenodd" d="M53.8998 120.349C55.9357 129.522 57.5354 139.277 59.4259 148.305C53.1727 141.17 48.3737 131.997 43.8656 122.387C46.9195 121.368 50.5551 120.786 53.8998 120.349Z" fill="#B6CBCE"/>
<path fill-rule="evenodd" clip-rule="evenodd" d="M86.4745 114.67C86.4745 114.525 86.4745 114.525 86.62 114.525C89.9647 113.942 92.7277 113.36 95.6362 113.651C101.889 114.088 106.397 115.69 109.597 120.64C111.342 123.407 112.069 127.047 113.232 130.687C113.523 133.599 113.232 135.929 112.942 138.258C111.342 141.025 109.451 143.646 107.415 146.121C103.634 149.179 96.6541 151.071 90.5464 150.926C84.7295 149.324 80.0759 145.975 76.7312 140.733C72.8048 127.92 76.2949 118.893 86.0383 114.816C86.1837 114.67 86.3291 114.67 86.4745 114.67ZM111.342 131.269C110.469 126.61 109.306 122.533 107.27 119.475C104.943 117.582 102.035 116.418 99.1263 115.253C95.3453 115.107 88.9467 114.088 86.0383 117.291C94.1819 113.942 101.453 116.418 106.107 120.203C108.143 122.97 109.306 127.192 110.033 131.852C110.033 135.783 108.433 138.404 107.561 141.753C111.051 139.714 111.196 135.346 111.342 131.269ZM82.1119 143.5C80.2214 140.442 77.8946 137.967 77.3129 133.162C76.4404 125.882 79.9305 121.805 84.2932 118.165C74.1136 120.494 74.4044 137.967 82.1119 143.5ZM87.3471 118.747C81.6756 122.096 76.8766 129.813 80.6576 138.841C81.3847 140.588 82.839 141.753 83.8569 143.354C87.7833 146.121 91.8552 148.742 99.1263 146.558C100.29 145.83 101.308 145.247 102.907 144.81C104.362 143.791 105.234 142.335 106.397 141.025C110.469 136.074 108.579 122.97 102.471 119.766C105.234 122.242 106.834 126.755 107.706 132.143C107.415 138.258 104.652 144.228 97.8175 145.975C91.8552 147.431 87.7833 145.247 84.1478 142.481C78.4763 137.676 79.058 125.736 84.2932 121.951C85.0203 121.222 85.7474 120.64 86.7654 120.058C87.0562 119.621 87.7833 119.621 87.9288 119.184C88.5105 119.33 89.5284 118.456 88.6559 118.456C88.5105 118.456 88.365 118.456 88.365 118.456C88.2196 118.602 87.7833 118.602 87.3471 118.747ZM92.2915 118.31C95.4908 117.874 97.3813 119.475 99.708 120.349C98.1084 118.456 94.7636 117.146 92.2915 118.31ZM89.6738 121.077C84.584 123.552 83.1298 128.503 83.1298 134.472C84.2932 142.335 89.5284 144.228 95.927 144.228C99.8534 142.918 102.326 140.733 104.362 138.113C106.979 132.871 103.78 124.135 99.4172 121.951C98.2538 121.951 96.2179 120.931 95.1999 122.096C97.2358 121.805 98.5446 122.387 99.9989 122.824C103.489 125.736 106.107 133.453 103.489 137.821C101.162 140.005 99.2718 142.626 94.6182 143.354C90.401 143.063 87.2017 141.462 85.0203 138.113C84.4386 136.948 84.2932 135.201 84.0023 133.744C84.0023 129.522 84.8749 125.736 87.6379 123.261C88.2196 122.824 88.9467 122.387 89.383 121.805C89.9647 121.514 91.4189 121.077 90.9826 120.64C90.6918 120.64 90.5464 120.786 90.2555 120.786C89.9647 120.786 89.9647 121.077 89.6738 121.077ZM87.6379 127.629C86.1837 130.104 84.8749 134.036 86.7654 137.239C89.8193 142.044 98.8355 141.17 100.871 135.783C100.29 130.25 97.2358 123.698 90.9826 125.736C89.383 126.027 88.8013 127.047 87.6379 127.629ZM102.907 135.346C103.78 131.997 101.889 125.299 99.1263 125.299C101.744 126.901 102.616 131.852 102.907 135.346ZM106.107 143.5C104.216 144.956 102.762 146.703 100.435 147.868C95.6362 149.324 91.4189 148.742 87.6379 148.014C86.3291 147.431 84.8749 145.684 83.7115 145.538C87.2017 151.799 103.489 150.78 106.107 143.5Z" fill="#FFC229"/>
<path fill-rule="evenodd" clip-rule="evenodd" d="M42.1205 122.97C46.1924 131.415 50.5551 139.569 55.6449 146.703C57.0991 149.47 59.7167 150.343 60.5892 153.838C60.2984 154.712 59.5713 152.819 58.9896 152.819C58.5533 152.091 57.8262 151.654 57.2445 151.071C51.2822 142.772 45.7561 134.036 41.3934 123.552C41.3934 123.407 41.3934 123.261 41.248 122.97C41.5388 123.115 41.8297 122.97 42.1205 122.97Z" fill="#B6CBCE"/>
<path fill-rule="evenodd" clip-rule="evenodd" d="M90.8372 126.61C91.4189 126.027 92.7277 126.173 93.6003 125.882C96.945 126.901 100.144 131.415 99.4172 136.22C98.2538 137.821 96.6541 139.132 93.7457 139.714C90.9827 139.569 88.8013 138.404 87.2017 136.511C86.0383 133.453 86.7654 130.541 87.6379 128.503C88.6559 127.775 89.5284 126.901 90.8372 126.61Z" fill="#FFC229"/>
<path fill-rule="evenodd" clip-rule="evenodd" d="M128.356 156.022C131.119 162.137 132.574 170.582 133.592 179.027C135.046 189.22 138.681 199.266 138.1 208.585C121.085 213.244 102.762 217.176 84.584 219.651C81.2393 212.516 78.9125 203.489 76.8766 194.316C74.8407 185.143 72.3685 175.679 71.9323 167.088C78.04 164.03 85.7474 163.739 93.164 162.137C102.762 159.953 112.796 158.934 121.958 156.896C124.139 156.313 126.175 155.731 128.356 156.022ZM131.119 170C130.392 165.923 129.811 161.701 127.775 158.788C124.575 157.624 121.085 158.934 117.595 159.516C107.125 161.555 95.0545 163.448 84.584 165.341C80.803 166.069 77.0221 166.942 73.8227 168.253C75.277 184.124 79.9305 201.742 84.0024 216.739C88.0742 217.176 92.5823 216.302 97.0904 215.429C106.252 213.681 115.414 212.516 124.285 210.478C128.647 209.459 133.446 209.022 136.5 206.547C136.5 195.772 133.301 181.648 131.119 170Z" fill="#B6CBCE"/>
<path fill-rule="evenodd" clip-rule="evenodd" d="M126.466 160.39C128.793 166.942 129.956 175.096 131.265 182.959C132.719 190.821 134.319 198.684 134.028 205.236C119.631 209.604 101.599 212.225 86.62 215.574C84.584 212.516 84.1478 208.585 83.1298 204.799C80.0759 193.442 77.1675 180.92 75.5678 169.563C84.1478 166.942 94.6182 165.777 104.362 163.885C112.069 162.429 119.631 160.536 126.466 160.39ZM77.4583 169.563C77.3129 169.126 77.022 169.854 76.7312 169.854C75.8587 172.475 77.3129 176.115 78.1854 179.755C80.803 190.967 83.2752 203.343 86.1837 213.099C87.2016 213.681 88.365 215.283 89.8193 214.409C89.0921 213.244 87.4925 213.536 86.7654 212.225C85.3111 207.275 83.7115 202.324 83.1298 197.082C81.9664 188.637 79.6397 180.338 77.8946 171.893C77.4583 171.019 79.058 169.563 77.6037 169.563C77.6037 169.563 77.6037 169.563 77.4583 169.563ZM81.2393 170C82.1118 170.146 85.0203 170.146 85.3111 169.126C84.584 168.544 81.2393 168.253 81.2393 170ZM118.904 163.302C119.922 163.448 122.249 163.157 122.394 162.137C121.667 161.701 118.322 161.846 118.904 163.302ZM125.302 162.283C125.157 162.283 125.012 162.283 125.012 162.283C124.721 162.429 125.012 163.011 124.43 163.011C125.884 171.747 128.211 179.027 130.538 186.453C129.956 178.299 127.193 169.854 125.302 162.283ZM100.581 167.088C91.1281 170.437 84.8749 175.97 84.2932 185.434C84.584 191.549 86.4745 198.102 89.0921 202.324C92.146 206.692 96.945 208.585 102.18 209.75C109.015 209.75 114.541 207.42 119.486 204.799C125.302 198.975 129.229 191.113 125.884 179.464C121.812 171.165 115.268 166.651 105.816 166.214C104.216 166.505 102.762 166.797 101.162 167.088C101.017 167.088 101.017 167.088 101.017 167.234C100.871 167.088 100.726 167.088 100.581 167.088ZM131.846 204.799C134.9 203.343 132.574 197.374 131.556 194.316C131.846 197.956 132.719 201.887 131.846 204.799ZM126.03 205.964C127.193 206.547 128.793 205.964 129.811 205.236C129.083 204.508 130.247 204.654 130.392 204.071C128.502 203.926 127.048 205.236 126.03 205.964Z" fill="#B6CBCE"/>
<path fill-rule="evenodd" clip-rule="evenodd" d="M134.755 160.536C134.9 160.536 134.9 160.536 134.9 160.681C137.373 172.33 139.263 184.997 141.154 196.209C141.444 197.519 142.317 199.703 140.426 200.286C139.263 199.412 139.408 197.665 139.118 196.5C137.082 185.143 134.9 172.475 132.719 161.555C133.737 161.264 134.173 160.827 134.755 160.536Z" fill="#B6CBCE"/>
<path fill-rule="evenodd" clip-rule="evenodd" d="M146.825 159.08C145.662 171.31 145.08 183.832 144.062 196.063C141.881 185.434 139.263 172.184 136.791 160.681C140.136 160.244 143.771 159.225 146.825 159.08ZM140.572 161.846C141.735 161.846 143.917 161.555 144.207 160.39C143.044 160.39 140.863 160.827 140.572 161.846Z" fill="#B6CBCE"/>
<path fill-rule="evenodd" clip-rule="evenodd" d="M65.8245 175.97C67.8604 185.871 69.8963 195.626 72.2231 205.091C66.4062 196.791 60.5892 187.181 56.5174 176.989C59.8621 176.261 62.916 175.97 65.8245 175.97Z" fill="#B6CBCE"/>
<path fill-rule="evenodd" clip-rule="evenodd" d="M101.017 169.272C101.017 169.126 101.017 169.126 101.162 169.126C111.487 167.234 117.74 171.019 122.394 177.28C129.229 192.423 122.394 205.819 105.234 207.275C103.489 206.984 101.453 206.984 99.708 206.401C96.5087 205.527 94.0365 203.635 91.8551 201.451C90.6918 198.247 88.9467 196.063 87.7833 193.005C85.1657 180.338 90.5463 173.203 100.726 169.418C100.726 169.272 100.871 169.272 101.017 169.272ZM101.162 171.602C103.053 171.019 104.943 171.456 106.252 170.874C104.943 170.437 101.889 170.146 101.162 171.602ZM96.7995 172.475C96.6541 172.621 96.3633 172.766 96.3633 172.912C90.5463 176.698 86.9108 183.104 88.8013 191.695C90.4009 198.975 96.0724 203.926 102.035 204.945C101.453 203.489 99.708 203.78 98.5446 203.198C94.0365 200.14 90.1101 196.063 89.0921 187.764C89.2375 180.629 92.8731 175.97 98.1083 172.33C97.6721 172.33 97.2358 172.33 96.7995 172.475ZM101.308 174.223C104.943 173.349 107.997 173.494 110.469 174.223C109.015 172.184 103.489 172.475 101.308 174.223ZM116.868 174.514C118.613 176.989 120.213 179.61 121.521 182.522C123.557 190.239 120.794 194.898 117.886 199.266C116.432 201.451 113.087 202.324 111.051 204.071C114.832 203.343 116.722 201.451 118.904 199.558C121.521 194.898 124.284 190.385 122.249 182.522C120.067 177.717 117.45 173.349 113.232 171.456C113.959 172.912 115.559 173.495 116.868 174.514ZM97.6721 174.951C95.6361 176.698 93.3094 179.027 92.146 182.085C90.5463 186.453 92.0006 195.626 95.4907 199.412C98.1083 202.324 103.634 203.635 107.997 203.635C111.487 202.907 112.651 200.577 115.268 199.412C117.013 197.228 119.195 194.753 120.067 191.404C121.667 184.269 117.886 175.679 112.214 173.64C115.705 176.552 119.049 179.464 119.776 186.453C119.922 194.17 115.995 198.975 109.742 202.324C108.87 202.761 107.561 202.907 106.397 203.052C102.326 202.615 98.8354 201.159 96.0724 198.83C93.7456 196.063 92.2914 190.385 92.146 185.725C92.4368 184.56 92.7277 183.396 93.0185 182.085C93.8911 180.775 94.4728 179.173 95.6361 178.154C95.927 177.571 96.2178 176.843 96.9449 176.552C97.0904 176.115 98.8354 175.387 97.8175 175.096C97.8175 174.805 97.6721 174.805 97.6721 174.951ZM101.598 176.261C97.9629 178.299 95.7816 181.212 94.4728 184.997C93.6002 194.898 100.871 201.742 109.015 199.412C111.778 198.684 113.378 196.646 114.541 194.316C112.214 196.063 110.906 198.247 107.27 198.538C101.308 199.121 97.0904 195.772 95.6361 190.385C93.8911 183.541 97.9629 179.319 102.616 175.97C102.326 176.115 101.889 176.115 101.598 176.261ZM104.798 176.115C105.234 175.97 106.252 176.115 106.397 175.679C106.252 175.533 104.652 175.533 104.798 176.115ZM113.232 178.299C114.832 180.192 115.85 182.813 116.432 186.453C116.722 189.365 114.396 191.404 114.25 193.734C115.705 191.695 117.304 189.657 117.159 186.599C116.286 180.92 114.105 177.28 110.178 175.824C110.033 175.824 109.888 175.824 109.597 175.97C110.615 176.843 112.214 177.135 113.232 178.299ZM100.144 180.338C99.1263 181.94 98.2538 183.541 97.5266 185.434C96.3633 195.626 107.27 199.266 113.087 192.714C114.105 190.53 115.268 186.162 113.232 182.231C111.924 180.775 110.615 179.319 108.87 178.445C107.706 178.445 106.834 177.863 105.379 178.299C111.051 178.299 115.268 183.978 113.232 190.093C111.924 191.549 110.615 193.151 109.015 194.316C103.634 196.791 99.5626 193.588 98.3992 188.492C97.8175 184.997 99.2717 182.668 100.871 180.629C101.308 179.901 103.78 179.173 102.907 178.591C102.762 178.591 102.616 178.591 102.616 178.591C101.598 179.173 101.017 179.901 100.144 180.338ZM109.597 189.948C110.76 188.929 110.615 185.58 109.015 184.706C111.778 188.783 106.397 192.132 104.071 188.637C103.489 187.473 104.507 186.016 103.78 185.725C101.598 189.22 106.107 192.569 109.597 189.948Z" fill="#4C8E13"/>
<path fill-rule="evenodd" clip-rule="evenodd" d="M73.3865 209.604C64.9519 202.033 59.2804 190.385 53.8998 178.299C54.1906 178.154 54.3361 177.717 54.9177 177.717C60.153 189.657 65.679 201.159 73.3865 209.604Z" fill="#B6CBCE"/>
<path fill-rule="evenodd" clip-rule="evenodd" d="M110.324 217.321C112.941 216.885 115.559 216.302 118.177 215.865C118.904 216.011 117.74 217.321 117.595 217.758C115.414 218.777 113.087 218.486 110.76 218.777C110.615 218.486 110.469 218.049 110.324 217.321Z" fill="#B6CBCE"/>
<path fill-rule="evenodd" clip-rule="evenodd" d="M105.67 218.632C106.543 218.049 108.143 218.049 109.306 217.758C109.451 218.195 109.451 218.777 109.597 219.214C108.724 219.651 107.561 219.797 106.397 219.942C106.107 219.505 105.961 218.923 105.67 218.632Z" fill="#B6CBCE"/>
<path fill-rule="evenodd" clip-rule="evenodd" d="M115.123 48.2747C118.613 46.8187 122.83 47.1099 126.902 46.0906C125.012 57.3022 123.994 69.5329 122.103 81.0357C121.958 81.6181 122.103 82.9286 121.667 82.6373C120.213 71.5714 117.595 59.6318 115.123 48.2747Z" fill="#B6CBCE"/>
<path fill-rule="evenodd" clip-rule="evenodd" d="M148.279 159.08C149.443 158.934 148.425 160.099 148.716 160.827C148.279 161.264 148.716 162.429 148.425 162.865C148.57 164.467 148.134 165.777 148.279 167.525C147.843 170.291 147.988 173.494 147.698 176.261C147.407 182.231 146.534 187.764 145.953 193.588C145.516 193.442 145.953 192.569 145.953 192.277C146.68 183.978 146.825 175.242 147.552 166.942C147.407 165.486 147.698 164.176 147.698 162.72C147.988 161.701 147.407 159.225 148.279 159.08Z" fill="#B6CBCE"/>
<path fill-rule="evenodd" clip-rule="evenodd" d="M69.6055 173.058C69.7509 173.058 69.7509 173.058 69.7509 173.203C72.6594 185.434 75.4224 199.266 78.04 211.352C75.4224 211.497 75.5678 207.42 74.259 205.819C72.6594 198.102 70.478 190.239 69.0238 182.085C68.5875 179.464 67.4241 176.698 68.2967 174.514C69.3146 180.338 70.3326 186.308 72.2231 190.967C71.9322 185.434 69.6055 179.319 69.0238 173.64C69.3146 173.349 69.6055 173.203 69.6055 173.058Z" fill="#B6CBCE"/>
<path fill-rule="evenodd" clip-rule="evenodd" d="M206.448 160.973C204.703 158.206 202.667 155.585 200.631 153.11C197.578 150.489 196.705 145.684 191.034 145.83C190.888 145.83 190.888 145.83 190.888 145.975C190.743 145.975 190.597 145.975 190.597 146.121C187.107 147.431 185.071 151.071 183.035 154.129C177.8 161.992 172.71 170.146 167.766 177.717C164.276 182.813 161.513 188.637 158.168 194.025C156.714 196.791 155.114 199.558 153.514 202.324C152.06 205.091 149.879 208.003 150.751 211.934C150.897 211.934 150.897 212.08 150.897 212.225C152.933 214.992 157.295 214.409 160.786 214.409C172.856 214.409 183.908 215.574 195.542 215.574C202.813 215.574 211.247 215.865 218.955 216.302C222.445 216.448 226.953 216.448 230.443 216.011C233.788 215.574 237.278 214.555 237.86 211.352C235.678 204.508 231.607 199.266 228.407 193.442C224.917 187.764 221.136 182.522 217.646 176.843C213.865 171.747 210.375 166.069 206.448 160.973Z" fill="black"/>
<path fill-rule="evenodd" clip-rule="evenodd" d="M188.707 178.882C187.834 180.338 186.816 181.648 185.944 183.25C184.78 182.813 183.617 182.231 182.599 181.648C183.181 180.629 183.908 179.173 184.78 178.882C186.089 178.882 187.398 178.882 188.707 178.882Z" fill="white"/>
<path fill-rule="evenodd" clip-rule="evenodd" d="M196.123 183.25C197.141 185.434 198.159 187.909 199.032 190.239C196.996 189.511 195.396 188.346 193.797 187.181C194.524 186.016 195.251 184.706 196.123 183.25Z" fill="white"/>
<path fill-rule="evenodd" clip-rule="evenodd" d="M192.197 154.566C192.342 154.42 192.342 154.566 192.197 154.566C195.105 155.731 195.833 158.788 197.723 160.681C199.468 162.72 200.777 165.195 202.522 167.234C205.14 172.038 208.193 176.552 211.247 181.066C217.646 189.802 223.899 198.684 229.571 208.003C221.427 209.459 211.974 208.44 203.54 208.003C191.615 207.42 179.836 207.42 167.33 207.42C164.421 207.42 161.367 207.712 159.041 206.547C161.222 202.033 163.985 197.81 166.312 193.588C168.784 189.365 171.111 184.997 173.728 180.92C178.963 172.766 184.49 164.758 189.579 156.313C190.597 155.876 191.034 154.857 192.197 154.566ZM198.741 193.297C198.45 192.86 198.305 192.423 198.014 191.986C198.159 191.986 198.159 192.132 198.305 192.132C200.777 193.588 203.54 194.753 205.867 196.354C203.395 197.519 200.777 202.179 202.813 205.236C207.176 205.236 211.829 205.819 216.483 205.964C218.955 206.11 221.572 206.255 223.463 205.673C223.608 205.527 223.608 205.091 223.899 204.945C223.172 200.868 220.554 198.975 218.955 195.772C217.064 193.005 215.465 189.948 212.411 188.346C209.648 189.365 209.066 192.569 207.612 195.044C205.721 194.025 203.685 193.151 201.94 191.986C201.504 186.744 199.904 181.503 198.45 176.843C195.978 172.912 187.398 173.786 182.017 174.659C180.854 176.115 180.127 178.008 179.254 179.901C178.673 179.319 177.073 178.736 176.782 180.047C176.928 181.066 178.091 181.212 178.818 181.794C178.818 182.522 178.963 182.959 179.545 183.104C181.727 182.959 183.035 184.124 184.635 184.997C183.908 186.599 182.308 188.637 183.326 190.821C185.798 193.588 190.452 194.316 193.797 196.354C194.378 199.994 192.633 205.964 196.269 206.547C199.177 203.78 198.305 197.81 198.741 193.297ZM193.942 173.64C194.96 173.64 195.542 173.931 196.705 173.931C200.777 173.64 201.359 167.234 198.305 165.195C197.287 165.049 195.687 164.613 194.524 165.049C190.597 165.777 190.888 172.184 193.942 173.64ZM183.472 195.772C181.726 198.538 179.545 200.723 177.946 203.635C177.946 204.363 177.8 204.508 177.946 205.091C178.382 205.527 179.109 205.819 180.127 205.673C183.908 202.615 188.125 200.14 189.579 194.753C187.253 194.025 185.362 192.86 183.472 191.841C183.326 193.151 183.035 194.607 183.472 195.772Z" fill="white"/>
<path fill-rule="evenodd" clip-rule="evenodd" d="M191.179 147.723C191.179 147.577 191.179 147.577 191.179 147.723C195.396 148.159 196.414 151.654 198.596 153.984C200.777 156.313 202.667 158.934 204.703 161.409C212.992 173.494 220.991 185.725 228.989 198.247C230.298 200.286 231.752 202.324 233.061 204.363C234.37 206.401 236.26 208.731 235.388 211.497C234.515 212.808 232.77 212.808 231.316 212.953C219.973 214.409 205.576 213.099 193.797 213.099C183.181 213.099 172.856 212.662 161.804 212.371C158.75 212.371 154.387 213.099 152.933 210.332C153.805 203.343 158.023 198.684 160.931 193.297C164.13 188.201 167.33 182.959 170.384 177.571C173.728 172.475 176.491 166.797 180.127 161.992C183.762 157.187 185.798 150.926 190.743 147.431C190.888 147.868 191.034 147.723 191.179 147.723ZM189.434 150.489C186.089 153.255 183.762 158.206 181.436 161.992C178.818 166.069 176.2 170 173.728 173.931C168.057 182.522 163.258 190.821 158.895 198.538C164.276 191.549 168.784 183.104 174.165 174.951C177.946 169.126 181.872 163.157 185.653 157.041C187.253 154.42 188.707 151.508 191.179 150.489C191.906 150.343 191.906 150.926 192.633 150.78C192.342 148.887 190.452 149.761 189.434 150.489ZM197.287 155.585C198.305 156.604 199.032 157.624 200.05 158.643C210.666 171.165 218.519 186.599 228.262 199.994C230.152 201.887 231.17 205.236 233.061 206.547C232.915 206.547 232.915 206.547 232.915 206.401C230.734 201.014 226.953 197.082 223.899 192.569C220.845 187.909 218.228 182.813 215.174 178.299C208.921 169.272 203.104 159.808 195.105 152.527C194.96 153.692 196.705 154.42 197.287 155.585ZM175.764 209.168C182.163 209.459 188.561 209.459 194.96 209.604C203.976 209.75 213.865 210.332 223.463 210.187C226.371 210.187 230.152 210.915 231.461 208.294C231.316 205.236 228.698 203.052 227.244 200.868C222.445 193.733 217.791 186.453 212.847 179.464C209.939 174.514 206.739 169.709 203.395 165.049C201.795 162.574 199.904 160.536 198.159 158.352C196.269 156.168 195.251 153.11 191.615 152.673C191.47 152.673 191.324 152.819 191.179 152.964C190.597 153.11 190.306 153.547 189.579 153.547C183.326 162.137 178.091 171.456 172.129 180.338C167.766 187.036 163.694 193.879 159.768 201.014C158.459 203.198 156.714 205.964 156.859 208.585C163.112 209.75 169.366 209.022 175.764 209.168ZM154.387 210.478C155.55 211.788 157.295 211.352 159.186 211.352C172.856 211.497 187.834 211.934 202.086 211.934C206.885 211.934 211.538 212.662 216.046 211.788C199.177 211.06 179.836 210.624 162.24 210.624C159.913 210.624 157.005 211.352 155.405 209.604C155.114 207.129 157.005 205.382 156.568 203.635C155.696 205.964 153.951 207.712 154.387 210.478ZM233.497 209.75C230.298 212.225 223.608 211.06 219.1 212.225C223.463 212.516 228.407 212.371 232.043 211.497C232.77 210.769 234.224 210.624 234.079 208.876C233.933 208.876 233.933 208.731 233.643 208.731C233.643 209.168 233.352 209.313 233.497 209.75Z" fill="#FF4A2C"/>
<path fill-rule="evenodd" clip-rule="evenodd" d="M224.481 146.266C227.389 149.033 228.989 152.819 232.77 154.857C238.005 154.129 242.222 152.382 247.458 151.654C252.402 150.635 257.492 149.907 261.564 147.723C261.564 146.703 261.855 145.247 262 144.374C260.109 142.19 257.928 140.151 256.183 137.821C255.311 131.852 255.02 125.591 253.565 120.058C253.129 115.253 252.111 110.739 251.384 106.08C250.657 103.168 250.075 99.0906 249.057 96.0329C248.621 94.8681 248.185 92.9753 246.731 92.9753C246.585 92.9753 246.44 93.1209 246.294 93.1209C245.567 93.5577 244.985 94.1401 244.404 94.5769C238.151 105.497 232.915 118.165 227.826 130.541C224.772 131.706 220.845 131.706 218.228 133.308C217.937 133.453 217.937 133.89 217.646 134.036C217.355 135.055 217.646 135.783 217.646 136.511C219.536 140.151 222.3 143.063 224.481 146.266Z" fill="black"/>
<path fill-rule="evenodd" clip-rule="evenodd" d="M246.731 95.0137C247.749 96.6154 248.039 98.945 248.476 100.983C247.458 101.275 246.294 101.42 244.549 101.129C245.131 99.2362 246.003 97.6346 246.876 95.8873C245.567 96.6154 244.985 99.3818 243.968 100.983C243.531 100.983 243.531 100.692 243.24 100.692C244.258 98.6538 244.84 96.0329 246.731 95.0137Z" fill="#FF4A2C"/>
<path fill-rule="evenodd" clip-rule="evenodd" d="M248.766 103.022C248.912 103.022 248.912 103.168 249.057 103.168C249.348 105.788 250.221 108.555 250.366 111.03C249.784 111.176 250.075 109.72 249.639 109.283C249.639 108.555 249.348 107.973 249.203 107.099C248.912 105.788 248.621 104.478 248.33 103.022C248.476 103.168 248.621 103.313 248.766 103.022Z" fill="white"/>
<path fill-rule="evenodd" clip-rule="evenodd" d="M243.386 103.022C242.222 105.352 241.35 108.118 240.187 110.448C239.75 110.302 239.459 110.157 239.169 110.011C240.332 107.681 241.35 105.206 242.513 102.731C242.95 102.731 242.95 103.022 243.386 103.022Z" fill="white"/>
<path fill-rule="evenodd" clip-rule="evenodd" d="M249.348 111.467C246.731 111.613 243.677 111.758 240.914 110.593C241.932 108.118 242.804 105.643 243.822 103.168C244.985 103.604 246.585 103.75 247.603 103.459C248.476 105.934 248.621 108.846 249.348 111.467Z" fill="white"/>
<path fill-rule="evenodd" clip-rule="evenodd" d="M250.366 115.835C250.802 114.962 250.075 113.36 250.366 112.486C251.093 115.253 251.384 118.456 251.82 121.514C251.384 121.659 251.093 121.805 250.657 121.951C250.657 121.514 250.512 121.077 250.366 120.64C249.784 120.786 250.366 121.659 250.075 122.242C246.294 123.261 240.477 122.096 236.842 120.494C238.005 117.874 239.023 114.962 240.041 112.195C242.804 113.505 247.021 114.233 249.494 113.214C249.784 114.088 250.512 114.67 250.366 115.835Z" fill="#FF4A2C"/>
<path fill-rule="evenodd" clip-rule="evenodd" d="M238.732 111.03C239.023 111.321 239.459 111.467 239.75 111.613C238.732 114.525 237.569 117.291 236.406 120.058C235.678 120.058 235.242 119.621 234.806 119.33C235.969 116.563 237.423 113.797 238.732 111.03Z" fill="#FF4A2C"/>
<path fill-rule="evenodd" clip-rule="evenodd" d="M251.966 122.679C252.693 125.154 252.838 128.066 253.42 130.687C252.984 130.541 252.984 130.978 252.547 130.832C252.111 128.357 251.675 125.882 251.093 123.407C251.384 123.115 251.675 122.97 251.966 122.679Z" fill="white"/>
<path fill-rule="evenodd" clip-rule="evenodd" d="M233.933 120.931C234.515 121.223 235.242 121.368 235.824 121.659C234.951 124.426 233.933 126.901 232.915 129.522C232.043 129.376 231.316 128.94 230.734 128.648C231.752 126.173 232.625 123.261 233.933 120.931Z" fill="white"/>
<path fill-rule="evenodd" clip-rule="evenodd" d="M250.366 123.552C251.239 125.882 251.239 128.648 251.82 130.978C246.876 132.434 239.314 132.434 233.497 129.813C234.515 127.192 235.533 124.717 236.406 121.951C240.914 123.115 246.44 124.717 250.366 123.552Z" fill="white"/>
<path fill-rule="evenodd" clip-rule="evenodd" d="M253.565 132.725C254.147 135.492 254.729 138.258 254.293 141.898C252.693 142.918 250.657 142.772 248.476 142.772C246.44 142.772 244.113 142.918 241.932 142.626C239.459 142.335 236.987 140.879 234.806 140.297C233.206 139.86 231.461 139.714 230.152 138.986C231.17 136.511 232.043 133.744 233.061 131.415C238.587 133.744 246.731 134.764 252.111 133.599C252.402 135.783 252.693 137.967 253.129 140.151C248.039 140.151 242.368 141.316 236.987 138.986C235.969 138.986 234.37 138.258 233.788 138.841C239.605 141.17 247.603 142.044 252.838 140.588C253.275 140.442 253.129 141.316 253.565 141.462C254.147 138.549 252.984 135.929 252.984 133.016C253.275 133.016 253.42 132.871 253.565 132.725Z" fill="#FF4A2C"/>
<path fill-rule="evenodd" clip-rule="evenodd" d="M230.298 129.813C230.879 130.25 231.607 130.541 232.334 130.832C231.607 133.599 230.443 135.783 229.571 138.549C228.698 138.113 228.116 137.53 227.535 136.802C228.262 134.181 229.28 131.997 230.298 129.813Z" fill="#FF4A2C"/>
<path fill-rule="evenodd" clip-rule="evenodd" d="M222.881 135.346C223.899 135.346 225.353 134.618 226.517 134.327C225.935 135.492 225.644 137.093 225.644 138.549C226.662 139.86 228.698 140.879 230.734 141.753C235.533 143.791 242.804 145.684 248.621 144.956C252.111 145.102 254.729 144.374 256.474 142.19C256.619 141.607 256.183 141.316 256.328 140.733C257.201 141.753 258.655 143.063 258.946 144.082C255.02 144.956 251.093 146.412 246.876 147.431C242.659 148.451 238.151 148.159 234.079 149.615C231.17 147.431 228.989 144.81 226.662 142.19C225.499 141.025 224.481 139.569 223.463 138.258C222.445 136.948 221.136 135.637 220.554 134.181C221.136 133.308 222.445 133.308 223.463 132.871C224.481 132.58 225.499 132.143 226.662 131.997C226.662 131.852 226.953 131.997 226.953 131.852C227.535 131.997 226.808 132.288 226.953 132.725C225.79 134.036 223.754 133.89 222.881 135.346ZM234.37 148.305C232.77 145.975 230.443 144.082 228.262 142.044C228.116 142.044 227.971 142.044 227.971 142.044C229.861 144.228 231.607 146.558 234.37 148.305Z" fill="#FF4A2C"/>
<path fill-rule="evenodd" clip-rule="evenodd" d="M219.682 136.22C224.19 141.025 227.68 146.558 232.77 150.926C232.625 151.363 232.625 151.945 232.479 152.382C232.334 152.819 231.897 151.945 231.461 151.945C231.316 151.508 230.879 151.363 230.734 151.071C229.134 149.179 227.68 147.14 225.935 145.247C224.19 142.481 221.572 140.151 219.536 137.53C219.682 137.093 219.536 136.802 219.682 136.22Z" fill="white"/>
<path fill-rule="evenodd" clip-rule="evenodd" d="M260.4 145.975C260.546 145.975 260.4 146.121 260.546 146.266C260.4 147.286 259.237 147.431 258.51 147.723C257.637 148.014 256.619 148.159 255.892 148.305C254.293 148.887 252.402 149.033 250.802 149.761C244.84 150.635 239.314 152.091 234.079 153.692C234.224 153.11 234.37 152.382 234.515 151.654C243.24 149.907 252.111 148.451 260.4 145.975Z" fill="#FF4A2C"/>
<path fill-rule="evenodd" clip-rule="evenodd" d="M17.9803 121.223C17.3986 121.659 17.1078 122.242 16.6715 122.824C14.781 136.074 14.781 150.635 14.4902 164.758C14.1993 165.049 13.1813 165.049 12.8905 165.341C12.3088 170.728 11.2908 176.552 11 182.376C11.1454 183.25 11.4363 184.269 11.7271 184.706C13.1813 185.434 14.6356 184.706 16.0898 184.269C21.0342 182.813 25.9786 181.648 30.9229 180.775C37.6124 179.464 44.3019 177.135 50.8459 175.97C51.7184 175.533 52.591 175.096 52.8818 174.368C52.7364 173.64 52.591 172.475 52.1547 171.602C48.6645 167.525 45.6107 162.574 42.2659 158.206C41.9751 157.769 40.9571 158.497 40.8117 158.352C39.9392 156.313 38.9212 154.566 37.7578 152.964C36.5944 150.635 35.1402 148.887 34.4131 145.975C30.7775 139.714 27.1419 132.58 23.5064 126.464C22.343 124.426 21.325 122.096 19.2891 120.931C18.7074 120.931 18.2711 121.077 17.9803 121.223Z" fill="black"/>
<path fill-rule="evenodd" clip-rule="evenodd" d="M25.8331 133.453C24.3789 134.764 22.0521 135.492 19.4345 136.074C19.2891 132.58 19.2891 128.648 19.4345 125.591C18.562 126.901 19.1437 129.085 18.8528 130.687C18.8528 132.434 18.7074 134.181 18.8528 136.074C18.2711 136.22 17.6894 136.22 17.2532 136.22C17.544 131.852 17.2532 127.192 18.2711 123.261C21.7613 125.008 23.2155 130.104 25.8331 133.453Z" fill="#FFC229"/>
<path fill-rule="evenodd" clip-rule="evenodd" d="M29.6142 140.879C28.0145 143.791 23.6518 145.247 19.2891 145.83C19.1437 142.918 19.1437 140.151 19.2891 137.385C21.9067 136.948 25.106 136.22 26.2694 134.764C27.5782 136.511 28.4508 138.986 29.6142 140.879Z" fill="white"/>
<path fill-rule="evenodd" clip-rule="evenodd" d="M17.2532 137.385C17.6894 137.385 18.1257 137.53 18.7074 137.385C18.8528 140.297 18.7074 142.918 18.8528 145.684C18.4166 145.684 17.9803 145.538 17.3986 145.538C17.2532 142.772 17.3986 140.151 17.2532 137.385Z" fill="white"/>
<path fill-rule="evenodd" clip-rule="evenodd" d="M34.1222 149.324C31.65 152.673 24.2335 154.42 19.1437 154.712C18.9982 153.692 18.9982 152.819 18.9982 151.799C18.2711 152.382 18.562 153.692 18.562 154.712C17.8349 155.003 17.3986 154.712 16.8169 154.712C16.8169 152.091 17.1077 149.615 17.1077 146.994C17.6894 146.849 18.1257 147.14 18.7074 147.14C18.7074 147.431 18.7074 147.868 18.8528 148.305C19.2891 148.451 19.1437 147.577 19.2891 147.286C23.6518 146.994 28.3053 145.247 30.3412 142.772C31.7955 144.665 32.9588 146.994 34.1222 149.324Z" fill="#FFC229"/>
<path fill-rule="evenodd" clip-rule="evenodd" d="M38.0487 156.604C35.1402 161.118 25.6877 163.885 18.9983 163.448C18.9983 160.973 19.2891 158.934 19.1437 156.459C24.6698 155.585 31.6501 154.129 34.9948 151.071C36.0128 152.819 37.0307 154.857 38.0487 156.604Z" fill="white"/>
<path fill-rule="evenodd" clip-rule="evenodd" d="M16.6715 156.459C17.2532 156.459 17.8349 156.604 18.4166 156.459C18.562 158.934 18.1257 160.972 18.1257 163.448C17.544 163.593 17.2532 163.302 16.6715 163.302C16.5261 160.827 16.8169 158.788 16.6715 156.459Z" fill="white"/>
<path fill-rule="evenodd" clip-rule="evenodd" d="M38.7758 158.643C39.6483 159.953 40.23 161.846 40.9572 163.448C38.485 166.797 32.9589 168.544 27.2874 169.709C25.3969 170 23.6518 170.146 21.9067 170.728C25.1061 171.165 29.3233 170.146 33.1043 169.126C36.7399 168.253 39.6483 166.36 41.3934 164.467C41.3934 164.758 41.5388 165.049 41.5388 165.341C40.6663 166.797 38.6304 167.379 37.1762 168.544C33.8314 170.146 28.887 171.456 25.2515 172.184C23.0701 172.038 20.7434 172.038 18.562 171.893C17.8349 171.602 17.2532 171.31 16.5261 170.874C16.2353 168.69 16.5261 166.797 16.3807 164.758C16.8169 164.904 17.2532 164.904 17.6895 165.049C17.6895 166.797 17.3986 168.398 17.6895 170.437C17.9803 170.874 18.4166 171.165 19.1437 171.019C19.58 170.582 18.562 170.437 18.562 169.709C18.562 168.107 18.7074 166.651 18.562 165.195C25.3969 165.777 35.2857 163.011 38.7758 158.643Z" fill="#FFC229"/>
<path fill-rule="evenodd" clip-rule="evenodd" d="M50.5551 173.203C51.1368 174.223 49.9734 174.368 49.2463 174.514C38.485 177.28 27.2874 179.319 16.6715 182.231C15.6536 182.813 14.4902 183.25 13.4722 183.541C13.1814 182.959 13.0359 182.376 13.0359 181.794C23.361 178.882 34.704 176.989 45.029 173.786C45.6107 173.64 46.1924 173.494 46.7741 173.349C47.3558 173.058 47.5012 173.349 48.0829 173.349C48.81 173.349 50.2642 172.475 50.5551 173.203Z" fill="#FFC229"/>
<path fill-rule="evenodd" clip-rule="evenodd" d="M48.81 170.582C38.0487 175.096 24.8152 176.989 13.0359 179.61C13.3268 177.426 13.4722 175.096 13.4722 172.766C13.6176 171.747 13.7631 170.582 13.9085 169.563C14.0539 168.398 13.9085 167.233 14.3448 166.36C14.6356 168.253 14.1993 169.854 14.9264 171.893C15.0719 174.077 14.1993 175.97 15.0719 178.299C16.2353 178.299 18.562 177.571 19.4346 176.843C24.8152 176.261 31.0684 175.387 36.7399 173.64C39.7938 172.766 43.4293 172.33 45.7561 170.728C44.5927 170.291 43.4293 171.019 42.266 171.31C38.9212 172.33 35.1402 173.494 31.3592 174.368C25.9786 175.679 20.3071 175.533 15.2173 177.717C14.9264 175.97 15.2173 174.514 15.2173 172.912C15.3627 172.475 15.9444 173.64 16.5261 173.349C21.4705 176.115 34.4131 173.494 39.9392 169.709C40.8117 169.272 41.3934 168.69 42.1205 168.107C42.7022 167.525 43.1385 166.651 43.7202 166.36C43.5748 164.467 42.4114 162.865 41.8297 161.409C41.6843 160.827 41.9751 161.555 42.266 161.555C42.4114 161.846 42.5568 161.992 42.7022 162.137C42.9931 162.574 43.1385 163.011 43.5748 163.302C44.011 164.176 44.7382 164.904 45.3198 165.632C46.4832 167.233 48.0829 168.107 48.81 170.582Z" fill="#FFC229"/>
</g>
<defs>
<filter id="filter0_d_12_2" x="7" y="11" width="259" height="220" filterUnits="userSpaceOnUse" color-interpolation-filters="sRGB">
<feFlood flood-opacity="0" result="BackgroundImageFix"/>
<feColorMatrix in="SourceAlpha" type="matrix" values="0 0 0 0 0 0 0 0 0 0 0 0 0 0 0 0 0 0 127 0" result="hardAlpha"/>
<feOffset dy="4"/>
<feGaussianBlur stdDeviation="2"/>
<feComposite in2="hardAlpha" operator="out"/>
<feColorMatrix type="matrix" values="0 0 0 0 0 0 0 0 0 0 0 0 0 0 0 0 0 0 0.25 0"/>
<feBlend mode="normal" in2="BackgroundImageFix" result="effect1_dropShadow_12_2"/>
<feBlend mode="normal" in="SourceGraphic" in2="effect1_dropShadow_12_2" result="shape"/>
</filter>
<clipPath id="clip0_12_2">
<rect width="251" height="212" fill="white" transform="translate(11 11)"/>
</clipPath>
</defs>
</svg>
