<svg width="281" height="278" viewBox="0 0 281 278" fill="none" xmlns="http://www.w3.org/2000/svg">
<path d="M276.708 158.118C273.187 150.774 267.265 145.824 260.542 143.908C259.902 141.673 259.262 139.598 258.461 137.522C251.259 117.725 236.533 102.558 216.686 98.7264C216.846 94.2561 216.686 89.7858 216.206 85.4751C216.366 85.4751 216.526 85.4751 216.686 85.4751C230.451 85.4751 230.451 64.0815 216.686 64.0815C214.605 64.0815 212.684 64.5604 211.244 65.5183C208.683 58.9725 205.321 52.9057 200.84 47.3178C196.038 41.2509 189.956 36.142 183.393 32.3103C183.553 31.5121 183.713 30.5541 183.713 29.7559V27.2014C183.713 21.4539 178.912 16.5046 172.989 16.5046C169.468 16.5046 166.267 18.2608 164.346 20.9749C159.544 18.5801 154.583 16.8239 149.301 15.7063C130.254 11.236 108.485 17.3029 91.199 25.2856C78.0741 31.3524 67.03 41.0913 61.1078 53.704C28.1355 47.7968 -6.27733 83.5593 1.72566 118.523C3.16619 124.431 5.40703 130.178 8.44816 135.447C4.60673 137.043 1.88572 140.875 1.88572 145.186C1.88572 150.933 6.6875 155.883 12.6097 155.883H13.41C16.4511 155.883 19.1722 154.605 21.0929 152.53C26.5349 158.437 32.7772 163.865 39.1796 168.495C33.2574 187.175 36.7787 207.131 46.8625 224.214C58.8669 244.49 79.5146 255.347 102.883 255.826C116.648 256.145 129.453 252.633 140.657 246.247C152.342 252.633 164.986 256.624 178.912 256.464C208.363 256.305 240.214 234.113 255.42 209.846C256.541 208.089 257.501 206.173 258.461 204.258C264.384 202.661 269.826 199.628 273.987 195.477C283.591 186.217 282.15 169.293 276.708 158.118Z" fill="#178CA4" fill-opacity="0.3"/>
<path d="M194.437 17.3029C191.236 17.3029 188.675 19.8573 188.675 23.0504V23.8487C188.675 27.0417 191.236 29.5962 194.437 29.5962C197.639 29.5962 200.2 27.0417 200.2 23.8487V23.0504C200.2 19.8573 197.639 17.3029 194.437 17.3029Z" fill="#178CA4" fill-opacity="0.3"/>
<path d="M15.0106 165.781C7.64784 165.781 7.64784 177.276 15.0106 177.276C22.5334 177.276 22.5334 165.781 15.0106 165.781Z" fill="#178CA4" fill-opacity="0.3"/>
<path d="M226.609 25.4452C219.247 25.4452 219.247 36.9403 226.609 36.9403C233.972 36.9403 233.972 25.4452 226.609 25.4452Z" fill="#178CA4" fill-opacity="0.3"/>
<path d="M128.653 261.094C118.089 261.094 118.089 277.539 128.653 277.539C139.217 277.539 139.217 261.094 128.653 261.094Z" fill="#178CA4" fill-opacity="0.3"/>
<g clip-path="url(#clip0_12_3)">
<path fill-rule="evenodd" clip-rule="evenodd" d="M202.26 104.127C203.846 104.603 203.687 107.937 204.956 107.778C205.749 99.6825 198.93 94.7619 194.806 89.8413C190.683 87.4603 186.877 84.7619 181.009 84.127C181.167 84.7619 180.533 84.7619 180.692 85.5556C188.938 88.5714 193.855 94.7619 199.723 100.159C200.515 101.27 201.626 102.54 202.26 104.127Z" fill="black"/>
<path fill-rule="evenodd" clip-rule="evenodd" d="M194.172 110.635C195.599 107.143 192.427 103.81 190.524 101.746C188.938 98.8889 185.925 97.3016 182.753 95.873C181.009 95.7143 178.947 95.5556 177.203 95.3968C176.886 95.3968 176.886 95.5556 176.727 95.7143C176.727 96.0317 176.727 96.1905 176.727 96.5079C180.692 97.4603 183.071 99.8413 186.084 101.746C189.097 104.603 190.683 108.571 194.172 110.635Z" fill="black"/>
<path fill-rule="evenodd" clip-rule="evenodd" d="M174.348 105.238C181.009 105.873 183.229 110.952 186.718 114.921C186.718 113.016 185.608 112.063 185.925 110C184.181 106.984 177.678 100.476 174.348 105.238Z" fill="black"/>
<path fill-rule="evenodd" clip-rule="evenodd" d="M159.441 252.381C163.881 246.349 169.907 242.063 173.714 235.556C170.225 232.222 161.185 234.603 155.476 234.127C155.317 228.73 152.938 223.175 151.67 218.095C142.471 219.048 132.163 217.302 122.965 218.413C120.744 223.175 119.317 230.635 116.938 236.032C111.07 236.667 102.665 234.603 99.0176 237.46C99.0176 237.619 99.0176 237.936 98.7004 237.936C99.1762 242.063 102.982 243.968 105.52 246.19C108.216 248.571 111.229 250.952 114.084 253.016C120.269 257.143 125.344 262.381 132.322 265.714C132.797 266.667 133.59 267.302 134.225 267.937C136.286 268.254 136.921 270 139.458 269.841C145.96 263.81 153.414 258.889 159.441 252.381Z" fill="black"/>
<path fill-rule="evenodd" clip-rule="evenodd" d="M145.643 223.016C146.595 228.254 147.705 233.333 149.449 237.619C150.401 232.222 147.546 227.143 147.546 222.698C151.352 222.222 149.766 227.302 150.877 229.524C151.828 231.905 151.987 235.238 153.097 237.46C157.855 236.984 163.564 237.46 168.322 236.984C169.432 237.302 167.211 238.73 166.736 239.206C166.26 240.159 164.833 240.476 164.198 241.429C162.295 242.698 160.868 244.286 158.965 245.556C155.793 248.73 152.304 251.587 150.084 255.714C147.388 258.095 145.009 260.794 141.837 263.651C141.361 264.127 139.458 266.032 139.141 266.19C138.982 266.19 135.176 263.968 134.225 263.492C123.916 257.302 112.974 246.825 105.52 240C109.643 238.095 116.304 240.794 119.793 238.413C122.648 234.127 123.44 227.46 125.344 222.063C132.322 222.063 139.775 221.429 145.643 223.016ZM132.48 258.889C126.295 255.556 121.22 251.111 116.145 246.667C119.634 252.698 125.819 257.143 132.48 258.889Z" fill="#FFC229"/>
<path fill-rule="evenodd" clip-rule="evenodd" d="M212.41 225.556C216.216 225.397 220.022 225.873 222.877 224.127C223.987 220.159 223.987 215.238 224.304 210.317C225.731 207.778 226.366 204.286 226.524 200.317C226.524 198.571 226.048 197.302 225.731 195.873C226.841 190 227.159 182.857 226.207 177.143C223.67 172.857 220.974 168.571 217.167 165.556C215.74 163.492 214.154 161.587 212.41 159.683C211.3 157.619 208.286 156.032 208.286 153.81C208.762 153.016 208.921 151.905 209.396 151.111C214.789 152.063 222.877 154.444 226.524 150.317C230.33 138.413 214.789 137.46 204.48 137.937C201.784 140.476 203.846 144.603 203.37 148.095C200.515 143.175 197.185 137.937 193.22 133.175C189.573 129.048 185.291 122.857 180.533 120.476C178.154 119.206 173.555 118.889 169.749 118.571C146.436 116.19 118.524 117.619 96.163 118.889C93.467 120.159 90.7709 121.587 88.3921 123.333C85.3789 127.46 81.5727 130.952 79.3524 135.714C76.022 139.524 74.7533 145.397 71.4229 149.206C68.4097 148.095 70.3128 145.556 71.1057 143.333C71.1057 141.111 71.1057 138.889 70.3128 137.46C59.5286 136.825 45.0969 138.095 47.1586 150.794C51.4405 154.603 59.8458 151.587 65.0793 151.587C67.141 154.762 63.3348 156.349 61.7489 158.254C60.163 160.476 57.9427 162.222 56.1982 164.286C52.7092 168.571 49.3789 173.016 47.3172 178.571C47.7929 184.603 47.9515 190.794 48.9031 196.19C46.207 201.429 48.7445 206.984 49.3789 212.54C49.8546 216.825 49.2203 221.111 50.8062 224.921C59.6872 226.825 75.3877 227.619 85.0617 225.714C87.5991 223.651 86.489 217.936 87.2819 214.127C120.11 214.127 153.414 215.397 186.242 214.444C186.559 218.73 186.401 223.333 188.463 225.714C195.441 226.825 204.797 226.032 212.41 225.556Z" fill="black"/>
<path fill-rule="evenodd" clip-rule="evenodd" d="M171.018 121.429C147.705 120.317 121.379 120.794 97.7489 122.222C100.128 120.317 105.203 120.952 108.533 120C129.15 120 152.145 118.889 171.018 121.429Z" fill="#FF4A2C"/>
<path fill-rule="evenodd" clip-rule="evenodd" d="M103.141 123.968C102.031 124.603 99.3347 125.238 98.2246 125.079C98.859 123.651 101.555 124.286 103.141 123.968Z" fill="#FF4A2C"/>
<path fill-rule="evenodd" clip-rule="evenodd" d="M173.555 124.444C174.189 123.968 176.251 124.127 176.251 124.921C175.141 125.079 174.665 124.444 173.555 124.444Z" fill="white"/>
<path fill-rule="evenodd" clip-rule="evenodd" d="M178.789 124.444C179.264 124.444 179.264 124.762 179.582 124.762C184.339 132.698 189.414 140.159 192.745 149.365C189.097 149.841 189.89 145.873 188.621 143.81C187.352 142.063 186.401 139.841 185.608 137.46C183.388 133.333 181.167 129.365 178.947 125.238C178.947 125.079 178.789 124.921 178.789 124.444Z" fill="#FF4A2C"/>
<path fill-rule="evenodd" clip-rule="evenodd" d="M95.2114 124.762C96.0044 125.873 93.6255 128.413 92.9912 130C92.5154 132.381 91.0881 133.81 90.4537 136.032C88.5506 139.841 86.3304 143.333 84.903 147.619C84.1101 147.619 83.3171 147.619 82.3656 147.619C86.0132 139.365 89.6608 131.111 95.2114 124.762Z" fill="#FF4A2C"/>
<path fill-rule="evenodd" clip-rule="evenodd" d="M177.361 126.667C179.74 131.587 182.436 136.349 184.815 141.27C183.07 140.794 180.85 140.794 178.947 140.476C179.582 138.571 178.789 136.667 178.947 134.444C173.714 130.952 162.93 131.905 155.159 131.746C153.414 133.016 152.78 136.349 153.573 139.206C144.216 138.095 133.273 137.936 123.282 138.413C122.806 136.19 122.806 133.81 121.855 132.063C114.718 129.524 105.044 131.746 98.3833 133.175C97.7489 135.079 98.2247 137.778 98.0661 140C95.3701 140 92.674 140 90.2952 140.317C92.3568 136.349 94.2599 131.905 96.3216 127.936C102.665 126.984 109.96 126.984 116.145 126.032C120.586 126.349 126.295 125.238 128.833 127.46C127.247 128.095 125.185 128.254 124.392 129.683C123.758 130.635 125.026 131.746 124.709 133.492C128.04 135.397 134.225 134.921 139.3 135.079C144.057 135.238 148.974 136.032 151.194 132.857C151.352 129.683 150.242 127.778 147.546 127.302C155.793 124.286 168.639 125.238 177.361 126.667Z" fill="white"/>
<path fill-rule="evenodd" clip-rule="evenodd" d="M132.163 125.873C135.335 125.079 138.507 126.667 142.313 126.19C139.775 127.778 134.225 128.254 132.163 125.873Z" fill="white"/>
<path fill-rule="evenodd" clip-rule="evenodd" d="M149.291 128.889C149.925 130.476 149.132 131.746 148.498 132.698C146.119 132.857 143.423 132.54 140.568 132.698C135.652 132.857 128.991 134.603 127.564 130.476C127.881 130.317 127.722 129.841 127.881 129.365C132.322 127.778 139.458 131.905 144.216 128.571C146.119 128.413 147.388 128.889 149.291 128.889Z" fill="white"/>
<path fill-rule="evenodd" clip-rule="evenodd" d="M120.903 132.857C121.537 138.413 120.586 142.381 122.489 146.984C114.718 147.619 105.837 147.143 97.7489 147.302C97.9075 145.238 99.0176 144.444 99.3348 142.54C104.885 143.492 111.07 142.54 115.67 140.952C111.546 139.524 106.789 142.54 101.872 141.429C100.604 139.683 100.128 137.302 100.286 134.286C106.154 132.857 114.084 131.587 120.903 132.857Z" fill="white"/>
<path fill-rule="evenodd" clip-rule="evenodd" d="M156.903 132.857C163.722 133.968 170.7 133.175 177.044 134.762C177.837 138.095 176.251 142.222 178.471 144.127C177.52 144.603 174.507 142.698 173.238 141.587C167.529 141.111 160.868 141.746 156.11 140.159C156.269 137.619 156.586 135.238 156.903 132.857Z" fill="white"/>
<path fill-rule="evenodd" clip-rule="evenodd" d="M153.097 140.476C152.304 142.698 151.828 145.556 150.877 147.619C143.423 147.937 134.859 146.825 126.612 147.143C125.502 144.444 123.599 142.54 122.806 139.683C132.956 138.73 143.106 140.317 153.097 140.476Z" fill="#B6CBCE"/>
<path fill-rule="evenodd" clip-rule="evenodd" d="M67.2996 142.381C66.1894 146.19 54.1366 153.333 49.696 148.73C50.0132 145.714 51.5991 144.127 53.3436 142.698C58.7357 142.857 63.9692 138.095 67.2996 142.381Z" fill="#FF4A2C"/>
<path fill-rule="evenodd" clip-rule="evenodd" d="M207.652 140.476C205.432 145.714 211.617 148.413 216.216 147.619C214.154 145.714 209.714 146.19 208.445 143.492C208.286 142.063 208.604 141.111 209.238 140.476C214.313 142.381 222.718 140.952 224.621 146.032C221.449 153.016 208.128 149.206 205.907 143.81C206.066 142.222 206.066 140.635 207.652 140.476ZM219.07 148.254C221.132 149.524 224.304 146.825 222.877 145.556C221.767 146.508 220.022 147.143 219.07 148.254Z" fill="#FF4A2C"/>
<path fill-rule="evenodd" clip-rule="evenodd" d="M97.7489 141.111C97.4317 143.492 96.0044 144.921 95.5286 147.143C92.8326 147.143 90.4537 147.619 87.7577 147.619C88.0749 145.238 88.8678 143.492 89.6608 141.587C92.5154 141.587 94.8943 141.111 97.7489 141.111Z" fill="#B6CBCE"/>
<path fill-rule="evenodd" clip-rule="evenodd" d="M154.524 142.222C155.634 142.54 157.22 142.54 158.648 142.54C157.22 143.81 155.317 144.603 153.89 145.873C153.097 144.762 154.683 143.651 154.524 142.222Z" fill="white"/>
<path fill-rule="evenodd" clip-rule="evenodd" d="M179.899 142.381C182.119 142.381 184.022 142.857 185.925 143.175C186.401 145.238 187.511 146.984 187.828 149.206C185.925 149.365 184.815 148.73 182.912 148.889C181.643 147.143 180.85 144.762 179.899 142.381Z" fill="#B6CBCE"/>
<path fill-rule="evenodd" clip-rule="evenodd" d="M67.2996 143.492C67.7754 145.397 66.3481 147.619 64.2864 147.937C65.3965 146.667 66.8238 145.556 67.2996 143.492Z" fill="#FF4A2C"/>
<path fill-rule="evenodd" clip-rule="evenodd" d="M178.789 148.73C171.493 147.936 163.088 148.254 155 148.254C159.916 144.603 174.824 143.333 178.789 148.73Z" fill="white"/>
<path fill-rule="evenodd" clip-rule="evenodd" d="M207.493 148.73C207.018 149.841 206.225 150.635 206.066 152.063C205.115 151.905 204.797 151.111 204.639 150.159C205.908 150.159 206.225 147.936 207.493 148.73Z" fill="#FF4A2C"/>
<path fill-rule="evenodd" clip-rule="evenodd" d="M67.6167 149.365C68.7268 149.524 68.5682 150.952 69.837 150.952C69.9956 151.746 69.044 151.746 69.044 152.381C68.0925 151.746 68.0925 150.317 67.6167 149.365Z" fill="#FF4A2C"/>
<path fill-rule="evenodd" clip-rule="evenodd" d="M192.745 151.587C188.463 155.873 183.229 159.206 181.96 166.508C187.035 161.429 190.366 151.111 201.308 151.905C206.225 156.508 210.031 162.222 211.775 169.841C204.797 171.27 199.088 174.286 193.538 177.302C189.731 175.397 184.974 174.444 179.74 173.968C179.899 172.857 181.167 171.587 180.216 170.317C178.471 170.476 178.947 172.857 177.996 173.968C151.828 173.016 122.648 172.381 96.3216 173.651C94.7357 173.492 95.3701 171.111 94.1014 170.635C93.1498 171.746 95.2115 173.016 94.4186 173.968C88.7093 173.968 85.0617 176.032 80.6212 177.302C74.7534 174.603 69.6785 171.111 63.1763 169.048C64.7622 161.429 69.6785 157.143 73.6432 151.905C75.2291 151.905 76.9736 151.905 78.5595 151.905C84.586 155.238 87.5992 161.587 92.3569 166.19C90.2952 160 85.2203 155.556 81.8899 151.587C83.1586 151.746 83.9516 150.952 84.586 151.905C119.952 148.889 156.745 152.222 192.745 151.587ZM111.388 151.27C104.41 151.429 98.0661 152.381 90.9296 152.381C89.6609 153.333 87.7578 151.905 87.282 153.492C87.4406 154.762 89.3437 154.444 89.978 155.079C99.0177 154.921 108.692 154.127 117.573 153.651C120.427 153.492 124.868 154.444 126.612 152.222C123.282 150.635 116.304 150.952 111.388 151.27ZM151.194 152.698C151.194 153.016 150.877 153.016 150.877 153.492C158.965 154.444 167.687 155.079 176.251 155.397C180.533 155.556 184.974 155.714 188.304 153.968C177.678 152.063 163.247 152.381 151.194 152.698Z" fill="#FF4A2C"/>
<path fill-rule="evenodd" clip-rule="evenodd" d="M87.7577 187.778C85.2203 188.413 81.4141 187.937 78.4009 188.095C79.0353 186.984 80.1454 186.349 79.9868 184.444C79.9868 180.794 72.6917 181.27 72.8503 184.762C72.8503 186.19 73.8018 186.984 74.7533 187.46C68.2511 187.302 59.6873 187.143 54.6124 184.762C54.4538 179.365 56.5155 176.032 58.4185 172.54C60.0044 172.698 60.3216 171.429 61.7489 171.429C68.7269 173.333 73.6432 177.302 80.1454 179.683C82.6829 182.381 84.5859 185.714 87.7577 187.778ZM61.5903 174.762C59.0529 176.19 57.3084 181.111 59.6873 184.127C64.7621 188.73 75.5463 185.556 71.8987 176.667C69.5199 174.762 65.5551 173.968 61.5903 174.762Z" fill="#FFC229"/>
<path fill-rule="evenodd" clip-rule="evenodd" d="M219.229 185.556C213.52 187.937 204.797 187.302 197.661 188.254C199.088 187.46 200.674 186.984 200.991 185.238C201.626 181.111 195.282 181.111 194.172 183.651C194.013 186.349 194.806 187.937 197.185 188.095C194.172 188.889 190.207 188.095 187.828 187.302C192.903 179.683 201.626 175.714 210.507 171.905C211.458 171.905 212.41 171.905 213.203 171.905C213.361 172.222 213.837 172.381 214.313 172.381C216.533 176.032 219.229 179.524 219.229 185.556ZM202.26 176.984C202.101 178.889 201.784 180.476 201.943 182.54C203.37 186.984 211.775 186.825 214.947 183.968C218.912 174.762 206.542 171.429 202.26 176.984Z" fill="#FFC229"/>
<path fill-rule="evenodd" clip-rule="evenodd" d="M189.731 180.794C188.621 181.27 188.304 179.206 187.035 179.206C179.264 176.667 170.383 176.984 160.234 176.19C157.538 176.032 151.352 177.143 148.974 176.19C149.449 176.349 151.035 175.714 151.987 175.714C162.771 175.079 179.74 175.397 187.352 178.73C188.145 179.048 190.207 179.206 189.731 180.794Z" fill="#FF4A2C"/>
<path fill-rule="evenodd" clip-rule="evenodd" d="M145.643 175.873C130.419 177.46 111.705 178.413 96.0044 178.413C92.8326 178.413 89.5022 179.048 86.9648 180.317C91.8811 185.714 96.956 192.381 99.9692 198.889C98.3833 198.095 97.9075 195.873 96.956 194.444C96.0044 193.175 93.9427 192.063 94.4185 190.317C90.4538 187.619 86.9648 182.857 84.7445 179.206C100.762 173.81 124.868 176.508 145.643 175.873Z" fill="#FF4A2C"/>
<path fill-rule="evenodd" clip-rule="evenodd" d="M213.203 181.587C213.361 177.937 206.066 175.556 206.542 181.27C206.859 182.381 208.445 182.54 209.555 182.857C207.018 184.603 204.956 181.429 204.797 179.524C204.956 174.286 215.106 175.873 213.203 181.587Z" fill="white"/>
<path fill-rule="evenodd" clip-rule="evenodd" d="M66.9824 183.651C71.4229 181.27 66.9824 175.079 62.5419 177.619C66.9824 173.492 73.0088 182.222 66.9824 183.651Z" fill="white"/>
<path fill-rule="evenodd" clip-rule="evenodd" d="M187.352 180.476C183.388 186.508 179.264 192.54 175.775 199.048C151.035 200 128.357 198.889 103.3 198.73C99.6519 194.603 96.6387 190 93.3083 185.556C91.881 183.651 90.1365 182.381 88.8678 180.317C119.317 178.889 158.172 173.175 187.352 180.476ZM116.78 181.587C110.912 182.857 105.044 180.952 99.6519 183.016C101.396 189.524 104.885 194.444 109.326 198.254C127.247 198.889 147.229 198.73 164.991 198.73C169.114 194.603 173.079 188.889 174.665 183.333C157.379 180 135.969 182.54 116.78 181.587Z" fill="#B6CBCE"/>
<path fill-rule="evenodd" clip-rule="evenodd" d="M64.9207 179.206C66.1895 179.206 66.9824 179.683 66.8238 181.111C66.5066 181.429 65.8723 181.429 65.2379 181.429C64.7621 180.794 64.2864 179.841 64.9207 179.206Z" fill="white"/>
<path fill-rule="evenodd" clip-rule="evenodd" d="M210.982 180.317C210.507 181.905 209.238 180.476 208.445 180C208.921 178.73 210.665 179.683 210.982 180.317Z" fill="white"/>
<path fill-rule="evenodd" clip-rule="evenodd" d="M171.335 184.921C150.084 185.397 128.198 184.921 106.471 184.921C119.634 182.381 136.762 184.762 150.559 183.333C156.903 183.492 165.943 183.016 171.335 184.921Z" fill="#B6CBCE"/>
<path fill-rule="evenodd" clip-rule="evenodd" d="M78.0838 183.81C78.0838 184.444 78.0838 185.079 78.0838 185.714C76.9736 186.984 74.7534 186.349 74.2776 184.921C74.7534 183.968 76.815 183.175 78.0838 183.81Z" fill="white"/>
<path fill-rule="evenodd" clip-rule="evenodd" d="M199.722 184.603C199.881 186.032 198.612 186.19 197.819 186.508C196.868 186.349 196.233 185.873 195.916 185.079C195.599 182.54 198.929 183.651 199.722 184.603Z" fill="white"/>
<path fill-rule="evenodd" clip-rule="evenodd" d="M170.542 186.667C170.859 188.571 168.956 187.937 167.529 188.095C148.656 188.095 131.053 187.937 112.974 187.619C110.595 187.619 107.74 188.413 105.837 186.825C126.454 186.667 148.339 187.937 168.48 186.508C168.797 186.349 171.176 186.19 170.542 186.667Z" fill="#B6CBCE"/>
<path fill-rule="evenodd" clip-rule="evenodd" d="M53.0265 187.937C53.3437 187.937 53.5023 187.937 53.8194 187.937C54.2952 188.095 54.2952 187.619 54.6124 187.619C61.9075 190.476 72.8503 190.476 81.8899 190.159C82.3657 190.159 83.0001 190.159 83.4758 190.159C83.9516 190.159 84.586 190.159 85.0617 190.159C85.6961 190.635 83.3172 190.317 82.5243 190.476C80.4626 190.952 77.9252 190.794 75.8635 191.27C68.8855 191.27 61.9075 191.429 56.3569 190.159C55.4053 189.524 53.6609 189.206 53.0265 187.937Z" fill="#FF4A2C"/>
<path fill-rule="evenodd" clip-rule="evenodd" d="M107.106 189.048C127.405 189.206 149.132 189.683 169.115 189.365C168.163 191.905 164.674 191.111 162.454 190.952C144.85 190.794 124.075 190.952 107.264 190.159C107.423 189.683 106.947 189.683 107.106 189.048Z" fill="white"/>
<path fill-rule="evenodd" clip-rule="evenodd" d="M221.766 189.048C223.035 190.159 222.084 193.651 221.766 195.079C211.141 199.365 195.441 198.413 181.009 198.889C181.485 196.508 182.119 194.444 183.229 192.857C197.185 194.127 211.141 192.857 221.766 189.048Z" fill="#FF4A2C"/>
<path fill-rule="evenodd" clip-rule="evenodd" d="M89.185 189.683C88.8678 190.476 87.4405 190.159 86.489 190.159C86.0132 189.841 88.392 189.841 89.185 189.683Z" fill="white"/>
<path fill-rule="evenodd" clip-rule="evenodd" d="M185.132 190.476C185.132 190.159 185.132 190 185.449 190C185.608 190 185.767 189.683 185.925 189.683C186.56 190.159 188.304 189.841 188.938 190.159C191 190.159 193.062 190.159 194.965 190.159C195.916 190.159 197.026 190.159 197.978 190.159C199.564 190 198.93 190.635 197.661 190.476C196.392 190.635 195.123 190.952 193.537 190.794C192.745 190.952 192.586 190.476 191.952 190.476C189.731 190.476 187.352 190.476 185.132 190.476Z" fill="white"/>
<path fill-rule="evenodd" clip-rule="evenodd" d="M53.0265 190.476C63.0177 194.286 78.7181 192.381 90.4538 191.587C92.5155 193.492 93.467 196.349 95.2115 198.413C82.0485 199.365 65.3965 200 54.1366 196.825C53.1851 195.238 53.0265 193.016 53.0265 190.476Z" fill="#FF4A2C"/>
<path fill-rule="evenodd" clip-rule="evenodd" d="M166.101 192.063C166.894 192.698 165.308 193.175 165.308 193.968C147.388 193.968 126.454 193.175 109.009 192.54C127.722 192.063 147.07 193.016 166.101 192.063Z" fill="#B6CBCE"/>
<path fill-rule="evenodd" clip-rule="evenodd" d="M110.595 194.921C127.405 195.873 147.229 195.238 163.564 195.714C161.978 197.302 159.441 196.508 157.537 196.508C142.789 197.143 125.502 196.825 110.912 196.032C110.753 195.714 110.595 195.397 110.595 194.921Z" fill="#B6CBCE"/>
<path fill-rule="evenodd" clip-rule="evenodd" d="M222.401 199.365C223.828 205.397 211.617 205.714 205.59 205.714C197.819 205.714 190.049 206.349 183.229 206.032C167.846 205.238 153.731 207.143 138.507 206.508C116.145 205.556 93.1498 206.032 70.63 206.032C63.9692 206.032 53.6608 207.937 53.1851 200.159C53.6608 198.889 55.0881 201.27 56.5155 200.952C57.7842 201.27 59.6873 201.111 60.6388 201.746C98.3833 202.54 137.714 202.54 177.044 202.54C192.745 202.54 209.397 203.175 221.449 199.206C221.925 199.365 222.242 198.889 222.401 199.365Z" fill="#B6CBCE"/>
<path fill-rule="evenodd" clip-rule="evenodd" d="M219.863 212.063C220.181 212.063 220.339 212.063 220.656 212.063C220.656 214.762 221.291 220.317 219.229 222.063C219.388 218.571 219.388 215.079 219.863 212.063Z" fill="#B6CBCE"/>
<path fill-rule="evenodd" clip-rule="evenodd" d="M53.0265 212.222C53.5023 212.222 53.6609 212.54 54.1366 212.54C54.6124 216.032 54.6124 220 55.5639 223.016C52.3921 222.063 54.2952 216.032 53.0265 213.016C53.0265 212.857 53.0265 212.54 53.0265 212.222Z" fill="#B6CBCE"/>
<path fill-rule="evenodd" clip-rule="evenodd" d="M217.009 213.175C217.485 214.921 217.326 220.794 216.533 223.175C214.947 223.333 215.899 220.476 216.057 219.841C216.057 217.778 216.057 215.556 216.057 213.492C216.374 213.333 217.009 213.492 217.009 213.175Z" fill="#B6CBCE"/>
<path fill-rule="evenodd" clip-rule="evenodd" d="M56.0397 213.333C56.3569 213.651 57.3084 213.492 57.6256 213.81C57.6256 217.46 58.2599 220.635 59.0529 223.492C55.7225 222.698 56.8326 217.302 56.0397 214.127C56.0397 213.968 56.0397 213.651 56.0397 213.333Z" fill="#B6CBCE"/>
<path fill-rule="evenodd" clip-rule="evenodd" d="M210.982 213.333C210.982 216.667 210.982 220 210.982 223.333C210.348 223.333 209.714 223.333 209.079 223.333C209.079 219.841 208.921 216.667 208.604 213.651C209.396 213.651 209.872 213.175 210.982 213.333Z" fill="#B6CBCE"/>
<path fill-rule="evenodd" clip-rule="evenodd" d="M212.886 213.333C213.044 213.333 213.203 213.333 213.361 213.333C214.471 215.556 213.837 220.794 213.044 223.016C213.361 219.683 212.727 216.984 212.886 213.333Z" fill="#B6CBCE"/>
<path fill-rule="evenodd" clip-rule="evenodd" d="M60.9559 213.651C61.1145 216.984 62.3832 220.794 62.066 223.651C60.1629 221.429 60.3215 217.143 59.37 213.968C59.6872 213.651 60.3215 213.651 60.9559 213.651Z" fill="#B6CBCE"/>
<path fill-rule="evenodd" clip-rule="evenodd" d="M203.37 223.333C201.626 221.27 202.577 216.667 201.467 214.286C201.943 213.968 202.894 213.651 203.37 213.968C202.894 217.302 203.846 220.794 203.37 223.333Z" fill="white"/>
<path fill-rule="evenodd" clip-rule="evenodd" d="M204.956 213.651C205.59 213.651 206.225 213.651 206.859 213.651C206.7 216.825 207.176 220.635 206.542 223.333C204.163 222.222 205.907 216.984 204.956 214.444C204.956 214.286 204.956 213.968 204.956 213.651Z" fill="white"/>
<path fill-rule="evenodd" clip-rule="evenodd" d="M62.859 213.968C63.3348 213.968 63.8105 213.968 64.2863 213.968C64.7621 216.984 64.6035 220.635 65.0793 223.651C63.3348 221.429 63.4934 217.302 62.859 213.968Z" fill="#B6CBCE"/>
<path fill-rule="evenodd" clip-rule="evenodd" d="M200.198 223.333C197.661 222.063 199.088 216.667 197.661 214.286C201.467 213.333 200.198 220.635 200.198 223.333Z" fill="#B6CBCE"/>
<path fill-rule="evenodd" clip-rule="evenodd" d="M66.1895 214.286C66.6652 214.286 67.141 214.286 67.6168 214.286C67.4582 217.46 68.2511 221.111 67.9339 223.651C66.348 221.429 66.6652 217.46 66.1895 214.286Z" fill="#B6CBCE"/>
<path fill-rule="evenodd" clip-rule="evenodd" d="M69.5198 214.286C69.9955 214.286 70.6299 214.286 71.1057 214.286C70.9471 216.349 71.4229 221.27 71.1057 223.333C68.7268 223.016 70.4713 218.571 69.5198 216.667C69.5198 216.19 69.5198 215.556 69.5198 215.079C69.5198 214.762 69.5198 214.444 69.5198 214.286Z" fill="white"/>
<path fill-rule="evenodd" clip-rule="evenodd" d="M73.1674 214.286C73.3259 214.286 73.4845 214.286 73.6431 214.286C74.9119 216.508 73.4845 221.27 73.9603 223.651C72.8502 221.27 73.3259 217.46 73.1674 214.286Z" fill="#B6CBCE"/>
<path fill-rule="evenodd" clip-rule="evenodd" d="M77.6079 214.286C77.4493 217.302 77.9251 221.111 77.2907 223.651C74.7532 223.81 76.1806 216.032 76.1806 214.286C76.6563 214.286 77.1321 214.286 77.6079 214.286Z" fill="#B6CBCE"/>
<path fill-rule="evenodd" clip-rule="evenodd" d="M79.1938 214.286C79.8282 214.286 80.4626 214.286 81.0969 214.286C80.6212 217.302 80.6212 220.794 79.9868 223.651C79.0353 221.27 79.511 217.302 79.1938 214.286Z" fill="white"/>
<path fill-rule="evenodd" clip-rule="evenodd" d="M82.9999 214.286C83.3171 214.286 83.4757 214.286 83.7929 214.286C83.6343 217.619 84.1101 221.429 82.9999 223.651C81.2554 221.746 82.9999 216.984 82.9999 214.286Z" fill="#B6CBCE"/>
<path fill-rule="evenodd" clip-rule="evenodd" d="M194.965 214.286C195.282 214.286 195.441 214.286 195.758 214.286C196.234 216.825 197.026 220.635 196.551 223.175C194.489 221.905 194.965 216.667 194.965 214.286Z" fill="#B6CBCE"/>
<path fill-rule="evenodd" clip-rule="evenodd" d="M192.744 214.444C193.22 217.302 193.22 220.317 193.855 223.016C192.903 223.016 191.793 223.016 190.841 223.016C191.317 220 189.573 214.762 192.744 214.444Z" fill="#B6CBCE"/>
<path fill-rule="evenodd" clip-rule="evenodd" d="M89.3436 127.619C85.8546 133.492 82.207 141.429 78.8766 148.254C77.9251 148.095 77.2907 148.413 76.6564 148.571C79.8282 140.476 84.7445 134.127 89.3436 127.619Z" fill="#FF4A2C"/>
<path fill-rule="evenodd" clip-rule="evenodd" d="M184.815 128.095C190.048 133.492 195.123 141.27 198.295 149.683C195.44 150.317 194.648 146.984 193.855 145.238C191.159 139.524 188.621 132.857 184.815 128.095Z" fill="#FF4A2C"/>
<path fill-rule="evenodd" clip-rule="evenodd" d="M62.859 161.746C61.5903 170.317 51.4405 173.81 52.8678 185.238C51.4405 184.762 50.9647 183.333 50.1718 182.222C50.8061 172.857 58.577 167.619 62.859 161.746Z" fill="#FF4A2C"/>
<path fill-rule="evenodd" clip-rule="evenodd" d="M212.885 165.873C217.009 170.317 222.877 175.238 223.035 184.286C222.242 184.603 222.242 185.714 220.815 185.397C221.608 175.556 215.74 172.222 212.885 165.873Z" fill="#FF4A2C"/>
<path fill-rule="evenodd" clip-rule="evenodd" d="M221.291 207.619C221.925 209.048 217.326 209.683 215.264 210.159C189.573 209.841 162.771 209.841 136.128 209.841C151.67 212.063 169.749 209.841 186.242 210.952C186.718 210.952 186.877 211.27 186.559 211.27C158.33 211.746 129.626 211.746 100.762 211.587C105.361 210.317 110.753 211.587 115.987 211.111C106.313 210 95.5286 210.317 85.0617 210C74.5947 209.683 63.9692 210.952 55.2467 208.413C109.802 208.889 165.308 209.365 221.291 207.619ZM122.013 210.317C124.392 210.794 127.405 210.635 130.26 210.635C128.991 208.889 123.758 210 122.013 210.317Z" fill="#B6CBCE"/>
<path fill-rule="evenodd" clip-rule="evenodd" d="M158.965 55.873C153.89 64.4445 149.291 73.4921 144.533 82.2222C142.471 86.9841 139.775 90.9524 137.714 95.873C134.542 99.5238 134.225 105.873 128.674 107.143C120.427 93.4921 116.463 75.3968 111.863 58.254C110.436 54.6032 106.789 52.8572 105.044 48.7302C99.652 36.5079 104.41 18.254 109.643 8.8889C114.877 2.69842 123.599 -0.158721 133.59 0.317469C157.062 1.11112 170.066 16.5079 167.053 42.5397C165.308 47.6191 161.819 51.5873 158.965 55.873Z" fill="black"/>
<path fill-rule="evenodd" clip-rule="evenodd" d="M162.137 30.4762C161.502 41.2699 156.903 47.9365 152.145 54.4445C144.692 59.2064 128.198 61.5873 119 56.6667C105.837 50 105.203 21.746 114.877 10.4762C120.11 7.14287 128.991 4.92065 137.079 5.87303C153.573 5.87303 158.965 17.1429 162.137 30.4762ZM136.762 12.2222C119.793 8.73017 113.925 27.6191 118.683 41.746C122.172 46.1905 126.612 49.5238 133.115 50.7937C139.458 50.4762 144.692 48.8889 148.498 45.873C156.745 36.0318 152.621 16.3492 141.678 12.6984C139.775 12.6984 138.824 11.9048 136.762 12.2222Z" fill="#4C8E13"/>
<path fill-rule="evenodd" clip-rule="evenodd" d="M123.599 26.3492C126.295 22.381 129.626 19.2063 137.238 20C141.996 22.2222 145.485 25.5556 145.326 32.6984C145.167 39.6825 139.775 41.746 134.859 43.9683C145.167 44.7619 149.767 36.8254 148.974 29.0476C147.546 15.7143 125.819 10.3175 123.599 26.3492Z" fill="white"/>
<path fill-rule="evenodd" clip-rule="evenodd" d="M128.04 37.1429C132.163 40.6349 140.885 37.9365 141.678 32.5397C139.141 29.2063 136.286 23.0159 130.418 25.7143C128.04 27.9365 126.771 33.0159 128.04 37.1429Z" fill="white"/>
<path fill-rule="evenodd" clip-rule="evenodd" d="M149.449 62.2222C140.886 65.2381 125.978 66.5079 117.731 62.2222C121.062 75.0794 125.661 86.6667 128.198 100.317C136.921 89.2064 142.313 74.9206 149.449 62.2222Z" fill="#4C8E13"/>
</g>
<defs>
<clipPath id="clip0_12_3">
<rect width="180" height="270" fill="white" transform="translate(47)"/>
</clipPath>
</defs>
</svg>
