<svg xmlns="http://www.w3.org/2000/svg" viewBox="0 0 31.13 7.33"><defs><style>.cls-1{fill:#178ca4;}.cls-2{fill:#072a40;}.cls-3{fill:#fff;}</style></defs><title>comute_logo_2</title><g id="Layer_2" data-name="Layer 2"><g id="Layer_1-2" data-name="Layer 1"><path class="cls-1" d="M17.81,7.26v-.2a.58.58,0,0,1-.15.19.44.44,0,0,1-.23.06.48.48,0,0,1-.38-.16.6.6,0,0,1-.14-.43.59.59,0,0,1,.14-.42.45.45,0,0,1,.36-.17.48.48,0,0,1,.24.06.4.4,0,0,1,.16.18v-.2H18V7.26Zm-.74-.53a.49.49,0,0,0,.1.32.32.32,0,0,0,.27.12A.3.3,0,0,0,17.71,7a.49.49,0,0,0,.1-.34.43.43,0,0,0-.1-.31.32.32,0,0,0-.27-.12.34.34,0,0,0-.27.12A.57.57,0,0,0,17.07,6.73Z"/><path class="cls-1" d="M18.52,6.39a.7.7,0,0,1,.16-.2.31.31,0,0,1,.19-.06h.06l.07,0L19,6.3h-.11a.28.28,0,0,0-.23.13.53.53,0,0,0-.09.32v.53h-.16V6.17h.16Z"/><path class="cls-1" d="M19.31,6.39a.7.7,0,0,1,.16-.2.31.31,0,0,1,.19-.06h.06l.07,0-.05.14h-.1a.28.28,0,0,0-.24.13.53.53,0,0,0-.09.32v.53h-.15V6.17h.15Z"/><path class="cls-1" d="M19.92,5.75a.11.11,0,0,1,0-.08.11.11,0,0,1,.09,0,.1.1,0,0,1,.08,0,.11.11,0,0,1-.08.19.14.14,0,0,1-.09,0A.11.11,0,0,1,19.92,5.75Zm0,1.51V6.17h.15V7.26Z"/><path class="cls-1" d="M20.36,6.17h.17l.33.83.33-.83h.17l-.5,1.16Z"/><path class="cls-1" d="M22.53,6.72h-.86a.54.54,0,0,0,.1.33.34.34,0,0,0,.27.12.37.37,0,0,0,.21-.06.53.53,0,0,0,.15-.2l.14.08a.61.61,0,0,1-.2.24.58.58,0,0,1-.3.08.5.5,0,0,1-.39-.16.6.6,0,0,1-.15-.42.61.61,0,0,1,.15-.43.52.52,0,0,1,.75,0,.59.59,0,0,1,.13.41Zm-.18-.13a.29.29,0,0,0-.1-.23A.35.35,0,0,0,22,6.28a.38.38,0,0,0-.23.08.37.37,0,0,0-.1.23Z"/><path class="cls-1" d="M24.06,7.31a.59.59,0,0,1-.22,0,.62.62,0,0,1-.32-.32.54.54,0,0,1,0-.22.55.55,0,0,1,.17-.42.62.62,0,0,1,.19-.12.59.59,0,0,1,.22,0,.59.59,0,0,1,.23,0,.67.67,0,0,1,.2.12.8.8,0,0,1,.13.19.62.62,0,0,1,0,.23.54.54,0,0,1,0,.22.64.64,0,0,1-.13.19.53.53,0,0,1-.2.13A.59.59,0,0,1,24.06,7.31Zm0-.14a.42.42,0,0,0,.3-.13.46.46,0,0,0,0-.64.41.41,0,0,0-.6,0,.46.46,0,0,0,0,.64A.42.42,0,0,0,24.07,7.17Z"/><path class="cls-1" d="M25,7.26V6.17h.15v.17a.41.41,0,0,1,.16-.16.51.51,0,0,1,.22,0,.44.44,0,0,1,.29.1.39.39,0,0,1,.1.29v.74h-.15V6.59a.33.33,0,0,0-.07-.24.25.25,0,0,0-.21-.08.31.31,0,0,0-.26.1.56.56,0,0,0-.08.32v.57Z"/><path class="cls-1" d="M27,6.3h-.2V6.17H27V5.73h.15v.44h.21V6.3h-.21v1H27Z"/><path class="cls-1" d="M27.6,5.75a.11.11,0,0,1,0-.08.12.12,0,0,1,.09,0,.09.09,0,0,1,.08,0,.11.11,0,0,1-.08.19.14.14,0,0,1-.09,0A.11.11,0,0,1,27.6,5.75Zm0,1.51V6.17h.15V7.26Z"/><path class="cls-1" d="M28.36,7.26h-.15V6.17h.15v.17a.29.29,0,0,1,.14-.15.36.36,0,0,1,.2-.06.37.37,0,0,1,.21.06.35.35,0,0,1,.13.16.31.31,0,0,1,.16-.16.37.37,0,0,1,.21-.06.38.38,0,0,1,.28.11.41.41,0,0,1,.1.28v.74h-.15V6.58a.43.43,0,0,0-.07-.24.25.25,0,0,0-.2-.08.26.26,0,0,0-.22.1.57.57,0,0,0-.08.33v.57h-.15V6.58a.38.38,0,0,0-.06-.24.24.24,0,0,0-.19-.08.28.28,0,0,0-.24.11.52.52,0,0,0-.07.32Z"/><path class="cls-1" d="M31.12,6.72h-.86a.54.54,0,0,0,.1.33.34.34,0,0,0,.27.12.37.37,0,0,0,.21-.06.53.53,0,0,0,.15-.2l.14.08a.54.54,0,0,1-.2.24.56.56,0,0,1-.3.08.5.5,0,0,1-.39-.16.59.59,0,0,1-.14-.42.6.6,0,0,1,.14-.43.51.51,0,0,1,.39-.17.46.46,0,0,1,.36.15.59.59,0,0,1,.13.41Zm-.18-.13a.32.32,0,0,0-.09-.23.36.36,0,0,0-.24-.08.32.32,0,0,0-.34.31Z"/><path class="cls-2" d="M10.46,3.61a.87.87,0,0,0,.37-.08,1.49,1.49,0,0,0,.31-.2l.1.14a.51.51,0,0,1,.09.16,1.3,1.3,0,0,1,.08.17.89.89,0,0,1,0,.15.42.42,0,0,1,0,.22.58.58,0,0,1-.21.2,1.3,1.3,0,0,1-.41.15,2.34,2.34,0,0,1-.56.06,2.58,2.58,0,0,1-.6-.07A1.59,1.59,0,0,1,9,4.24a1.57,1.57,0,0,1-.44-.56,2,2,0,0,1-.18-.91,1.8,1.8,0,0,1,.18-.86A1.65,1.65,0,0,1,9,1.36a1.69,1.69,0,0,1,.59-.28A2.14,2.14,0,0,1,10.2,1a2.09,2.09,0,0,1,.49.05,1.3,1.3,0,0,1,.42.15.92.92,0,0,1,.25.21.39.39,0,0,1,.09.26.64.64,0,0,1-.09.3,2.16,2.16,0,0,1-.2.36,1.6,1.6,0,0,0-.36-.24A.8.8,0,0,0,10.41,2,.52.52,0,0,0,10,2.2a.85.85,0,0,0-.16.54,1.87,1.87,0,0,0,0,.34.73.73,0,0,0,.11.27.61.61,0,0,0,.2.19A.59.59,0,0,0,10.46,3.61Z"/><path class="cls-2" d="M15.17,2.75a2.26,2.26,0,0,1-.1.69,1.66,1.66,0,0,1-.31.59,1.54,1.54,0,0,1-.56.4,2,2,0,0,1-.83.15,2,2,0,0,1-.82-.14A1.43,1.43,0,0,1,12,4a1.55,1.55,0,0,1-.31-.58,2.17,2.17,0,0,1-.1-.69,2.26,2.26,0,0,1,.11-.69A1.46,1.46,0,0,1,12,1.52a1.54,1.54,0,0,1,.57-.38A1.89,1.89,0,0,1,13.4,1a2,2,0,0,1,.82.14,1.46,1.46,0,0,1,.55.38,1.41,1.41,0,0,1,.3.55A2.2,2.2,0,0,1,15.17,2.75Zm-1.4,0a1.58,1.58,0,0,0-.08-.52.31.31,0,0,0-.3-.21.32.32,0,0,0-.2.06.43.43,0,0,0-.12.17.84.84,0,0,0-.07.24,2.45,2.45,0,0,0,0,.27c0,.1,0,.2,0,.3a.84.84,0,0,0,.07.24.47.47,0,0,0,.12.18.29.29,0,0,0,.19.06.27.27,0,0,0,.2-.07.34.34,0,0,0,.11-.17,1,1,0,0,0,.06-.25A1.46,1.46,0,0,0,13.77,2.77Z"/><path class="cls-2" d="M19.39,2.41a.78.78,0,0,0,0-.24c0-.06-.09-.09-.19-.09a.25.25,0,0,0-.2.06.27.27,0,0,0,0,.13V4.48H17.51V2.41a.78.78,0,0,0,0-.24.19.19,0,0,0-.19-.09.27.27,0,0,0-.2.06.23.23,0,0,0-.05.15V4.48H15.62V1.12l.15,0,.18,0h.22c.42,0,.68.11.79.35a.88.88,0,0,1,.29-.29,1.11,1.11,0,0,1,.6-.13,1.08,1.08,0,0,1,.56.13.87.87,0,0,1,.35.36.92.92,0,0,1,.34-.34A1.18,1.18,0,0,1,19.73,1a1.05,1.05,0,0,1,.69.21,1,1,0,0,1,.33.55q0,.07,0,.18a1.41,1.41,0,0,1,0,.2,1.48,1.48,0,0,1,0,.21v2.1l-.14,0-.17,0h-.2a1.18,1.18,0,0,1-.51-.08.54.54,0,0,1-.26-.2A.57.57,0,0,1,19.41,4c0-.11,0-.23,0-.35Z"/><path class="cls-2" d="M24.7,4.48h-1a.3.3,0,0,1-.24-.08.46.46,0,0,1-.06-.28.92.92,0,0,1-.32.29,1.18,1.18,0,0,1-.61.13,1.05,1.05,0,0,1-.69-.21,1,1,0,0,1-.33-.55s0-.11,0-.18a1.48,1.48,0,0,1,0-.21,1.27,1.27,0,0,1,0-.2V1.12l.18,0,.17,0h.19a1.66,1.66,0,0,1,.32,0,.86.86,0,0,1,.28.11.52.52,0,0,1,.19.22.77.77,0,0,1,.08.36V3.12a.57.57,0,0,0,0,.25.2.2,0,0,0,.2.09c.11,0,.18,0,.21-.07a.2.2,0,0,0,.06-.14V1.12l.18,0,.17,0h.19a1.84,1.84,0,0,1,.33,0,.81.81,0,0,1,.27.11.57.57,0,0,1,.2.23.74.74,0,0,1,.07.36Z"/><path class="cls-2" d="M25.33,3.88a1.23,1.23,0,0,1-.07-.32c0-.1,0-.2,0-.3V.05l.18,0,.17,0h.18a1.66,1.66,0,0,1,.32,0,.78.78,0,0,1,.28.11.64.64,0,0,1,.2.23.88.88,0,0,1,.07.36v.36h.9v1h-.9v1a.41.41,0,0,0,.08.28.35.35,0,0,0,.23.07.58.58,0,0,0,.26-.06.73.73,0,0,0,.23-.13c.07.13.13.26.18.37a.72.72,0,0,1,.07.3.48.48,0,0,1,0,.18.37.37,0,0,1-.14.14,1.2,1.2,0,0,1-.41.19,2.25,2.25,0,0,1-.6.07,1.38,1.38,0,0,1-.79-.19A1,1,0,0,1,25.33,3.88Z"/><path class="cls-2" d="M30,3.6a1.24,1.24,0,0,0,.47-.08,1.68,1.68,0,0,0,.38-.23,3.27,3.27,0,0,1,.18.33.78.78,0,0,1,.1.32.44.44,0,0,1-.07.22.64.64,0,0,1-.22.21,1.56,1.56,0,0,1-.42.15,3,3,0,0,1-.66.06,2.72,2.72,0,0,1-.61-.07,1.49,1.49,0,0,1-.62-.27A1.65,1.65,0,0,1,28,3.67a2.09,2.09,0,0,1-.19-1A1.78,1.78,0,0,1,28,1.94a1.47,1.47,0,0,1,.4-.54,1.41,1.41,0,0,1,.55-.3,2.16,2.16,0,0,1,1.36,0,1.48,1.48,0,0,1,.49.34,1.37,1.37,0,0,1,.27.49,2.33,2.33,0,0,1,.08.59v.22s0,.08,0,.12,0,.06,0,.08H29.24a.83.83,0,0,0,.19.46A.67.67,0,0,0,30,3.6Zm-.06-1.22a.77.77,0,0,0-.08-.4.32.32,0,0,0-.27-.11q-.33,0-.33.51Z"/><circle class="cls-2" cx="3.63" cy="3.63" r="3.63"/><path class="cls-3" d="M5.8,3.37a.77.77,0,0,0-.18-.52,1.59,1.59,0,0,1-.13-.22c-.13-.23-.25-.46-.38-.68a1,1,0,0,0-.9-.53H3.05A1,1,0,0,0,2.16,2l-.43.77a.44.44,0,0,1-.08.11.89.89,0,0,0-.19.51V4.7A.23.23,0,0,0,1.69,5h.67a.24.24,0,0,0,.25-.23V4.59h2v.1A.25.25,0,0,0,4.88,5h.66a.23.23,0,0,0,.26-.22V3.37ZM2.69,2.07a.49.49,0,0,1,.37-.16H4.23a.47.47,0,0,1,.45.27c0,.09.1.18.15.28H2.44A4.25,4.25,0,0,1,2.69,2.07Zm2.64,2H4.49s-.07,0-.08,0-.13-.17-.18-.25A.3.3,0,0,0,4,3.69H3.33a.25.25,0,0,0-.23.13l-.18.24s0,0,0,0H2V3.36A.44.44,0,0,1,2.36,3H4.83a.51.51,0,0,1,.42.16.33.33,0,0,1,.1.24C5.33,3.59,5.33,3.84,5.33,4.09Z"/><path class="cls-3" d="M2.52,3.29a.25.25,0,1,0,.25.25h0a.25.25,0,0,0-.25-.25Z"/><path class="cls-3" d="M4.74,3.29A.25.25,0,1,0,5,3.54a.26.26,0,0,0-.25-.25Z"/><path class="cls-1" d="M4.41,5.1c.13-.15.08-.29-.13-.29H3c-.2,0-.26.13-.12.29,0,0,.41.5.54.64a.33.33,0,0,0,.46,0h0Z"/></g></g></svg>