<svg width="121" height="132" viewBox="0 0 121 132" fill="none" xmlns="http://www.w3.org/2000/svg">
<g clip-path="url(#clip0_14_2)">
<path d="M50.1311 131.642V130.567C49.9508 130.925 49.5902 131.284 49.4098 131.463C49.0492 131.642 48.6885 131.821 48.1475 131.821C47.2459 131.821 46.7049 131.463 46.1639 130.925C45.623 130.388 45.4426 129.672 45.4426 128.597C45.4426 127.702 45.623 126.985 46.1639 126.269C46.7049 125.731 47.2459 125.373 48.1475 125.373C48.6885 125.373 49.0492 125.552 49.4098 125.731C49.7705 125.91 50.1311 126.269 50.3115 126.627V125.552H51.0328V131.284H50.1311V131.642ZM46.1639 128.776C46.1639 129.493 46.3443 130.03 46.7049 130.567C47.0656 130.925 47.6066 131.104 48.1475 131.104C48.6885 131.104 49.2295 130.925 49.5902 130.388C49.9508 130.03 50.1311 129.313 50.1311 128.597C50.1311 127.881 49.9508 127.343 49.5902 126.985C49.2295 126.627 48.6885 126.448 48.1475 126.448C47.6066 126.448 47.0656 126.627 46.7049 127.164C46.3443 127.343 46.1639 128.06 46.1639 128.776Z" fill="#178CA4"/>
<path d="M53.918 126.985C54.2787 126.448 54.459 126.09 54.8197 125.91C55.1803 125.731 55.3607 125.552 55.9016 125.552C56.082 125.552 56.082 125.552 56.2623 125.552C56.4426 125.552 56.4426 125.552 56.623 125.731L56.4426 126.448C56.4426 126.448 56.2623 126.448 56.082 126.448C55.9016 126.448 55.9016 126.448 55.7213 126.448C55.1803 126.448 54.8197 126.627 54.459 127.164C54.0984 127.701 53.918 128.239 53.918 128.776V131.642H53.1967V125.91H53.918V126.985Z" fill="#178CA4"/>
<path d="M58.0656 126.985C58.4262 126.448 58.6066 126.09 58.9672 125.91C59.3279 125.731 59.5082 125.552 60.0492 125.552C60.2295 125.552 60.2295 125.552 60.4098 125.552C60.5902 125.552 60.5902 125.552 60.7705 125.731L60.5902 126.448C60.5902 126.448 60.4098 126.448 60.2295 126.448C60.0492 126.448 60.0492 126.448 59.8689 126.448C59.3279 126.448 58.9672 126.627 58.6066 127.164C58.2459 127.701 58.0656 128.239 58.0656 128.776V131.642H57.3443V125.91H58.0656V126.985Z" fill="#178CA4"/>
<path d="M61.3115 123.582C61.3115 123.403 61.3115 123.224 61.4918 123.224C61.6721 123.045 61.6721 123.045 61.8525 123.045C62.0328 123.045 62.2131 123.045 62.2131 123.224C62.3934 123.403 62.3934 123.403 62.3934 123.582C62.3934 123.761 62.3934 123.94 62.2131 123.94C62.0328 123.94 62.0328 124.119 61.8525 124.119C61.6721 124.119 61.4918 124.119 61.4918 123.94C61.3115 123.94 61.3115 123.761 61.3115 123.582ZM61.4918 131.642V125.91H62.3934V131.642H61.4918Z" fill="#178CA4"/>
<path d="M63.6557 125.91H64.5574L66.3607 130.209L68.1639 125.91H69.0656L66.3607 132L63.6557 125.91Z" fill="#178CA4"/>
<path d="M75.1967 128.776H70.5082C70.5082 129.493 70.6885 130.03 71.0492 130.567C71.4098 131.104 71.9508 131.284 72.4918 131.284C72.8525 131.284 73.2131 131.104 73.5738 130.925C73.9344 130.746 74.1148 130.388 74.2951 129.851L75.0164 130.209C74.6557 130.746 74.2951 131.284 73.9344 131.463C73.5738 131.821 73.0328 131.821 72.3115 131.821C71.4098 131.821 70.6885 131.463 70.3279 130.925C69.7869 130.388 69.6066 129.672 69.6066 128.776C69.6066 127.881 69.7869 126.985 70.3279 126.448C70.8688 125.91 71.5902 125.552 72.3115 125.552C73.0328 125.552 73.7541 125.91 74.2951 126.269C75.0164 126.985 75.1967 127.702 75.1967 128.776ZM74.2951 128.06C74.2951 127.522 74.1148 127.164 73.7541 126.806C73.3934 126.448 73.0328 126.448 72.4918 126.448C71.9508 126.448 71.5902 126.627 71.2295 126.985C70.8688 127.343 70.6885 127.701 70.6885 128.239H74.2951V128.06Z" fill="#178CA4"/>
<path d="M83.3115 131.821C82.9508 131.821 82.5902 131.821 82.0492 131.642C81.5082 131.463 81.3279 131.284 80.9672 130.925C80.6066 130.567 80.4262 130.388 80.2459 129.851C80.0656 129.493 80.0656 129.134 80.0656 128.597C80.0656 128.239 80.0656 127.701 80.2459 127.343C80.4262 126.985 80.6066 126.627 80.9672 126.269C81.3279 125.91 81.6885 125.731 82.0492 125.552C82.4098 125.373 82.7705 125.373 83.3115 125.373C83.6721 125.373 84.2131 125.373 84.5738 125.552C84.9344 125.731 85.2951 125.91 85.6557 126.269C86.0164 126.627 86.1967 126.985 86.3771 127.343C86.5574 127.701 86.5574 128.06 86.5574 128.597C86.5574 128.955 86.5574 129.493 86.3771 129.851C86.1967 130.209 86.0164 130.567 85.6557 130.925C85.2951 131.284 84.9344 131.463 84.5738 131.642C84.2131 131.821 83.8525 131.821 83.3115 131.821ZM83.4918 131.104C84.2131 131.104 84.7541 130.925 85.1148 130.388C85.4754 129.851 85.8361 129.313 85.8361 128.776C85.8361 128.06 85.6557 127.522 85.1148 127.164C84.7541 126.627 84.2131 126.448 83.4918 126.448C82.7705 126.448 82.2295 126.627 81.8689 127.164C81.5082 127.702 81.1475 128.239 81.1475 128.776C81.1475 129.493 81.3279 130.03 81.8689 130.388C82.2295 130.925 82.7705 131.104 83.4918 131.104Z" fill="#178CA4"/>
<path d="M88.1803 131.642V125.91H88.9016V126.806C89.082 126.448 89.4426 126.09 89.8033 125.91C90.1639 125.731 90.5246 125.552 91.0656 125.552C91.7869 125.552 92.1475 125.731 92.6885 126.09C93.0492 126.448 93.2295 126.985 93.2295 127.522V131.463H92.3279V127.881C92.3279 127.343 92.1475 126.806 91.9672 126.627C91.7869 126.269 91.4262 126.269 90.8852 126.269C90.3443 126.269 89.8033 126.448 89.4426 126.806C89.082 127.164 89.082 127.702 89.082 128.597V131.642H88.1803Z" fill="#178CA4"/>
<path d="M99.1803 126.448H98.0984V125.731H99.1803V123.403H99.9016V125.731H100.984V126.448H99.9016V131.463H99.1803V126.448Z" fill="#178CA4"/>
<path d="M102.246 123.582C102.246 123.403 102.246 123.224 102.426 123.224C102.607 123.045 102.607 123.045 102.787 123.045C102.967 123.045 103.148 123.045 103.148 123.224C103.328 123.403 103.328 123.403 103.328 123.582C103.328 123.761 103.328 123.94 103.148 123.94C102.967 124.119 102.967 124.119 102.787 124.119C102.607 124.119 102.426 124.119 102.426 123.94C102.246 123.94 102.246 123.761 102.246 123.582ZM102.426 131.642V125.91H103.328V131.642H102.426Z" fill="#178CA4"/>
<path d="M106.213 131.642H105.492V125.91H106.213V126.806C106.393 126.448 106.574 126.09 106.934 125.91C107.295 125.731 107.656 125.552 108.016 125.552C108.377 125.552 108.738 125.731 109.098 125.91C109.459 126.09 109.639 126.448 109.82 126.806C110 126.448 110.361 126.09 110.721 125.91C111.082 125.731 111.443 125.552 111.803 125.552C112.344 125.552 112.885 125.731 113.246 126.09C113.607 126.448 113.787 126.985 113.787 127.522V131.463H113.066V127.881C113.066 127.343 112.885 126.806 112.705 126.627C112.525 126.269 112.164 126.269 111.623 126.269C111.082 126.269 110.721 126.448 110.361 126.806C110.18 127.164 110 127.702 110 128.597V131.642H109.279V128.06C109.279 127.522 109.098 126.985 108.918 126.806C108.738 126.448 108.377 126.448 107.836 126.448C107.295 126.448 106.934 126.627 106.574 126.985C106.393 127.343 106.213 127.881 106.213 128.597V131.642Z" fill="#178CA4"/>
<path d="M121 128.776H116.311C116.311 129.493 116.492 130.03 116.852 130.567C117.213 130.925 117.754 131.284 118.295 131.284C118.656 131.284 119.016 131.104 119.377 130.925C119.738 130.746 119.918 130.388 120.098 129.851L120.82 130.209C120.459 130.746 120.098 131.284 119.738 131.463C119.377 131.821 118.836 131.821 118.115 131.821C117.213 131.821 116.492 131.463 116.131 130.925C115.59 130.388 115.41 129.672 115.41 128.776C115.41 127.881 115.59 126.985 116.131 126.448C116.672 125.91 117.393 125.552 118.115 125.552C118.836 125.552 119.557 125.91 120.098 126.269C120.82 126.985 121 127.702 121 128.776ZM120.098 128.06C120.098 127.522 119.918 127.164 119.557 126.806C119.197 126.448 118.836 126.448 118.295 126.448C117.754 126.448 117.393 126.627 117.033 126.985C116.672 127.343 116.492 127.701 116.492 128.239H120.098V128.06Z" fill="#178CA4"/>
<path d="M11 112.299C11.7213 112.299 12.2623 112.119 12.9836 111.94C13.5246 111.582 14.0656 111.224 14.6066 110.866C14.7869 111.045 14.9672 111.403 15.1475 111.582C15.3279 111.94 15.5082 112.119 15.6885 112.478C15.8689 112.836 16.0492 113.015 16.0492 113.373C16.0492 113.552 16.2295 113.91 16.2295 114.09C16.2295 114.448 16.0492 114.985 15.8689 115.164C15.6885 115.522 15.3279 115.881 14.7869 116.239C14.2459 116.597 13.5246 116.776 12.6229 117.134C11.7213 117.313 10.8197 117.493 9.7377 117.493C8.65574 117.493 7.57377 117.313 6.4918 117.134C5.40984 116.955 4.32787 116.418 3.42623 115.701C2.52459 114.985 1.62295 114.09 1.08197 112.836C0.360656 111.403 0 109.791 0 107.821C0 106.03 0.360656 104.418 0.901639 103.164C1.62295 101.91 2.34426 101.015 3.2459 100.299C4.14754 99.5821 5.22951 99.0448 6.31147 98.8657C7.57377 98.6866 8.65574 98.5075 9.55738 98.5075C10.459 98.5075 11.3607 98.5075 12.082 98.6866C12.9836 98.8657 13.7049 99.0448 14.4262 99.5821C14.9672 99.9403 15.5082 100.299 15.6885 100.657C16.0492 101.015 16.2295 101.552 16.2295 102.09C16.2295 102.448 16.0492 102.985 15.8689 103.702C15.5082 104.239 15.1475 104.955 14.7869 105.672C14.0656 105.134 13.5246 104.597 12.8033 104.418C12.2623 103.881 11.541 103.881 10.6393 103.881C9.55738 103.881 8.83607 104.239 8.29508 104.955C7.7541 105.672 7.39344 106.567 7.39344 107.821C7.39344 108.358 7.39344 109.075 7.57377 109.612C7.7541 110.149 7.93443 110.687 8.11475 111.045C8.47541 111.403 8.65574 111.761 9.19672 111.94C9.7377 112.119 10.2787 112.299 11 112.299Z" fill="white"/>
<path d="M36.0656 107.821C36.0656 109.075 35.8852 110.328 35.5246 111.403C35.1639 112.657 34.6229 113.552 33.9016 114.448C33.1803 115.343 32.0984 116.06 31.0164 116.597C29.7541 117.134 28.3115 117.313 26.5082 117.313C24.7049 117.313 23.2623 117.134 22.1803 116.597C20.918 116.06 20.0164 115.343 19.2951 114.448C18.5738 113.552 18.0328 112.478 17.6721 111.403C17.3115 110.328 17.1311 109.075 17.1311 107.821C17.1311 106.567 17.3115 105.313 17.6721 104.239C18.0328 103.164 18.7541 102.09 19.4754 101.194C20.1967 100.299 21.2787 99.7612 22.541 99.2239C23.8033 98.6866 25.0656 98.5075 26.6885 98.5075C28.4918 98.5075 29.9344 98.6866 31.0164 99.2239C32.0984 99.7612 33.1803 100.299 33.9016 101.194C34.6229 102.09 35.1639 102.985 35.5246 104.06C35.8852 105.313 36.0656 106.567 36.0656 107.821ZM28.6721 107.821C28.6721 106.746 28.4918 105.851 28.3115 105.134C27.9508 104.418 27.4098 104.06 26.6885 104.06C26.3279 104.06 25.9672 104.239 25.6066 104.418C25.2459 104.597 25.0656 104.955 24.8852 105.313C24.7049 105.672 24.5246 106.03 24.5246 106.567C24.5246 107.104 24.3443 107.463 24.3443 108C24.3443 108.537 24.3443 109.075 24.5246 109.612C24.5246 110.149 24.7049 110.507 24.8852 110.866C25.0656 111.224 25.2459 111.582 25.6066 111.761C25.7869 111.94 26.1475 112.119 26.6885 112.119C27.0492 112.119 27.4098 111.94 27.7705 111.761C28.1311 111.582 28.3115 111.224 28.3115 110.866C28.4918 110.507 28.4918 109.97 28.6721 109.612C28.6721 108.896 28.6721 108.358 28.6721 107.821Z" fill="white"/>
<path d="M58.6066 106.03C58.6066 105.493 58.6066 105.134 58.4262 104.776C58.2459 104.418 57.8852 104.239 57.3443 104.239C56.8033 104.239 56.4426 104.418 56.2623 104.597C56.082 104.776 56.082 105.134 56.082 105.313V116.955H48.5082V106.03C48.5082 105.493 48.5082 105.134 48.3279 104.776C48.1475 104.418 47.7869 104.239 47.2459 104.239C46.7049 104.239 46.3443 104.418 46.1639 104.597C45.9836 104.776 45.8033 105.134 45.8033 105.313V116.955H38.2295V99.2239C38.4098 99.2239 38.7705 99.0448 38.9508 99.0448C39.3115 99.0448 39.4918 99.0448 39.8525 98.8657C40.2131 98.8657 40.5738 98.8657 41.1148 98.8657C43.2787 98.8657 44.7213 99.403 45.2623 100.657C45.623 100.119 46.1639 99.5821 46.8852 99.2239C47.6066 98.6866 48.6885 98.5075 50.1311 98.5075C51.3934 98.5075 52.2951 98.6866 53.1967 99.2239C54.0984 99.7612 54.6393 100.299 55 101.194C55.3607 100.478 55.9016 99.9403 56.8033 99.403C57.7049 98.8657 58.7869 98.5075 60.2295 98.5075C61.8525 98.5075 62.9344 98.8657 63.8361 99.5821C64.7377 100.299 65.2787 101.373 65.6394 102.448C65.6394 102.806 65.8197 102.985 65.8197 103.343C65.8197 103.702 65.8197 104.06 65.8197 104.418C65.8197 104.776 65.8197 105.134 65.8197 105.493C65.8197 105.851 65.8197 106.209 65.8197 106.388V116.597C65.6393 116.776 65.2787 116.776 65.0984 116.776C64.918 116.776 64.5574 116.955 64.1967 116.955C63.8361 116.955 63.4754 116.955 63.1148 116.955C62.0328 116.955 61.1312 116.776 60.4098 116.597C59.6885 116.239 59.3279 115.881 58.9672 115.522C58.6066 115.164 58.4262 114.627 58.4262 113.91C58.4262 113.373 58.2459 112.657 58.2459 112.119V106.03H58.6066Z" fill="white"/>
<path d="M86.7377 116.955H81.3279C80.6066 116.955 80.2459 116.776 80.0656 116.597C79.8853 116.239 79.7049 115.881 79.7049 115.164C79.3443 115.702 78.8033 116.239 78.082 116.597C77.1803 117.134 76.0984 117.313 74.8361 117.313C73.2131 117.313 72.1312 116.955 71.2295 116.239C70.3279 115.522 69.7869 114.448 69.4262 113.373C69.4262 113.015 69.2459 112.836 69.2459 112.478C69.2459 112.119 69.2459 111.761 69.2459 111.403C69.2459 111.045 69.2459 110.687 69.2459 110.328C69.2459 109.97 69.2459 109.612 69.2459 109.433V99.403C69.6066 99.403 69.9672 99.403 70.1476 99.2239C70.5082 99.2239 70.6885 99.2239 71.0492 99.0448C71.4098 99.0448 71.7705 99.0448 71.9508 99.0448C72.4918 99.0448 73.0328 99.0448 73.7541 99.2239C74.2951 99.403 74.8361 99.5821 75.1967 99.7612C75.5574 100.119 75.918 100.478 76.2787 101.015C76.459 101.552 76.6394 102.09 76.6394 102.985V109.97C76.6394 110.507 76.6393 110.866 76.8197 111.224C77 111.582 77.3607 111.761 77.9016 111.761C78.4426 111.761 78.8033 111.582 78.9836 111.403C79.1639 111.224 79.3443 110.866 79.3443 110.687V99.403C79.7049 99.403 80.0656 99.403 80.2459 99.2239C80.6066 99.2239 80.7869 99.2239 81.1475 99.0448C81.5082 99.0448 81.8689 99.0448 82.0492 99.0448C82.5902 99.0448 83.3115 99.0448 83.8525 99.2239C84.3934 99.403 84.9344 99.5821 85.2951 99.7612C85.6557 99.9403 86.0164 100.478 86.3771 101.015C86.5574 101.552 86.7377 102.09 86.7377 102.985V116.955Z" fill="white"/>
<path d="M90.1639 113.731C89.9836 113.194 89.8033 112.657 89.8033 112.119C89.8033 111.582 89.8033 111.045 89.8033 110.507V93.4925C90.1639 93.4925 90.3443 93.4925 90.7049 93.3134C91.0656 93.3134 91.2459 93.3134 91.6066 93.1343C91.9672 93.1343 92.3279 93.1343 92.5082 93.1343C93.0492 93.1343 93.5902 93.1343 94.1311 93.3134C94.6721 93.4925 95.2131 93.6716 95.5738 93.8508C95.9344 94.209 96.2951 94.5672 96.6557 95.1045C96.8361 95.6418 97.0164 96.1791 97.0164 97.0746V99.0448H101.885V104.597H97.0164V110.149C97.0164 110.866 97.1967 111.403 97.377 111.582C97.7377 111.94 98.0984 111.94 98.6393 111.94C99 111.94 99.541 111.761 100.082 111.582C100.623 111.403 100.984 111.045 101.344 110.866C101.705 111.582 102.066 112.299 102.246 112.836C102.426 113.373 102.607 113.91 102.607 114.448C102.607 114.806 102.607 115.164 102.426 115.343C102.246 115.701 102.066 115.881 101.705 116.06C101.164 116.418 100.443 116.776 99.541 116.955C98.6393 117.134 97.5574 117.313 96.2951 117.313C94.4918 117.313 93.0492 116.955 92.1475 116.239C91.2459 115.701 90.5246 114.806 90.1639 113.731Z" fill="white"/>
<path d="M114.689 112.299C115.77 112.299 116.492 112.119 117.213 111.94C117.934 111.761 118.475 111.224 119.197 110.687C119.557 111.224 119.918 111.761 120.098 112.478C120.459 113.194 120.639 113.731 120.639 114.269C120.639 114.627 120.459 115.164 120.279 115.522C120.098 115.881 119.738 116.239 119.016 116.597C118.475 116.955 117.754 117.134 116.852 117.493C115.951 117.672 114.689 117.851 113.426 117.851C112.344 117.851 111.262 117.672 110.18 117.493C109.098 117.313 108.016 116.776 106.934 116.06C105.852 115.343 105.131 114.269 104.41 113.015C103.689 111.761 103.508 109.97 103.508 108C103.508 106.388 103.689 105.134 104.23 103.881C104.77 102.806 105.492 101.731 106.393 101.015C107.295 100.299 108.197 99.7612 109.279 99.403C110.361 99.0448 111.443 98.8657 112.705 98.8657C114.148 98.8657 115.59 99.0448 116.672 99.5821C117.754 99.9403 118.656 100.657 119.197 101.373C119.918 102.09 120.279 102.985 120.639 104.06C121 105.134 121 106.03 121 107.104C121 107.284 121 107.463 121 107.642C121 107.821 121 108 121 108.358C121 108.537 121 108.716 121 109.075C121 109.254 121 109.433 121 109.433H111.082C111.262 110.328 111.623 111.224 112.164 111.761C112.525 111.94 113.426 112.299 114.689 112.299ZM114.328 105.851C114.328 104.776 114.148 104.06 113.967 103.701C113.607 103.343 113.246 103.164 112.525 103.164C111.443 103.164 110.721 104.06 110.721 105.851H114.328Z" fill="white"/>
<path d="M101.705 36.7164C101.705 33.1343 100.623 29.7313 98.2787 26.8657C97.1967 25.6119 96.4754 24.1791 95.5738 22.7463C93.2295 18.6269 90.8852 14.1493 88.541 10.0299C85.1148 3.58209 78.623 -0.1791 71.5902 3.98606e-06C64.1967 3.98606e-06 56.9836 3.98606e-06 49.5902 3.98606e-06C42.5574 -0.1791 35.8852 3.58209 32.8197 9.85075L24.7049 24.3582C24.1639 25.0746 23.623 25.9702 23.082 26.5075C20.7377 29.3731 19.6557 32.7761 19.4754 36.1791C19.4754 44.7761 19.4754 53.194 19.4754 61.791C19.4754 64.4776 21.2787 66.4478 23.9836 66.4478C24.1639 66.4478 24.1639 66.4478 24.5246 66.4478H36.6066C39.3115 66.4478 41.2951 64.6567 41.2951 61.9701V61.791V59.6418H79.8852V59.8209C79.8852 60.3582 79.8852 60.8955 79.8852 61.6119C79.7049 64.2985 81.6885 66.2687 84.3934 66.6269C84.5738 66.6269 84.9344 66.6269 84.9344 66.6269H97.0164C99.7213 66.806 101.705 65.0149 102.066 62.5075C102.066 62.3284 102.066 61.9702 102.066 61.791C101.705 61.791 101.705 36.7164 101.705 36.7164ZM42.7377 12.1791C44.541 10.0299 47.2459 9.13433 49.7705 9.13433C57.1639 9.13433 64.377 9.13433 71.7705 9.13433C75.377 9.13433 78.8033 10.9254 80.4262 14.3284C81.1475 15.9403 82.2295 17.7313 83.3115 19.5224H37.8689C39.4918 17.194 40.7541 14.6866 42.7377 12.1791ZM92.6885 50.3284H91.6066H76.6393C76.0984 50.3284 75.377 50.1493 75.0164 49.6119C73.9344 48 72.6721 46.5672 71.5902 44.9552C70.5082 43.7015 68.8853 42.806 67.4426 42.806C63.2951 42.806 58.7869 42.806 54.6393 42.806C52.8361 42.806 51.2131 43.5224 50.4918 45.1343L47.0656 49.791C46.8852 49.9702 46.5246 50.3284 46.3443 50.3284C40.7541 50.3284 34.9836 50.3284 29.2131 50.3284C29.2131 45.6716 29.2131 41.0149 29.2131 36.5373C29.3934 32.9552 32.2787 29.7313 36.2459 29.194C36.9672 29.0149 38.0492 29.0149 38.9508 29.0149C53.5574 29.0149 68.5246 29.0149 83.3115 29.0149C86.1967 28.8358 89.082 30.0896 91.2459 32.0597C92.3279 33.1343 93.0492 34.7463 93.0492 36.5373C92.6885 40.8358 92.6885 45.6716 92.6885 50.3284Z" fill="white"/>
<path d="M39.4918 35.1045C36.7869 35.1045 34.8033 37.2537 34.8033 39.7612C34.8033 42.4478 36.9672 44.4179 39.4918 44.4179C42.1967 44.4179 44.1803 42.2687 44.1803 39.7612C44.1803 37.2537 42.1967 35.1045 39.4918 35.1045C39.8525 35.1045 39.4918 35.1045 39.4918 35.1045Z" fill="white"/>
<path d="M81.5082 35.1045C78.8033 35.1045 76.8197 37.2537 76.8197 39.7612C76.8197 42.4478 78.9836 44.4179 81.5082 44.4179C84.0328 44.4179 86.1967 42.2687 86.1967 39.7612C86.1967 37.4329 84.0328 35.4627 81.5082 35.1045Z" fill="white"/>
<path d="M75.1967 69.3134C77.9016 66.4478 76.8197 63.7612 72.8525 63.7612H48.5082C44.541 63.7612 43.459 66.0896 46.1639 69.3134C46.1639 69.3134 54.0984 78.6269 56.4426 81.3134C58.7869 83.6418 62.3934 84 65.0984 81.4925L65.2787 81.3134C67.2623 78.6269 75.1967 69.3134 75.1967 69.3134Z" fill="#178CA4"/>
</g>
<defs>
<clipPath id="clip0_14_2">
<rect width="121" height="132" fill="white"/>
</clipPath>
</defs>
</svg>
