<svg width="243" height="57" viewBox="0 0 243 57" fill="none" xmlns="http://www.w3.org/2000/svg">
<g clip-path="url(#clip0_33_108)">
<path d="M139.024 56.4557V54.9004C138.743 55.4695 138.344 55.9729 137.854 56.3779C137.309 56.6946 136.688 56.856 136.058 56.8445C135.502 56.8696 134.947 56.771 134.434 56.5558C133.921 56.3406 133.462 56.0142 133.092 55.6003C132.304 54.6703 131.912 53.4704 131.999 52.2565C131.924 51.0678 132.316 49.8965 133.092 48.9905C133.427 48.5701 133.855 48.2323 134.342 48.003C134.83 47.7738 135.363 47.6593 135.902 47.6685C136.557 47.6583 137.203 47.8191 137.776 48.1351C138.326 48.4627 138.762 48.9515 139.024 49.5348V47.9795H140.508V56.4557H139.024ZM133.248 52.3342C133.206 53.2293 133.483 54.1104 134.029 54.8227C134.279 55.1355 134.601 55.3836 134.968 55.5461C135.335 55.7085 135.736 55.7804 136.136 55.7558C136.577 55.7553 137.008 55.6309 137.381 55.3971C137.754 55.1632 138.053 54.8294 138.244 54.4338C138.826 53.6804 139.105 52.7374 139.024 51.7899C139.092 50.9155 138.811 50.0497 138.244 49.3793C137.994 49.0664 137.672 48.8183 137.305 48.6559C136.938 48.4934 136.537 48.4215 136.136 48.4461C135.737 48.4337 135.34 48.5111 134.975 48.6727C134.61 48.8343 134.287 49.0758 134.029 49.3793C133.425 50.241 133.148 51.2882 133.248 52.3342V52.3342Z" fill="#178CA4"/>
<path d="M144.567 49.6903C144.883 49.0998 145.307 48.5725 145.816 48.1351C146.245 47.8212 146.766 47.6572 147.299 47.6685H147.767H148.314V48.9905H147.455C147.095 48.9987 146.743 49.0954 146.43 49.2717C146.117 49.448 145.852 49.6987 145.66 50.0014C145.164 50.7343 144.917 51.6067 144.957 52.4898V56.6112H143.708V47.9795H144.957L144.567 49.6903Z" fill="#178CA4"/>
<path d="M150.733 49.6903C151.05 49.0998 151.474 48.5725 151.982 48.1351C152.412 47.8212 152.933 47.6572 153.465 47.6685H153.934H154.48L154.09 48.7572H153.309C152.936 48.7524 152.569 48.8429 152.241 49.0198C151.913 49.1968 151.636 49.4544 151.436 49.7681C150.94 50.501 150.694 51.3734 150.733 52.2565V56.3779H149.562V47.9795H150.733V49.6903Z" fill="#178CA4"/>
<path d="M155.495 44.7135C155.417 44.5135 155.417 44.2914 155.495 44.0914C155.606 44.0421 155.725 44.0166 155.846 44.0166C155.967 44.0166 156.087 44.0421 156.198 44.0914C156.296 44.0486 156.402 44.0265 156.51 44.0265C156.617 44.0265 156.724 44.0486 156.822 44.0914C156.95 44.211 157.037 44.3665 157.074 44.5372C157.11 44.7078 157.093 44.8854 157.025 45.0462C156.957 45.207 156.841 45.3432 156.693 45.4366C156.546 45.53 156.373 45.5762 156.198 45.5689C155.97 45.6459 155.723 45.6459 155.495 45.5689C155.42 45.4389 155.38 45.2914 155.38 45.1412C155.38 44.991 155.42 44.8435 155.495 44.7135V44.7135ZM155.495 56.4557V47.9795H156.666V56.4557H155.495Z" fill="#178CA4"/>
<path d="M158.93 47.9795H160.257L162.833 54.4338L165.409 47.9795H166.736L162.833 57L158.93 47.9795Z" fill="#178CA4"/>
<path d="M175.869 52.2565H169.156C169.127 53.1739 169.401 54.0752 169.936 54.8226C170.194 55.1261 170.518 55.3676 170.883 55.5292C171.248 55.6908 171.645 55.7682 172.044 55.7558C172.625 55.7681 173.196 55.6055 173.683 55.2892C174.192 54.8712 174.594 54.338 174.854 53.734L175.947 54.3561C175.598 55.1026 175.06 55.7458 174.386 56.2224C173.676 56.6379 172.867 56.853 172.044 56.8445C171.476 56.8704 170.909 56.7725 170.383 56.5576C169.858 56.3427 169.385 56.016 168.999 55.6003C168.202 54.7019 167.783 53.5324 167.828 52.3342C167.771 51.1109 168.19 49.9127 168.999 48.9905C169.378 48.5977 169.833 48.2851 170.336 48.0717C170.839 47.8582 171.38 47.7481 171.927 47.7481C172.473 47.7481 173.015 47.8582 173.518 48.0717C174.021 48.2851 174.475 48.5977 174.854 48.9905C175.583 49.8881 175.945 51.0266 175.869 52.1787V52.2565ZM174.464 51.2456C174.476 50.9083 174.412 50.5724 174.277 50.2629C174.142 49.9533 173.939 49.6779 173.683 49.457C173.138 49.0053 172.438 48.7822 171.731 48.8349C171.081 48.8405 170.45 49.0591 169.936 49.457C169.475 49.9445 169.199 50.577 169.156 51.2456H174.464Z" fill="#178CA4"/>
<path d="M187.812 56.8445C187.244 56.9517 186.662 56.9517 186.094 56.8445C184.977 56.3582 184.085 55.4694 183.597 54.3561C183.479 53.7918 183.479 53.2095 183.597 52.6453C183.572 52.0382 183.678 51.433 183.907 50.8698C184.136 50.3067 184.482 49.7985 184.924 49.3793C185.357 48.9808 185.859 48.6646 186.407 48.4461C186.974 48.3388 187.557 48.3388 188.124 48.4461C188.717 48.3288 189.327 48.3288 189.919 48.4461C190.491 48.6638 191.019 48.9797 191.481 49.3793C191.889 49.8204 192.23 50.3181 192.495 50.8568C192.607 51.4477 192.607 52.0543 192.495 52.6453C192.613 53.2095 192.613 53.7918 192.495 54.3561C192.25 54.9056 191.906 55.4062 191.481 55.8336C191.044 56.2843 190.51 56.6301 189.919 56.8445C189.226 57.0068 188.505 57.0068 187.812 56.8445V56.8445ZM187.812 55.7558C188.25 55.7518 188.683 55.6603 189.085 55.4867C189.488 55.313 189.851 55.0608 190.154 54.7449C190.802 54.0777 191.165 53.1853 191.165 52.2565C191.165 51.3277 190.802 50.4353 190.154 49.7681C189.854 49.4478 189.492 49.1924 189.089 49.0178C188.686 48.8431 188.251 48.753 187.812 48.753C187.372 48.753 186.938 48.8431 186.535 49.0178C186.132 49.1924 185.769 49.4478 185.47 49.7681C184.821 50.4353 184.459 51.3277 184.459 52.2565C184.459 53.1853 184.821 54.0777 185.47 54.7449C185.782 55.0703 186.158 55.3281 186.574 55.502C186.99 55.676 187.438 55.7624 187.89 55.7558H187.812Z" fill="#178CA4"/>
<path d="M195.149 56.4557V47.9795H196.32V49.3015C196.611 48.7783 197.044 48.3471 197.569 48.0573C198.135 47.9328 198.721 47.9328 199.287 48.0573C200.11 48.0376 200.914 48.3136 201.55 48.8349C201.827 49.1387 202.038 49.4952 202.173 49.8828C202.307 50.2704 202.361 50.6811 202.331 51.09V56.8445H201.16V51.2456C201.231 50.5762 201.034 49.9059 200.614 49.3793C200.408 49.1553 200.153 48.9824 199.868 48.8744C199.583 48.7664 199.277 48.7262 198.974 48.7572C198.599 48.7201 198.219 48.7711 197.867 48.9061C197.515 49.0411 197.199 49.2564 196.945 49.5348C196.491 50.283 196.273 51.1501 196.32 52.0232V56.4557H195.149Z" fill="#178CA4"/>
<path d="M210.761 48.9905H209.2V47.9795H210.761V44.558H211.932V47.9795H213.572V48.9905H211.932V56.7667H210.761V48.9905Z" fill="#178CA4"/>
<path d="M215.445 44.7135C215.367 44.5135 215.367 44.2914 215.445 44.0914C215.67 44.0006 215.922 44.0006 216.147 44.0914C216.244 44.0434 216.351 44.0185 216.46 44.0185C216.568 44.0185 216.675 44.0434 216.772 44.0914C216.899 44.211 216.987 44.3665 217.023 44.5372C217.06 44.7078 217.043 44.8854 216.975 45.0462C216.907 45.207 216.791 45.3432 216.643 45.4366C216.495 45.53 216.322 45.5762 216.147 45.5689C215.92 45.6459 215.673 45.6459 215.445 45.5689C215.37 45.4389 215.33 45.2914 215.33 45.1412C215.33 44.991 215.37 44.8435 215.445 44.7135ZM215.445 56.4557V47.9795H216.616V56.4557H215.445Z" fill="#178CA4"/>
<path d="M221.377 56.4557H220.207V47.9795H221.377V49.3015C221.587 48.793 221.975 48.3782 222.47 48.1351C222.933 47.8293 223.476 47.667 224.031 47.6685C224.613 47.6562 225.184 47.8188 225.671 48.1351C226.127 48.4389 226.48 48.8724 226.686 49.3793C226.93 48.8226 227.376 48.3782 227.934 48.1351C228.421 47.8188 228.993 47.6562 229.574 47.6685C229.977 47.6554 230.379 47.7245 230.755 47.8715C231.131 48.0186 231.473 48.2406 231.759 48.5239C232.284 49.1268 232.562 49.9037 232.54 50.7012V56.4557H231.369V51.1678C231.377 50.5055 231.186 49.856 230.823 49.3015C230.625 49.0884 230.383 48.922 230.113 48.8144C229.843 48.7067 229.552 48.6606 229.261 48.6794C228.933 48.6609 228.606 48.7219 228.307 48.8574C228.007 48.9928 227.746 49.1986 227.544 49.457C227.079 50.2294 226.861 51.1245 226.92 52.0232V56.4557H225.749V51.1678C225.806 50.5111 225.641 49.8542 225.28 49.3015C225.095 49.0946 224.866 48.9313 224.609 48.8237C224.353 48.7161 224.075 48.6668 223.797 48.6794C223.438 48.6575 223.08 48.7241 222.753 48.8733C222.426 49.0225 222.141 49.2497 221.924 49.5348C221.477 50.284 221.286 51.1567 221.377 52.0232V56.4557Z" fill="#178CA4"/>
<path d="M242.922 52.2565H236.209C236.181 53.1739 236.455 54.0752 236.989 54.8226C237.248 55.1261 237.571 55.3676 237.936 55.5292C238.301 55.6908 238.698 55.7682 239.097 55.7558C239.678 55.7681 240.249 55.6055 240.736 55.2892C241.246 54.8712 241.647 54.338 241.907 53.734L243 54.3561C242.676 55.1178 242.132 55.7671 241.439 56.2224C240.733 56.6455 239.921 56.8611 239.097 56.8445C238.529 56.8704 237.963 56.7725 237.437 56.5576C236.911 56.3427 236.439 56.016 236.053 55.6003C235.277 54.6942 234.885 53.523 234.96 52.3342C234.872 51.1203 235.265 49.9204 236.053 48.9905C236.435 48.5648 236.905 48.2263 237.43 47.9981C237.955 47.77 238.524 47.6575 239.097 47.6685C239.623 47.646 240.147 47.7388 240.632 47.9403C241.118 48.1419 241.553 48.4473 241.907 48.8349C242.636 49.7326 242.998 50.8711 242.922 52.0232V52.2565ZM241.517 51.2456C241.525 50.9159 241.466 50.5881 241.346 50.2811C241.225 49.974 241.045 49.6939 240.814 49.457C240.286 49.0307 239.62 48.8097 238.941 48.8349C238.606 48.8139 238.271 48.8602 237.955 48.9709C237.639 49.0817 237.348 49.2546 237.101 49.4796C236.853 49.7045 236.653 49.9768 236.514 50.2802C236.374 50.5835 236.297 50.9119 236.287 51.2456H241.517Z" fill="#178CA4"/>
<path d="M81.6505 28.0723C82.6474 28.0786 83.6335 27.8662 84.5387 27.4502C85.4069 27.0337 86.2197 26.5112 86.9586 25.895L87.7392 26.9836C88.047 27.3526 88.285 27.7742 88.4417 28.2278C88.6816 28.6529 88.8903 29.0947 89.0662 29.5498C89.0991 29.9379 89.0991 30.3281 89.0662 30.7162C89.2188 31.2764 89.2188 31.8669 89.0662 32.427C88.6608 33.0753 88.0967 33.6105 87.4269 33.9823C86.4337 34.548 85.3517 34.9424 84.2265 35.1487C82.7935 35.479 81.3258 35.6356 79.8551 35.6153C78.2779 35.6172 76.706 35.4345 75.1715 35.0709C73.3986 34.7356 71.7203 34.0191 70.2538 32.9713C68.7892 31.801 67.6141 30.3111 66.8191 28.6166C65.8006 26.4001 65.3193 23.9761 65.4141 21.5402C65.3207 19.2297 65.8034 16.932 66.8191 14.8527C67.6417 13.1974 68.8132 11.7385 70.2538 10.5757C71.6322 9.55853 73.1966 8.81894 74.8593 8.39836C76.4082 7.96361 78.0119 7.75408 79.6209 7.77626C80.9068 7.75523 82.1907 7.88574 83.4459 8.16508C84.598 8.36285 85.7071 8.75747 86.7244 9.33152C87.4674 9.75559 88.1283 10.3086 88.6759 10.9645C89.1488 11.5311 89.3986 12.2498 89.3784 12.9864C89.3418 13.8099 89.1004 14.6116 88.6759 15.3192C88.2462 16.2998 87.7234 17.2372 87.1147 18.1187C86.2671 17.3727 85.3217 16.7449 84.3045 16.2524C83.3657 15.7659 82.3181 15.5251 81.2602 15.5525C80.6432 15.5524 80.0342 15.6924 79.4796 15.9619C78.9251 16.2314 78.4395 16.6233 78.0597 17.1078C77.1765 18.3254 76.736 19.8065 76.8108 21.307C76.7302 22.1864 76.7302 23.0714 76.8108 23.9509C76.9524 24.7011 77.2444 25.4153 77.6694 26.0505C78.0698 26.6553 78.6038 27.1607 79.2306 27.528C79.9721 27.9265 80.8091 28.1148 81.6505 28.0723V28.0723Z" fill="#072A40"/>
<path d="M118.417 21.3847C118.437 23.2027 118.173 25.0128 117.636 26.7503C117.149 28.4269 116.326 29.9877 115.216 31.3383C114.013 32.6904 112.519 33.7538 110.845 34.4488C108.793 35.292 106.584 35.6897 104.366 35.6153C102.179 35.7033 99.9984 35.3324 97.9649 34.5266C96.2699 33.7605 94.794 32.5843 93.6716 31.105C92.5505 29.7914 91.7253 28.2533 91.2518 26.5948C90.703 24.8599 90.4394 23.048 90.4712 21.2292C90.4765 19.4071 90.7662 17.597 91.3299 15.8636C91.8208 14.3686 92.6183 12.9916 93.6716 11.8199C94.9133 10.5146 96.434 9.50465 98.1211 8.86494C100.171 8.02149 102.386 7.64937 104.6 7.77626C106.787 7.68822 108.967 8.05914 111.001 8.86494C112.642 9.50589 114.112 10.5174 115.294 11.8199C116.387 13.0526 117.187 14.5143 117.636 16.0969C118.173 17.8079 118.436 19.5922 118.417 21.3847ZM107.488 21.3847C107.508 20.0115 107.297 18.6447 106.864 17.3411C106.698 16.8564 106.382 16.4369 105.961 16.1433C105.54 15.8497 105.036 15.6972 104.522 15.708C103.964 15.6853 103.414 15.8496 102.961 16.1746C102.545 16.5322 102.223 16.9862 102.024 17.4966C101.749 18.0881 101.565 18.7171 101.478 19.3629C101.439 20.0622 101.439 20.7632 101.478 21.4625C101.478 22.2401 101.478 23.0177 101.478 23.7954C101.565 24.4411 101.749 25.0702 102.024 25.6617C102.223 26.1945 102.544 26.6737 102.961 27.0614C103.384 27.3865 103.91 27.5518 104.444 27.528C104.728 27.5468 105.012 27.5083 105.28 27.4147C105.549 27.3212 105.795 27.1746 106.005 26.9836C106.419 26.6401 106.719 26.179 106.864 25.6617C107.103 25.0364 107.261 24.383 107.332 23.7176C107.454 22.9985 107.507 22.2693 107.488 21.5402V21.3847Z" fill="#072A40"/>
<path d="M151.358 18.7408C151.454 18.1224 151.454 17.4929 151.358 16.8745C151.358 16.4079 150.655 16.1746 149.875 16.1746C149.596 16.1357 149.312 16.1572 149.043 16.2378C148.773 16.3183 148.525 16.4559 148.314 16.6412C148.231 16.9731 148.231 17.3202 148.314 17.6521V34.8377H136.683V18.7408C136.779 18.1224 136.779 17.4929 136.683 16.8745C136.532 16.6254 136.311 16.4261 136.047 16.3016C135.783 16.1771 135.488 16.1329 135.199 16.1746C134.921 16.1452 134.64 16.1714 134.372 16.2515C134.104 16.3316 133.854 16.4641 133.638 16.6412C133.374 16.9718 133.236 17.3851 133.248 17.8076V34.8377H121.929V8.70941H123.1H124.505H126.223C129.501 8.70941 131.531 9.5648 132.389 11.4311C132.955 10.5123 133.731 9.73959 134.653 9.17599C136.088 8.40707 137.711 8.0567 139.337 8.16507C140.859 8.10242 142.369 8.45177 143.708 9.17599C144.875 9.82138 145.825 10.7951 146.44 11.9754C147.074 10.8753 147.99 9.96286 149.094 9.33152C150.551 8.35697 152.257 7.81738 154.012 7.77626C155.944 7.66998 157.853 8.24847 159.398 9.40928C160.705 10.5145 161.61 12.0175 161.974 13.6862C161.974 14.0491 161.974 14.5157 161.974 15.0859C162.011 15.6037 162.011 16.1234 161.974 16.6412C162.013 17.1849 162.013 17.7306 161.974 18.2742V34.6044H160.881H159.554H157.993C156.636 34.6923 155.277 34.4798 154.012 33.9823C153.19 33.686 152.481 33.1425 151.982 32.427C151.757 32.0139 151.599 31.5677 151.514 31.105C151.514 30.2497 151.514 29.3165 151.514 28.3834L151.358 18.7408Z" fill="#072A40"/>
<path d="M192.808 34.8377H185.002C184.663 34.8761 184.319 34.8404 183.996 34.7329C183.672 34.6255 183.376 34.4489 183.128 34.2156C182.743 33.5579 182.579 32.7951 182.66 32.0382C182.019 32.9767 181.162 33.7497 180.162 34.2933C178.694 35.0496 177.05 35.3988 175.4 35.3042C173.468 35.4105 171.56 34.832 170.014 33.6712C168.707 32.566 167.802 31.063 167.438 29.3943C167.438 29.3943 167.438 28.5389 167.438 27.9945C167.399 27.4509 167.399 26.9052 167.438 26.3615C167.397 25.8439 167.397 25.3239 167.438 24.8063V8.70941H168.843H170.17H171.653C172.484 8.62928 173.321 8.62928 174.151 8.70941C174.925 8.8644 175.664 9.15396 176.337 9.5648C176.985 9.98301 177.499 10.5765 177.82 11.2756C178.253 12.1446 178.467 13.1053 178.445 14.075V24.2619C178.3 24.902 178.3 25.566 178.445 26.206C178.608 26.4615 178.843 26.6638 179.12 26.7881C179.398 26.9125 179.705 26.9534 180.006 26.9059C180.864 26.9059 181.411 26.9059 181.645 26.3615C181.939 26.0744 182.107 25.6831 182.113 25.2729V8.70941H183.518H184.845H186.329C187.186 8.63255 188.048 8.63255 188.905 8.70941C189.653 8.86521 190.367 9.15503 191.012 9.5648C191.686 10.0088 192.226 10.627 192.573 11.3533C192.988 12.226 193.176 13.1888 193.12 14.1528L192.808 34.8377Z" fill="#072A40"/>
<path d="M197.725 30.1719C197.433 29.3704 197.249 28.5335 197.179 27.6835C197.179 26.9059 197.179 26.1282 197.179 25.3506V0.388813H198.584H199.911H201.316C202.147 0.308678 202.983 0.308678 203.814 0.388813C204.591 0.529954 205.334 0.820486 206 1.2442C206.657 1.70643 207.193 2.32001 207.561 3.03274C207.938 3.91731 208.125 4.87117 208.107 5.8322V8.63165H215.133V16.4079H208.107V24.1842C208.041 24.9616 208.263 25.7363 208.732 26.3615C209.247 26.7485 209.883 26.9413 210.527 26.9059C211.231 26.9096 211.926 26.7498 212.557 26.4393C213.212 26.2139 213.82 25.8713 214.352 25.4284C214.899 26.4393 215.367 27.4502 215.757 28.3056C216.106 29.0348 216.293 29.8307 216.304 30.6385C216.392 31.1009 216.392 31.5758 216.304 32.0382C216.045 32.4933 215.668 32.8696 215.211 33.1269C214.247 33.8168 213.161 34.3182 212.01 34.6044C210.481 34.9947 208.905 35.1778 207.327 35.1487C205.169 35.2839 203.02 34.7691 201.16 33.6712C199.667 32.9034 198.462 31.6762 197.725 30.1719Z" fill="#072A40"/>
<path d="M234.179 27.9945C235.431 28.0255 236.677 27.8143 237.848 27.3724C238.912 26.9097 239.909 26.3082 240.814 25.5839C241.332 26.4117 241.801 27.2685 242.219 28.1501C242.658 28.9134 242.924 29.7624 243 30.6385C242.974 31.247 242.785 31.8376 242.454 32.3492C242.021 33.0231 241.432 33.5833 240.736 33.9823C239.705 34.5255 238.601 34.9183 237.458 35.1487C235.763 35.4933 234.035 35.6498 232.306 35.6153C230.703 35.6135 229.106 35.4308 227.544 35.0709C225.791 34.7498 224.135 34.0315 222.704 32.9713C220.99 31.8437 219.572 30.3239 218.567 28.5389C217.437 26.1082 216.928 23.4369 217.084 20.7626C217.166 18.7866 217.672 16.8509 218.567 15.0859C219.269 13.4648 220.337 12.0275 221.69 10.8868C222.927 9.79825 224.394 9.00094 225.983 8.55389C229.429 7.41514 233.153 7.41514 236.599 8.55389C238.041 9.1675 239.342 10.0671 240.424 11.1978C241.382 12.31 242.1 13.6072 242.532 15.0082C242.936 16.5046 243.146 18.0465 243.156 19.5962V21.307C243.156 21.307 243.156 21.9291 243.156 22.2401C243.156 22.5512 243.156 22.7067 243.156 22.8622H228.247C228.362 24.1776 228.88 25.4261 229.73 26.4393C230.297 27.0275 230.996 27.4747 231.769 27.7448C232.541 28.0149 233.367 28.1005 234.179 27.9945V27.9945ZM233.711 18.5075C233.787 17.4336 233.572 16.3591 233.086 15.397C232.828 15.0983 232.503 14.865 232.136 14.7163C231.77 14.5676 231.373 14.5077 230.979 14.5416C229.261 14.5416 228.403 15.8636 228.403 18.5075H233.711Z" fill="#072A40"/>
<path d="M28.3357 56.4557C43.9851 56.4557 56.6714 43.8176 56.6714 28.2278C56.6714 12.638 43.9851 0 28.3357 0C12.6863 0 0 12.638 0 28.2278C0 43.8176 12.6863 56.4557 28.3357 56.4557Z" fill="#072A40"/>
<path d="M45.2747 26.206C45.3223 24.7317 44.8219 23.2918 43.8696 22.1623C43.4858 21.6201 43.1465 21.048 42.8548 20.4516C41.84 18.663 40.9033 16.8745 39.8886 15.1637C39.2125 13.8985 38.1987 12.844 36.9589 12.1167C35.7191 11.3894 34.3017 11.0176 32.8632 11.0423H23.8082C22.3419 11.068 20.9124 11.5047 19.6837 12.3024C18.455 13.1001 17.4767 14.2265 16.8609 15.5525L13.5044 21.5402C13.342 21.8559 13.1313 22.1445 12.8799 22.3956C11.9819 23.5309 11.4633 24.9177 11.3967 26.3615V36.5484C11.3081 36.8235 11.2878 37.1159 11.3373 37.4006C11.3869 37.6853 11.505 37.9537 11.6815 38.183C11.8579 38.4123 12.0875 38.5956 12.3506 38.7172C12.6137 38.8388 12.9024 38.8951 13.1921 38.8813H18.4221C18.6682 38.8917 18.9139 38.8537 19.1452 38.7694C19.3765 38.6852 19.5889 38.5563 19.7702 38.3902C19.9514 38.224 20.098 38.0239 20.2016 37.8013C20.3051 37.5787 20.3636 37.3379 20.3736 37.0928V35.693H35.9856V36.4707C35.9079 36.7753 35.9055 37.0941 35.9787 37.3998C36.0518 37.7055 36.1982 37.989 36.4054 38.226C36.6126 38.463 36.8744 38.6464 37.1684 38.7606C37.4623 38.8747 37.7796 38.9161 38.0932 38.8813H43.2451C43.4933 38.914 43.7457 38.8946 43.9859 38.8244C44.2261 38.7542 44.449 38.6346 44.6401 38.4735C44.8312 38.3124 44.9864 38.1133 45.0957 37.8889C45.205 37.6645 45.2659 37.4198 45.2747 37.1705V26.206ZM20.9981 16.0969C21.3634 15.6973 21.8099 15.3797 22.3078 15.1652C22.8058 14.9507 23.3438 14.8441 23.8863 14.8527H33.0193C33.748 14.815 34.4715 14.9946 35.0972 15.3686C35.7229 15.7426 36.2224 16.294 36.532 16.9523C36.532 17.6521 37.3126 18.352 37.7029 19.1296H19.0466C19.6413 18.0841 20.2927 17.0717 20.9981 16.0969V16.0969ZM41.6059 31.6494H35.0488C35.0488 31.6494 34.5024 31.6494 34.4244 31.6494C34.3463 31.6494 33.4096 30.3274 33.0193 29.7053C32.8173 29.4115 32.5505 29.1676 32.2393 28.9924C31.9281 28.8172 31.5808 28.7152 31.2239 28.6944H25.9939C25.6297 28.6791 25.2685 28.7656 24.9512 28.9443C24.6339 29.123 24.3732 29.3866 24.1985 29.7053L22.7935 31.5716H15.612V26.1282C15.7313 25.429 16.0659 24.784 16.5693 24.2825C17.0728 23.781 17.7202 23.4477 18.4221 23.3288H37.7029C38.3084 23.2729 38.9188 23.356 39.4871 23.5717C40.0555 23.7874 40.5666 24.1299 40.9814 24.573C41.2316 24.8152 41.4298 25.1055 41.564 25.4263C41.6981 25.7471 41.7655 26.0918 41.762 26.4393C41.6059 27.9168 41.6059 29.8608 41.6059 31.8049V31.6494Z" fill="white"/>
<path d="M19.6711 25.5839C19.2851 25.5839 18.9078 25.6979 18.5869 25.9115C18.266 26.1252 18.0159 26.4288 17.8682 26.784C17.7205 27.1392 17.6818 27.5301 17.7571 27.9072C17.8324 28.2843 18.0183 28.6307 18.2912 28.9026C18.5641 29.1745 18.9118 29.3597 19.2904 29.4347C19.6689 29.5097 20.0613 29.4712 20.4179 29.3241C20.7745 29.1769 21.0793 28.9277 21.2937 28.608C21.5081 28.2883 21.6226 27.9125 21.6226 27.528C21.6226 27.0124 21.417 26.5179 21.051 26.1533C20.685 25.7887 20.1887 25.5839 19.6711 25.5839Z" fill="white"/>
<path d="M37.0003 25.5839C36.618 25.5991 36.2487 25.726 35.9382 25.9487C35.6277 26.1713 35.3897 26.48 35.2539 26.8363C35.1181 27.1926 35.0904 27.5808 35.1743 27.9527C35.2582 28.3245 35.45 28.6636 35.7257 28.9278C36.0015 29.1919 36.3491 29.3695 36.7254 29.4384C37.1017 29.5073 37.49 29.4646 37.842 29.3154C38.1941 29.1663 38.4944 28.9173 38.7056 28.5995C38.9168 28.2817 39.0295 27.9091 39.0298 27.528C39.0105 27.0185 38.7987 26.5351 38.4368 26.1746C38.0749 25.8141 37.5897 25.6031 37.0783 25.5839H37.0003Z" fill="white"/>
<path d="M34.4244 39.6589C35.4391 38.4925 35.0488 37.4038 33.4096 37.4038H23.4179C21.8567 37.4038 21.3884 38.4147 22.4812 39.6589C22.4812 39.6589 25.6817 43.5471 26.6964 44.6357C27.1772 45.1013 27.8213 45.3617 28.4918 45.3617C29.1623 45.3617 29.8064 45.1013 30.2872 44.6357V44.6357L34.4244 39.6589Z" fill="#178CA4"/>
</g>
<defs>
<clipPath id="clip0_33_108">
<rect width="243" height="57" fill="white"/>
</clipPath>
</defs>
</svg>
