<svg width="281" height="267" viewBox="0 0 281 267" fill="none" xmlns="http://www.w3.org/2000/svg">
<path d="M276.708 147.118C273.187 139.774 267.265 134.824 260.542 132.908C259.902 130.673 259.262 128.598 258.461 126.522C251.259 106.725 236.533 91.5581 216.686 87.7264C216.846 83.2561 216.686 78.7858 216.206 74.4751C216.366 74.4751 216.526 74.4751 216.686 74.4751C230.451 74.4751 230.451 53.0815 216.686 53.0815C214.605 53.0815 212.684 53.5604 211.244 54.5183C208.683 47.9725 205.321 41.9057 200.84 36.3178C196.038 30.2509 189.956 25.142 183.393 21.3103C183.553 20.5121 183.713 19.5541 183.713 18.7559V16.2014C183.713 10.4539 178.912 5.50458 172.989 5.50458C169.468 5.50458 166.267 7.26078 164.346 9.97489C159.544 7.58008 154.583 5.82389 149.301 4.70631C130.254 0.236002 108.485 6.30285 91.199 14.2856C78.0741 20.3524 67.03 30.0913 61.1078 42.704C28.1355 36.7968 -6.27733 72.5593 1.72566 107.523C3.16619 113.431 5.40703 119.178 8.44816 124.447C4.60673 126.043 1.88572 129.875 1.88572 134.186C1.88572 139.933 6.6875 144.883 12.6097 144.883H13.41C16.4511 144.883 19.1722 143.605 21.0929 141.53C26.5349 147.437 32.7772 152.865 39.1796 157.495C33.2574 176.175 36.7787 196.131 46.8625 213.214C58.8669 233.49 79.5146 244.347 102.883 244.826C116.648 245.145 129.453 241.633 140.657 235.247C152.342 241.633 164.986 245.624 178.912 245.464C208.363 245.305 240.214 223.113 255.42 198.846C256.541 197.089 257.501 195.173 258.461 193.258C264.384 191.661 269.826 188.628 273.987 184.477C283.591 175.217 282.15 158.293 276.708 147.118Z" fill="#178CA4" fill-opacity="0.3"/>
<path d="M194.437 6.30286C191.236 6.30286 188.675 8.85732 188.675 12.0504V12.8487C188.675 16.0417 191.236 18.5962 194.437 18.5962C197.639 18.5962 200.2 16.0417 200.2 12.8487V12.0504C200.2 8.85732 197.639 6.30286 194.437 6.30286Z" fill="#178CA4" fill-opacity="0.3"/>
<path d="M15.0106 154.781C7.64787 154.781 7.64787 166.276 15.0106 166.276C22.5334 166.276 22.5334 154.781 15.0106 154.781Z" fill="#178CA4" fill-opacity="0.3"/>
<path d="M226.609 14.4452C219.247 14.4452 219.247 25.9403 226.609 25.9403C233.972 25.9403 233.972 14.4452 226.609 14.4452Z" fill="#178CA4" fill-opacity="0.3"/>
<path d="M128.653 250.094C118.089 250.094 118.089 266.539 128.653 266.539C139.217 266.539 139.217 250.094 128.653 250.094Z" fill="#178CA4" fill-opacity="0.3"/>
<g clip-path="url(#clip0_11_2)">
<path fill-rule="evenodd" clip-rule="evenodd" d="M138.598 54.8777C118.793 54.8777 98.2012 54.7462 80.1013 55.6665C75.5107 55.9294 71.0513 54.8777 66.7231 54.8777C58.5912 54.8777 49.279 55.6665 46.2623 61.8454C46.1311 69.8649 45.8688 78.5417 46 86.8241C46.1311 92.3457 46.7869 97.7358 47.0493 103.126C47.5739 114.169 47.8362 125.212 49.0166 135.861C50.0659 137.176 51.771 137.965 53.3449 138.753C62.1325 139.805 70.1332 137.176 78.1339 136.256C77.347 139.805 79.1832 142.172 80.6259 143.881C82.331 144.801 84.1672 145.59 86.1346 146.247C99.1193 148.482 118.924 150.454 124.826 140.594C125.22 138.753 125.876 136.256 125.351 134.284C124.826 131.917 122.466 130.34 121.416 129.156C127.187 127.842 133.876 126.527 140.041 125.607C142.008 125.344 144.5 125.475 145.55 123.635C146.074 103.783 146.861 79.7249 144.763 60.6622C144.5 58.6902 145.156 56.9811 144.107 55.535C142.664 54.3518 140.434 54.8777 138.598 54.8777Z" fill="black"/>
<path fill-rule="evenodd" clip-rule="evenodd" d="M142.664 57.7699C143.976 78.5417 143.845 99.9708 143.845 121.794C120.892 127.842 93.2172 129.156 70.0021 134.941C66.9854 135.335 62.6572 137.176 60.034 136.124C58.8536 133.1 59.247 129.551 59.1159 126.264C58.4601 116.536 57.542 105.887 57.542 95.7638C57.542 89.4534 57.4108 83.5374 57.0173 77.227C56.3615 71.0481 56.4927 64.7377 56.4927 58.4273C85.4788 58.8217 113.547 56.3238 142.664 57.7699ZM131.647 58.4273C110.792 59.3475 89.6759 58.6902 70.3955 60.1363C68.0347 60.2678 65.4115 60.1363 63.1818 61.0566C88.889 59.8734 113.022 59.2161 139.516 59.0846C140.434 58.6902 141.221 60.1363 141.221 58.8217C138.86 57.6385 134.663 58.1643 131.647 58.4273ZM58.8536 61.3195C57.4108 67.1041 58.0666 73.4145 58.4601 79.5934C59.1159 91.9513 59.9028 104.046 60.5586 116.404C60.8209 122.583 60.5586 128.762 62.1325 134.284C69.2151 134.809 75.9042 133.1 82.5933 131.786C89.2824 130.471 95.9715 129.419 103.054 128.499C115.252 126.921 126.663 124.424 137.811 121.794C139.385 121.268 141.877 121.794 142.139 120.085C129.548 123.109 116.301 125.607 102.923 127.579C96.2339 128.631 89.4136 129.551 82.7245 130.734C76.0354 131.917 69.4774 134.284 62.6572 133.889C61.2144 111.277 59.5094 85.7724 59.1159 62.2398C59.1159 61.451 59.9028 61.5825 59.9028 60.9251C59.7717 60.9251 59.6405 60.9251 59.5094 60.9251C59.247 60.9251 58.7224 60.7937 58.8536 61.3195ZM100.693 61.0566C96.2339 61.0566 91.5121 61.1881 87.1839 61.451C78.0028 61.8454 69.084 61.3195 61.0833 63.423C59.7717 74.7291 62.0014 86.1668 62.0014 97.7358C62.0014 109.305 63.1818 120.874 63.9688 132.049C70.6579 132.18 77.2158 130.603 83.6426 129.551C90.0694 128.368 96.4962 127.316 102.923 126.264C115.777 124.029 128.761 122.189 140.828 118.771C141.484 102.995 139.647 86.0353 139.647 70.5222C139.647 66.8411 138.729 63.1601 140.303 61.3195C127.056 60.0049 113.547 61.0566 100.693 61.0566ZM142.533 121.005C143.713 121.005 142.926 119.033 143.189 118.113C143.32 117.061 143.582 116.141 143.582 114.958C142.926 97.4729 143.058 79.199 141.221 62.7657C141.221 62.6342 141.221 62.5027 140.959 62.5027C141.221 82.4857 142.795 101.943 142.533 121.005Z" fill="#B6CBCE"/>
<path fill-rule="evenodd" clip-rule="evenodd" d="M56.0992 135.861C54.9188 133.363 54.9188 130.208 54.5253 127.447C52.1645 106.939 51.3775 83.6689 51.6398 61.0566C52.1645 60.9251 52.8202 59.8734 53.2137 60.2678C55.8369 83.6689 54.263 112.329 56.0992 135.861Z" fill="#B6CBCE"/>
<path fill-rule="evenodd" clip-rule="evenodd" d="M53.7384 135.73C52.6891 135.861 51.1152 135.335 51.771 133.232C50.4594 110.357 49.0166 87.4814 48.492 63.9489C48.7543 62.8971 49.8036 62.6342 50.4594 61.9769C50.5905 61.9769 50.5905 62.1083 50.7217 62.1083C50.0659 81.5654 50.7217 100.365 52.5579 118.245C53.2137 124.161 53.8695 130.077 53.7384 135.73Z" fill="#B6CBCE"/>
<path fill-rule="evenodd" clip-rule="evenodd" d="M135.45 62.1083C134.795 66.1838 133.352 69.4705 132.565 73.283C131.909 73.283 131.253 73.283 130.597 73.283C131.122 69.339 132.171 65.9209 132.958 62.2398C133.876 62.3713 134.663 62.2398 135.45 62.1083Z" fill="white"/>
<path fill-rule="evenodd" clip-rule="evenodd" d="M137.155 62.1083C138.205 62.6342 137.68 65.0006 137.68 66.5782C137.68 69.2075 137.68 71.8369 137.942 74.2033C128.499 76.0438 120.629 79.3305 111.448 81.434C111.055 81.0396 110.399 80.7766 109.743 80.6452C105.94 75.1236 103.448 68.2873 99.7751 62.7657C101.087 62.7657 102.398 62.7657 103.448 62.6342C105.546 67.2355 108.432 71.311 110.661 75.7809C114.727 78.1473 122.99 76.7012 125.745 74.0718C127.319 70.5222 127.843 65.9209 129.286 62.2398C130.073 62.2398 130.86 62.2398 131.647 62.2398C131.384 66.3153 129.548 69.8649 129.679 73.8089C130.073 74.5977 132.04 74.5977 132.827 74.2033C135.188 71.311 135.057 65.1321 137.155 62.1083Z" fill="#FFC229"/>
<path fill-rule="evenodd" clip-rule="evenodd" d="M128.105 62.2398C126.663 66.0523 126.269 70.9166 124.171 74.0718C121.154 75.5179 116.695 76.5697 112.235 75.7809C108.956 71.8369 106.858 66.8411 103.972 62.6342C112.366 62.8971 119.842 62.1083 128.105 62.2398Z" fill="white"/>
<path fill-rule="evenodd" clip-rule="evenodd" d="M137.942 75.9123C137.942 76.4382 137.942 77.0955 137.942 77.6214C129.548 81.0395 119.056 82.2227 113.809 88.7961C113.547 90.8996 114.334 91.8198 114.99 92.8716C121.154 98.2617 128.499 102.6 134.008 108.648C110.661 112.066 87.8397 117.061 64.8869 120.085C65.2803 118.245 67.1166 117.982 68.0347 116.536C69.084 115.352 70.3955 114.564 71.3137 113.249C78.1339 106.807 84.823 100.497 89.4136 91.8198C91.6433 88.6646 94.6599 85.115 95.0534 79.9878C95.5781 73.283 92.5614 67.4985 90.3317 63.423C92.1679 63.0286 94.7911 63.423 96.6273 63.0286C98.5947 63.2915 98.4636 65.6579 99.7751 66.5782C100.562 68.0243 101.349 69.4705 102.267 70.6537C103.579 73.8089 105.153 76.7011 106.595 79.7249C107.514 80.9081 108.432 82.0913 109.743 82.8801C119.58 81.0395 129.811 78.6731 137.942 75.9123ZM99.644 93.7918C97.5454 96.4212 94.9223 98.5246 93.6107 101.811C93.873 102.206 94.1353 102.6 94.3976 102.995C95.5781 103.126 96.2339 102.6 97.5454 102.863C97.6766 106.676 97.5454 110.62 99.644 112.46C102.005 112.066 104.759 112.066 106.464 111.014C106.333 108.122 106.202 105.229 105.94 102.6C107.12 102.337 107.907 101.548 108.3 100.497C106.071 97.7358 103.316 95.238 99.644 93.7918Z" fill="#B6CBCE"/>
<path fill-rule="evenodd" clip-rule="evenodd" d="M88.8889 63.423C91.1186 67.7614 93.6107 71.9683 93.6107 78.5417C92.2991 88.5332 85.7411 93.266 81.2817 99.9708C76.2977 106.018 70.5267 112.329 64.7557 116.93C64.8869 115.484 64.6245 114.432 64.6245 113.249C74.1991 104.967 84.1672 96.947 88.7578 83.6689C86.7904 79.5934 78.6585 82.2228 74.4615 82.4857C74.068 81.434 74.3303 79.8564 73.5433 79.3305C71.1825 79.3305 68.5593 79.199 66.7231 79.7249C66.3296 80.7766 66.5919 82.4857 66.5919 83.8004C65.4115 83.6689 64.7557 84.1948 63.4441 84.0633C63.0506 77.6214 63.1818 70.6537 62.2637 64.7377C70.3955 63.8174 79.4455 63.423 88.8889 63.423ZM65.2803 67.367C64.7557 70.2593 65.2803 73.8089 65.9361 76.1753C67.51 76.5697 71.9694 76.9641 73.8057 76.0438C73.9368 73.6774 73.8057 69.8649 73.4122 67.367C71.4448 66.4467 67.51 66.8411 65.2803 67.367Z" fill="#FFC229"/>
<path fill-rule="evenodd" clip-rule="evenodd" d="M72.2318 68.4187C72.2318 70.5222 72.1006 72.8886 72.3629 74.7291C70.5267 74.3347 68.297 74.4662 66.7231 74.8606C66.8543 72.6257 66.3296 71.0481 66.5919 68.8131C68.6905 68.9446 70.2644 68.4187 72.2318 68.4187Z" fill="white"/>
<path fill-rule="evenodd" clip-rule="evenodd" d="M138.205 80.7766C133.483 84.3262 125.482 84.5892 121.679 89.1905C121.679 91.9513 124.564 92.0828 126.4 93.1345C128.892 95.1065 130.991 97.3414 133.221 99.5764C135.45 101.811 137.942 103.915 138.86 107.201C138.467 107.859 137.155 107.596 136.368 107.99C132.696 105.361 129.286 102.469 126.138 99.3134C122.859 96.2897 118.4 94.4492 115.514 91.031C114.465 86.0353 122.203 84.7206 125.351 83.143C129.417 81.8284 133.221 80.3822 137.287 79.199C137.549 79.199 137.68 79.199 137.68 79.0676C137.811 79.0676 137.811 79.199 137.942 79.199C138.467 79.462 138.074 80.3822 138.205 80.7766Z" fill="#FFC229"/>
<path fill-rule="evenodd" clip-rule="evenodd" d="M67.51 81.0396C69.3463 81.0396 71.0513 81.0396 72.6252 81.171C72.6252 82.8801 72.6252 84.7206 72.6252 86.4297C70.789 86.2982 69.7397 86.9556 67.9035 86.8241C68.0347 84.5892 67.51 83.143 67.51 81.0396Z" fill="white"/>
<path fill-rule="evenodd" clip-rule="evenodd" d="M87.5774 83.5374C83.2491 95.8953 73.9368 104.441 64.6246 111.145C63.8376 102.863 64.2311 93.3974 63.4441 84.9836C64.3622 84.9836 65.4115 84.9836 66.3296 84.9836C66.3296 86.0353 66.5919 86.8241 66.7231 87.7444C68.4282 88.9276 73.4122 89.322 74.5926 87.35C74.7238 85.9038 74.1992 85.115 74.4615 83.6689C78.3962 83.2745 84.2984 81.6969 87.5774 83.5374Z" fill="white"/>
<path fill-rule="evenodd" clip-rule="evenodd" d="M137.942 82.6172C138.074 82.6172 138.205 82.6172 138.336 82.6172C138.467 89.4534 139.254 96.5526 138.729 103.52C136.237 101.023 133.876 98.5246 131.516 96.0268C130.204 94.975 128.892 93.7918 127.581 92.7401C126.269 91.5569 124.171 91.294 123.121 89.9793C123.777 88.0073 127.581 87.35 129.548 86.0353C132.303 85.115 134.795 84.0633 137.418 83.143C137.418 82.8801 137.811 83.0116 137.811 82.7486C137.811 82.6172 137.942 82.6172 137.942 82.6172Z" fill="white"/>
<path fill-rule="evenodd" clip-rule="evenodd" d="M106.333 100.102C102.136 100.365 104.103 106.15 104.235 109.699C102.661 109.568 101.743 110.094 100.562 110.357C99.7751 107.596 99.1193 103.915 98.857 101.285C98.5947 100.76 97.5454 100.891 96.7585 100.891C97.8078 99.0505 99.1193 97.6044 100.431 96.0268C102.792 96.947 104.366 98.6561 106.333 100.102Z" fill="#FFC229"/>
<path fill-rule="evenodd" clip-rule="evenodd" d="M138.598 109.305C139.647 110.883 138.992 114.301 139.123 116.799C137.024 117.061 135.188 117.456 133.483 117.982C132.565 117.85 134.27 117.061 134.27 116.667C135.319 114.564 134.27 111.803 132.303 111.54C129.679 111.671 128.105 112.723 127.974 115.221C128.761 116.93 129.942 118.245 132.696 117.982C110.924 122.846 87.8397 126.396 65.2803 130.603C65.2803 127.053 65.4115 124.424 65.1492 121.137C90.3317 117.85 113.94 113.117 138.598 109.305ZM121.548 119.822C123.515 119.559 124.564 116.93 123.515 114.564C117.875 110.883 115.777 120.611 121.548 119.822ZM112.235 121.4C114.334 120.874 115.252 117.456 113.809 115.747C110.792 113.117 106.727 117.061 108.956 120.348C110.006 120.743 110.924 121.268 112.235 121.4ZM103.448 116.273C97.5454 113.38 96.8896 125.607 103.316 122.32C105.284 121.005 105.284 117.193 103.448 116.273ZM92.5614 124.687C95.578 123.766 95.0534 118.639 92.5614 117.587C87.0527 116.536 86.9215 125.87 92.5614 124.687ZM80.1013 120.217C77.2158 121.268 77.4781 127.842 82.4621 126.659C86.1346 124.949 83.9049 118.771 80.1013 120.217ZM68.6905 126.921C69.4774 128.368 71.576 129.156 73.5433 128.893C75.5107 128.105 75.773 124.161 74.3303 122.583C71.576 120.611 67.9035 122.846 68.6905 126.921Z" fill="#B6CBCE"/>
<path fill-rule="evenodd" clip-rule="evenodd" d="M129.942 115.878C129.548 112.066 134.663 113.906 132.04 116.536C130.991 116.536 130.466 116.273 129.942 115.878Z" fill="#FF4A2C"/>
<path fill-rule="evenodd" clip-rule="evenodd" d="M121.941 116.01C121.941 117.324 121.416 117.982 120.236 117.982C119.842 117.587 119.318 117.193 119.449 116.273C119.974 116.01 121.285 115.615 121.941 116.01Z" fill="#FF4A2C"/>
<path fill-rule="evenodd" clip-rule="evenodd" d="M112.891 117.193C113.022 118.508 112.629 119.165 112.104 119.691C111.317 119.691 111.055 119.033 110.399 118.902C109.743 116.93 111.579 116.273 112.891 117.193Z" fill="#FF4A2C"/>
<path fill-rule="evenodd" clip-rule="evenodd" d="M102.792 118.376C102.792 119.296 102.792 120.085 102.398 120.48C101.611 120.743 101.218 120.48 100.693 120.085C100.3 118.639 101.611 117.719 102.792 118.376Z" fill="white"/>
<path fill-rule="evenodd" clip-rule="evenodd" d="M91.7744 123.109C90.9875 122.977 90.8563 122.189 90.4628 121.794C90.3317 116.93 95.3157 122.057 91.7744 123.109Z" fill="#FF4A2C"/>
<path fill-rule="evenodd" clip-rule="evenodd" d="M80.8883 125.081C79.1832 123.503 81.5441 120.743 82.5933 123.109C82.7245 124.424 82.1999 125.212 80.8883 125.081Z" fill="#FF4A2C"/>
<path fill-rule="evenodd" clip-rule="evenodd" d="M73.1499 126.133C72.6252 126.527 71.576 126.659 70.789 126.264C69.8709 124.292 73.8057 122.715 73.1499 126.133Z" fill="#FF4A2C"/>
<path fill-rule="evenodd" clip-rule="evenodd" d="M115.777 131.786C119.055 132.049 122.334 134.021 121.81 138.622C121.154 140.2 119.58 140.988 118.531 142.172C114.858 143.749 110.792 145.458 105.808 145.458C98.9882 145.458 91.2498 144.144 85.2165 143.355C82.4621 142.435 78.1339 137.965 82.4621 135.73C80.4948 142.829 88.4955 142.96 95.1846 143.618C103.185 144.275 112.235 144.538 117.219 141.12C117.744 140.331 118.531 139.805 118.924 139.016C119.711 135.335 118.4 132.443 115.777 131.786Z" fill="white"/>
<path fill-rule="evenodd" clip-rule="evenodd" d="M117.35 134.547C117.613 136.124 117.875 137.57 117.35 139.016C114.071 141.777 108.825 143.092 103.054 143.092C98.4636 143.092 93.3484 142.172 88.889 141.777C86.7904 141.514 84.823 141.12 83.6426 139.805C82.9868 138.753 82.7245 136.519 83.6426 135.467C86.3969 134.547 89.9382 134.415 93.2172 134.152C93.2172 134.941 93.086 135.861 93.4795 136.256C96.365 141.12 110.661 141.251 108.825 132.706C111.711 131.654 115.908 132.443 117.35 134.547Z" fill="#B6CBCE"/>
<path fill-rule="evenodd" clip-rule="evenodd" d="M105.94 132.443C105.677 133.363 105.677 134.415 105.677 135.598C104.103 137.176 100.169 136.913 97.6766 136.387C97.6766 135.467 97.8078 134.415 97.4143 133.889C100.037 132.969 103.185 132.837 105.94 132.443Z" fill="#B6CBCE"/>
<path fill-rule="evenodd" clip-rule="evenodd" d="M96.1027 133.758C95.9715 134.547 96.2339 135.072 96.2339 135.73C95.5781 135.73 95.5781 135.072 94.9223 135.072C94.7911 134.152 95.1846 133.626 96.1027 133.758Z" fill="white"/>
<path fill-rule="evenodd" clip-rule="evenodd" d="M107.645 20.4334C109.087 19.2502 110.006 17.0152 111.711 16.2264C112.235 16.3579 112.76 16.6208 113.285 16.7523C113.547 18.5928 113.022 20.8278 113.94 22.2739C114.858 23.1942 117.482 23.72 118.269 22.9312C119.187 20.039 118.793 16.8837 118.793 13.86C118.793 10.8363 118.793 7.944 118.269 5.1832C116.957 4.13147 115.121 4.26293 113.809 4C109.612 8.07547 105.94 13.2027 102.792 19.3816C104.235 20.039 106.333 20.4334 107.645 20.4334Z" fill="black"/>
<path fill-rule="evenodd" clip-rule="evenodd" d="M155.518 30.5563C155.911 28.8472 152.239 27.5326 151.321 25.8235C149.353 24.5088 147.124 23.3256 144.763 22.2739C144.369 22.5368 143.451 21.8795 143.058 22.4053C142.008 23.72 142.008 26.2179 141.877 27.7955C145.812 28.8472 148.96 30.5563 151.452 32.5283C152.632 31.7395 155.124 32.0024 155.518 30.5563Z" fill="black"/>
<path fill-rule="evenodd" clip-rule="evenodd" d="M127.843 23.4571C128.368 25.4291 129.024 27.2696 130.335 28.9787C133.352 28.0584 136.5 27.1382 140.434 27.927C140.697 25.4291 141.09 22.7998 140.041 20.9592C135.188 20.5648 131.516 22.1424 127.843 23.4571Z" fill="black"/>
<path fill-rule="evenodd" clip-rule="evenodd" d="M159.584 44.3603C159.059 39.8904 159.059 35.2891 156.698 31.871C154.993 32.6598 153.288 33.1856 151.845 34.3688C153.026 37.524 153.288 41.2051 153.157 45.1491C155.518 45.2806 157.879 45.4121 159.584 44.3603Z" fill="black"/>
<path fill-rule="evenodd" clip-rule="evenodd" d="M126.138 24.2459C122.859 25.955 119.056 26.7438 116.039 28.9787C116.301 30.5563 116.695 32.0024 117.744 33.0542C121.416 32.1339 124.695 30.2934 128.499 29.636C127.974 27.664 127.45 25.8235 126.138 24.2459Z" fill="black"/>
<path fill-rule="evenodd" clip-rule="evenodd" d="M234.344 63.423C233.82 59.6105 226.475 58.5587 223.851 60.1363C223.065 65.1321 219.654 71.9684 219.261 77.227C225.032 79.462 232.246 80.3822 234.607 74.3348C235.131 72.3628 235 70.9166 234.475 69.4705C233.688 68.8132 233.164 68.0244 231.983 67.63C233.295 66.9726 234.213 65.2635 234.344 63.423Z" fill="black"/>
<path fill-rule="evenodd" clip-rule="evenodd" d="M111.711 25.1662C110.924 24.7718 109.481 24.1144 108.694 24.2459C107.12 23.8515 105.94 24.2459 104.628 24.3774C100.824 25.692 99.2505 32.9227 102.529 35.1576C104.628 36.3408 106.989 36.0779 109.087 36.4723C113.022 35.4206 115.383 27.7955 111.711 25.1662Z" fill="black"/>
<path fill-rule="evenodd" clip-rule="evenodd" d="M159.452 46.5952C157.354 46.7267 155.255 46.9896 153.157 47.2526C153.157 51.7225 153.288 56.1923 154.075 60.2678C156.305 60.0049 159.059 60.5307 160.764 59.3475C160.239 55.1406 159.977 50.8022 159.452 46.5952Z" fill="black"/>
<path fill-rule="evenodd" clip-rule="evenodd" d="M215.72 86.9556C216.638 88.5332 217.556 90.5052 219.523 91.1625C223.72 92.7401 228.311 86.8241 226.475 82.4857C225.294 81.5654 223.983 80.1193 221.884 80.1193C218.474 79.5934 215.851 82.7486 215.72 86.9556Z" fill="black"/>
<path fill-rule="evenodd" clip-rule="evenodd" d="M164.305 72.0998C162.863 68.8131 161.813 65.1321 161.026 61.451C158.534 61.3195 156.567 62.3713 154.337 62.7657C155.518 66.9726 156.305 71.311 158.797 74.8606C160.633 73.9404 162.731 73.546 164.305 72.0998Z" fill="black"/>
<path fill-rule="evenodd" clip-rule="evenodd" d="M214.539 86.8241C214.802 85.2465 215.195 83.6689 214.802 82.4857C214.277 82.2228 213.752 81.8284 213.096 81.6969C207.85 81.6969 202.997 82.2228 199.062 84.4577C199.587 86.1668 200.112 87.8758 200.374 89.7164C204.702 88.0073 209.162 86.5612 214.539 86.8241Z" fill="black"/>
<path fill-rule="evenodd" clip-rule="evenodd" d="M165.092 74.3347C163.125 74.7291 161.813 76.1753 159.846 76.5697C161.551 80.6452 164.436 84.1948 168.109 87.2185C169.289 85.5094 170.601 84.4577 171.781 82.8801C168.765 80.3822 166.797 77.49 165.092 74.3347Z" fill="black"/>
<path fill-rule="evenodd" clip-rule="evenodd" d="M184.635 94.3177C189.357 93.9233 194.078 93.266 197.751 90.8996C197.095 89.1905 197.226 87.087 196.57 85.378C192.898 86.6926 189.226 87.8758 185.028 88.0073C184.897 89.9793 184.504 92.3457 184.635 94.3177Z" fill="black"/>
<path fill-rule="evenodd" clip-rule="evenodd" d="M183.717 87.7444C179.913 87.2185 175.323 85.7724 172.831 83.6689C171.65 85.378 170.339 86.6926 169.158 88.2702C172.175 91.031 177.29 93.266 182.668 94.1862C183.061 91.9513 183.323 89.9793 183.717 87.7444Z" fill="black"/>
<path fill-rule="evenodd" clip-rule="evenodd" d="M117.219 6.62934C117.219 11.4936 117.088 16.3579 117.219 21.0907C116.695 20.9592 116.301 20.9592 115.908 21.2222C115.252 18.4614 115.908 14.2544 110.792 14.3859C109.612 15.1747 108.563 16.4894 107.776 18.3299C107.12 18.3299 106.202 18.1984 105.415 18.067C108.169 13.7286 111.186 9.65308 114.203 5.70908C114.858 6.36641 116.039 6.10348 117.219 6.62934ZM114.596 7.54961C113.416 8.86428 111.842 10.5733 111.448 12.5454C112.104 13.5971 114.071 13.2027 114.858 13.86C115.908 11.888 115.383 9.78455 115.252 7.94401C114.858 7.94401 114.99 7.68108 114.596 7.54961Z" fill="#FFC229"/>
<path fill-rule="evenodd" clip-rule="evenodd" d="M114.071 10.179C114.203 10.7048 114.071 11.3622 113.94 11.888C113.678 11.7566 113.416 11.7566 113.022 11.6251C113.547 11.2307 113.809 10.5734 114.071 10.179Z" fill="white"/>
<path fill-rule="evenodd" clip-rule="evenodd" d="M144.369 23.8515C148.435 25.1662 150.665 27.5326 153.157 29.636C152.895 30.1619 152.37 30.2934 151.976 30.6878C149.878 28.8472 147.517 26.6123 143.976 25.955C143.976 25.4291 144.238 24.6403 144.369 23.8515Z" fill="#FFC229"/>
<path fill-rule="evenodd" clip-rule="evenodd" d="M138.598 22.9312C139.123 23.5885 138.598 24.7717 138.861 25.5605C136.106 25.8235 133.352 26.0864 130.86 26.8752C130.073 26.4808 130.204 25.5605 129.679 24.9032C132.303 23.4571 135.319 22.9312 138.598 22.9312Z" fill="#FFC229"/>
<path fill-rule="evenodd" clip-rule="evenodd" d="M157.354 43.44C156.96 43.8344 156.173 43.44 155.649 43.703C155.255 40.6792 155.387 37.524 154.075 35.0262C154.6 34.6318 155.255 34.6318 155.78 34.2374C156.96 36.9982 157.354 40.1534 157.354 43.44Z" fill="#FFC229"/>
<path fill-rule="evenodd" clip-rule="evenodd" d="M126.4 28.0584C123.777 29.2416 121.154 30.2934 118.531 31.2136C118.4 30.8192 118.269 30.4248 118.269 29.899C120.761 28.9787 122.99 27.7955 125.351 26.6123C126.269 26.8752 125.745 27.664 126.4 28.0584Z" fill="#FFC229"/>
<path fill-rule="evenodd" clip-rule="evenodd" d="M232.377 62.8971C232.77 65.7894 229.754 65.6579 228.704 67.2355C228.704 69.0761 232.377 68.9446 233.033 70.5222C232.377 77.6214 226.737 76.9641 221.622 76.1753C223.065 71.0481 223.851 66.3153 225.425 61.0566C227.393 60.9251 231.196 60.9251 232.377 62.8971ZM226.999 62.3713C226.475 63.2915 225.95 64.8691 225.95 65.9209C227.917 66.9726 230.541 65.395 230.147 62.7657C229.098 61.9769 227.786 62.2398 226.999 62.3713ZM225.294 68.8131C224.77 70.2593 223.327 73.0201 224.114 74.0718C226.475 75.3865 229.491 72.4942 228.311 69.8649C227.786 69.339 226.212 68.4187 225.294 68.8131Z" fill="#FFC229"/>
<path fill-rule="evenodd" clip-rule="evenodd" d="M227.786 63.2915C228.311 63.423 228.311 63.6859 228.573 63.8174C228.442 64.7377 227.917 65.0006 227.262 65.0006C227.655 64.3433 227.393 63.5545 227.786 63.2915Z" fill="white"/>
<path fill-rule="evenodd" clip-rule="evenodd" d="M110.792 26.8752C113.153 29.636 109.874 36.2094 105.021 33.4486C103.71 31.871 102.136 30.4248 103.448 27.5326C105.415 26.2179 107.645 25.692 110.792 26.8752ZM107.251 33.1856C108.956 33.1856 110.53 31.3451 110.268 29.1102C109.35 26.7438 104.759 26.0864 103.972 28.5843C103.579 29.7675 104.366 30.8192 104.497 32.0024C105.153 32.5283 106.202 32.9227 107.251 33.1856Z" fill="#FF4A2C"/>
<path fill-rule="evenodd" clip-rule="evenodd" d="M108.563 29.3731C108.563 29.899 108.432 30.5563 108.038 30.9507C107.514 31.3451 106.595 31.0822 105.677 30.6878C105.546 30.1619 105.415 29.636 105.808 28.8472C106.595 28.4528 107.907 28.7158 108.563 29.3731Z" fill="white"/>
<path fill-rule="evenodd" clip-rule="evenodd" d="M158.534 58.0329C157.616 58.1643 156.698 58.0329 156.042 58.4273C155.124 55.535 155.518 51.8539 155.255 48.5673C156.042 48.5673 156.698 48.5673 157.354 48.4358C158.403 51.1966 157.485 55.1406 158.534 58.0329Z" fill="#FFC229"/>
<path fill-rule="evenodd" clip-rule="evenodd" d="M225.819 70.1278C226.212 70.2593 226.868 70.3907 227.13 70.6537C227.262 71.9683 226.343 72.8886 225.425 73.0201C225.163 72.2313 225.819 70.9166 225.819 70.1278Z" fill="white"/>
<path fill-rule="evenodd" clip-rule="evenodd" d="M222.146 81.9598C227.393 82.3542 224.638 89.322 221.097 88.9276C218.736 88.4017 217.949 86.9556 217.687 85.2465C218.474 82.8801 219.917 81.5654 222.146 81.9598ZM224.376 86.0353C224.77 82.7486 219.13 81.434 218.474 85.2465C218.605 85.378 218.605 85.5094 218.474 85.7724C219.13 87.087 220.179 87.35 222.015 88.0073C222.933 87.7444 223.851 87.4814 224.376 86.0353Z" fill="#FF4A2C"/>
<path fill-rule="evenodd" clip-rule="evenodd" d="M159.452 63.1601C160.371 65.9209 161.026 68.6817 162.076 71.4425C161.551 71.9683 160.764 72.0998 160.108 72.4942C158.534 69.8649 157.354 66.9726 157.092 63.8174C157.879 63.6859 158.665 63.423 159.452 63.1601Z" fill="#FFC229"/>
<path fill-rule="evenodd" clip-rule="evenodd" d="M222.933 85.6409C222.671 86.0353 222.409 86.2982 222.015 86.4297C221.228 86.2982 220.704 85.9038 220.573 85.378C220.966 84.0633 222.671 84.7206 222.933 85.6409Z" fill="white"/>
<path fill-rule="evenodd" clip-rule="evenodd" d="M212.441 84.9836C208.768 84.9836 205.227 85.115 202.473 86.8241C202.21 86.2982 202.079 85.7724 201.948 85.2465C205.358 84.5892 208.506 83.6689 212.309 83.6689C212.703 84.0633 212.572 84.4577 212.441 84.9836Z" fill="#FFC229"/>
<path fill-rule="evenodd" clip-rule="evenodd" d="M169.158 83.0116C168.896 83.8004 168.24 83.9318 167.847 84.5892C165.355 82.4857 164.043 79.8564 162.469 77.227C162.731 76.5697 163.65 76.8326 164.043 76.3068C165.486 78.6732 167.06 80.9081 169.158 83.0116Z" fill="#FFC229"/>
<path fill-rule="evenodd" clip-rule="evenodd" d="M195.783 89.9793C192.767 91.031 189.881 92.3457 186.078 91.6884C186.34 91.031 186.078 90.5052 186.34 89.8478C189.619 89.8478 192.373 88.6646 195.128 87.7444C195.783 88.2702 195.521 89.1905 195.783 89.9793Z" fill="#FFC229"/>
<path fill-rule="evenodd" clip-rule="evenodd" d="M181.749 89.4534C181.487 90.2422 181.225 90.8996 181.094 91.6884C177.552 91.294 174.011 89.4534 171.519 87.8758C171.913 87.087 172.437 86.4297 172.962 85.9038C175.06 87.4814 178.602 88.7961 181.749 89.4534Z" fill="#FFC229"/>
<path fill-rule="evenodd" clip-rule="evenodd" d="M215.72 212.506C211.654 212.112 208.112 210.666 204.702 209.614C201.161 208.431 197.62 207.248 193.816 206.327C186.602 204.092 179.126 202.252 171.257 200.543C164.83 206.327 161.158 214.741 154.206 220C144.632 214.478 140.434 203.567 133.483 195.416C120.629 202.778 109.874 212.112 93.2172 215.793C89.9382 214.873 87.9709 212.506 84.9542 211.323C82.8557 209.22 79.839 207.905 78.6586 204.881C89.1513 180.56 99.7752 156.502 113.547 135.467C116.563 137.044 120.105 139.805 123.121 141.909C130.597 138.753 136.106 133.758 143.976 130.997C147.91 133.1 151.583 135.598 155.387 137.833C157.092 135.993 158.403 133.758 159.977 131.917C161.813 130.077 162.469 126.921 165.748 126.921C167.191 126.921 169.421 127.71 171.257 127.973C176.765 129.025 182.143 131.391 186.734 132.443C190.144 133.232 193.685 134.152 197.226 135.204C200.768 136.256 204.44 136.387 207.588 137.833C209.293 143.092 209.686 150.454 210.342 156.37C212.178 173.198 214.802 189.5 216.769 205.407C217.294 207.774 218.08 210.797 215.72 212.506Z" fill="black"/>
<path fill-rule="evenodd" clip-rule="evenodd" d="M165.879 129.419C165.748 129.419 165.748 129.551 165.748 129.551C164.83 129.682 165.879 130.471 165.617 131.26C174.798 134.415 184.635 135.861 194.078 138.622C197.095 139.542 201.292 139.411 203.653 140.988C205.358 145.853 205.358 150.98 205.883 156.107C206.407 161.103 207.588 166.099 208.244 171.094C209.817 181.217 210.998 191.603 211.785 202.12C211.916 203.83 212.572 205.276 211.391 206.722C204.702 205.802 198.8 202.646 191.98 201.2C185.684 199.36 179.126 196.73 172.568 195.679C171.913 198.177 175.06 198.439 176.503 198.834C181.881 200.411 188.176 201.332 193.16 203.041C199.981 205.144 207.719 207.511 214.015 209.483C214.277 196.993 212.178 185.293 210.736 173.724C209.162 162.155 207.457 150.717 206.145 138.885C192.242 136.256 178.733 133.232 165.879 129.419Z" fill="white"/>
<path fill-rule="evenodd" clip-rule="evenodd" d="M164.305 130.734C161.158 133.232 160.108 137.57 156.96 139.937C156.96 140.988 156.96 142.04 156.96 143.092C160.108 140.2 161.813 135.993 164.305 132.575C164.305 132.049 164.305 131.391 164.305 130.734Z" fill="white"/>
<path fill-rule="evenodd" clip-rule="evenodd" d="M165.879 133.495C166.666 134.678 168.765 134.809 170.47 135.204C172.175 135.598 174.142 135.598 175.06 136.65C172.437 136.65 169.158 135.73 166.404 135.204C166.404 140.988 167.715 146.904 168.109 152.952C170.601 153.741 172.306 155.318 174.536 156.239C174.929 149.008 175.978 142.172 176.897 135.467C172.962 135.335 169.552 133.495 165.879 133.495Z" fill="#4C8E13"/>
<path fill-rule="evenodd" clip-rule="evenodd" d="M143.713 133.495C136.631 137.176 130.073 141.514 122.99 145.327C122.99 146.247 122.334 146.773 122.203 147.562C129.286 143.881 135.188 139.016 143.058 136.124C143.32 135.335 143.451 134.415 143.713 133.495Z" fill="white"/>
<path fill-rule="evenodd" clip-rule="evenodd" d="M145.287 133.889C144.894 134.284 144.894 134.941 144.894 135.73C149.222 137.307 152.239 141.12 155.387 143.092C155.649 142.303 155.518 141.12 155.518 140.068C151.583 138.753 148.96 135.73 145.287 133.889Z" fill="white"/>
<path fill-rule="evenodd" clip-rule="evenodd" d="M164.699 135.598C161.813 138.491 160.108 142.697 156.96 145.458C156.829 150.454 156.829 155.45 156.567 160.314C158.272 160.183 159.846 158.211 161.551 157.553C163.256 156.502 165.092 155.713 166.404 154.267C166.01 147.825 165.223 141.777 164.699 135.598Z" fill="white"/>
<path fill-rule="evenodd" clip-rule="evenodd" d="M181.881 137.044C180.831 137.044 181.225 138.491 181.094 139.411C180.176 145.458 179.782 152.163 179.257 158.605C187.914 165.967 198.669 172.278 207.457 178.982C207.457 177.799 207.325 176.616 207.063 175.696C200.374 168.728 191.455 164.127 183.848 158.342C184.373 151.769 185.553 144.538 186.865 138.228C185.422 137.57 183.455 137.439 181.881 137.044Z" fill="#4C8E13"/>
<path fill-rule="evenodd" clip-rule="evenodd" d="M145.025 137.176C143.713 141.909 143.32 147.693 142.402 152.952C146.861 155.055 150.534 158.079 154.6 160.577C155.387 155.844 154.993 150.06 155.518 145.195C152.239 142.303 148.435 139.937 145.025 137.176Z" fill="#4C8E13"/>
<path fill-rule="evenodd" clip-rule="evenodd" d="M142.795 137.833C140.697 138.359 139.254 139.411 137.418 140.2C137.155 145.458 137.024 150.848 135.582 154.792C132.958 156.239 129.679 157.027 126.138 157.553C125.745 154.924 125.482 151.111 125.351 147.562C122.072 148.351 120.367 150.98 119.449 154.267C121.81 156.502 123.908 159.131 126.794 160.971C130.991 157.816 135.975 155.45 140.434 152.689C141.09 147.43 142.14 142.829 142.795 137.833Z" fill="#4C8E13"/>
<path fill-rule="evenodd" clip-rule="evenodd" d="M202.604 142.566C204.309 152.295 205.096 163.075 206.801 172.935C199.718 168.465 193.423 161.629 185.16 157.816C185.815 151.243 187.652 144.932 187.914 138.622C192.767 140.068 198.669 140.331 202.604 142.566ZM190.799 140.988C189.357 142.435 189.357 145.327 188.963 147.825C190.012 146.116 190.537 142.829 190.799 140.988ZM200.505 143.092C199.981 143.486 201.292 145.195 201.292 146.379C201.948 152.295 202.604 157.948 203.26 163.732C203.784 164.39 203.784 165.441 204.309 166.099C203.391 158.868 203.391 149.139 200.768 142.96C200.768 143.092 200.636 143.092 200.505 143.092Z" fill="#4C8E13"/>
<path fill-rule="evenodd" clip-rule="evenodd" d="M114.071 138.491C102.529 159.92 92.5614 182.926 81.1506 204.618C84.823 207.642 89.0201 210.14 92.1679 213.69C92.9549 212.506 93.3484 210.929 94.0041 209.614C90.4629 207.642 86.6592 205.933 84.1672 202.778C94.3976 182.663 102.923 160.971 113.94 141.646C116.563 142.96 118.269 146.379 120.629 147.43C120.892 146.51 121.285 145.721 121.679 145.064C119.58 142.566 117.088 140.331 114.071 138.491Z" fill="white"/>
<path fill-rule="evenodd" clip-rule="evenodd" d="M136.106 141.12C132.827 142.96 129.548 144.932 126.269 146.904C126.532 149.797 126.925 152.558 127.187 155.45C130.335 155.318 132.171 154.004 134.532 153.083C135.188 149.139 135.713 145.195 136.106 141.12Z" fill="white"/>
<path fill-rule="evenodd" clip-rule="evenodd" d="M113.547 145.195C113.285 145.195 113.416 145.59 113.153 145.59C114.334 149.008 115.777 152.032 117.088 155.45C118.269 154.004 116.432 152.295 115.777 150.848C114.99 149.139 114.465 147.43 113.809 145.853C113.809 145.458 113.547 145.458 113.547 145.195Z" fill="#FFC229"/>
<path fill-rule="evenodd" clip-rule="evenodd" d="M111.186 153.478C112.366 152.689 112.498 150.848 113.416 149.797C114.465 152.295 115.514 154.792 116.695 157.159C109.612 173.724 102.923 190.683 95.4469 206.722C93.4795 205.802 92.4303 203.961 89.6759 203.698C90.8564 205.802 93.6107 206.196 94.7911 208.168C91.5121 206.59 88.7578 204.487 85.8723 202.383C95.1846 184.635 103.316 165.704 112.235 147.562C113.022 149.928 110.924 151.637 111.186 153.478ZM110.661 155.055C106.464 162.943 101.874 170.437 98.857 179.508C96.8897 183.321 95.1846 187.265 93.3484 191.209C92.4303 193.181 91.6433 195.153 90.594 197.125C89.6759 198.834 87.9709 200.806 88.7578 203.041C89.8071 203.041 89.2824 201.2 89.6759 200.411C96.8897 185.819 103.579 170.568 110.661 155.844C110.661 155.45 110.661 155.187 110.661 155.055Z" fill="#4C8E13"/>
<path fill-rule="evenodd" clip-rule="evenodd" d="M142.402 155.055C141.615 157.422 141.615 160.708 141.09 163.338C145.025 166.362 149.747 168.465 154.206 170.963C154.731 168.334 154.6 165.047 154.731 161.892C150.402 159.788 146.337 157.422 142.402 155.055Z" fill="#FFC229"/>
<path fill-rule="evenodd" clip-rule="evenodd" d="M140.172 155.187C135.188 157.553 130.86 160.314 126.138 162.943C123.515 160.84 121.416 158.211 118.793 156.107C120.236 159.262 122.466 161.497 124.171 164.39C122.203 165.967 120.105 167.413 118.4 169.254C113.285 181.349 108.3 193.575 102.923 205.276C105.153 204.093 107.251 202.778 109.35 201.595C114.071 192.655 118.006 182.926 122.597 173.855C122.203 173.724 122.203 174.25 121.679 173.987C122.597 172.015 124.695 171.226 126.663 170.306C130.073 167.282 134.795 165.704 138.992 163.469C139.254 160.577 139.779 157.948 140.172 155.187Z" fill="#FFC229"/>
<path fill-rule="evenodd" clip-rule="evenodd" d="M166.535 156.896C163.256 158.868 160.764 161.497 156.567 162.418C156.698 165.31 156.305 167.676 156.436 170.437C156.829 171.226 157.092 172.015 157.485 172.672C159.19 182.269 162.076 190.814 163.781 200.411C165.617 199.36 163.781 195.021 163.387 193.181C162.076 185.293 159.715 178.325 158.797 170.043C161.289 167.676 164.699 166.099 166.929 163.338C167.06 160.971 166.666 159.131 166.535 156.896Z" fill="#FFC229"/>
<path fill-rule="evenodd" clip-rule="evenodd" d="M118.006 158.868C111.579 176.222 103.972 192.392 96.6273 208.694C98.2013 208.168 99.2505 207.248 100.693 206.722C106.464 193.575 111.317 179.508 118.006 167.282C119.187 166.099 120.761 165.178 122.072 164.127C121.154 161.892 119.187 160.84 118.006 158.868Z" fill="white"/>
<path fill-rule="evenodd" clip-rule="evenodd" d="M169.683 165.178C169.552 165.178 169.552 165.31 169.552 165.31C170.994 174.381 170.47 185.424 172.568 193.838C174.405 193.049 174.536 190.551 175.716 189.237C176.765 187.659 177.421 185.819 178.471 184.241C180.176 180.823 182.012 177.536 183.586 173.855C179.913 170.043 174.667 167.808 169.683 165.178Z" fill="#4C8E13"/>
<path fill-rule="evenodd" clip-rule="evenodd" d="M135.057 188.711C127.712 192.392 119.842 195.416 113.022 199.623C117.613 191.077 121.81 182.138 125.613 172.803C129.679 170.306 134.401 168.334 138.729 165.967C137.811 173.855 135.975 180.823 135.057 188.711ZM124.302 180.954C122.203 184.635 120.236 188.316 118.4 192.26C121.023 189.894 123.253 184.767 124.302 180.954Z" fill="#4C8E13"/>
<path fill-rule="evenodd" clip-rule="evenodd" d="M167.453 166.099C164.699 167.282 162.469 168.991 159.846 170.306C161.551 179.771 163.781 188.711 165.748 197.914C166.01 198.571 167.06 196.862 167.584 196.467C168.371 195.942 169.158 195.416 169.552 194.627C169.027 185.03 168.502 175.301 167.453 166.099Z" fill="#4C8E13"/>
<path fill-rule="evenodd" clip-rule="evenodd" d="M154.337 172.015C154.075 184.372 154.075 197.125 153.419 209.088C147.517 203.304 142.139 195.284 136.762 188.316C138.074 181.086 139.516 173.855 140.697 166.362C145.55 167.939 150.14 169.911 154.337 172.015ZM142.795 191.998C145.287 196.993 148.96 201.069 152.632 205.013C150.796 200.28 146.337 196.336 143.451 191.998C143.058 191.998 142.926 191.998 142.795 191.998Z" fill="#4C8E13"/>
<path fill-rule="evenodd" clip-rule="evenodd" d="M156.567 173.329C156.436 173.461 156.173 173.461 156.173 173.724C156.305 186.213 155.649 197.914 155.124 209.746C155.518 210.403 156.305 208.431 156.96 208.037C157.616 207.248 158.272 206.59 158.928 206.065C159.977 204.355 161.682 203.304 162.6 201.595C160.895 191.998 158.01 183.321 156.567 173.329Z" fill="#4C8E13"/>
<path fill-rule="evenodd" clip-rule="evenodd" d="M182.668 185.95C183.323 184.11 184.504 182.926 185.028 181.086C186.209 179.903 186.209 177.273 188.176 176.879C194.734 180.428 202.21 184.635 208.637 188.974C208.899 194.495 210.211 199.886 209.686 205.67C204.571 204.618 199.587 201.858 193.947 200.674C188.701 198.834 183.192 197.388 177.946 195.679C179.52 192.26 181.094 189.105 182.668 185.95ZM206.932 189.368C206.67 189.368 206.67 189.5 206.407 189.5C206.801 193.312 207.325 196.862 207.719 200.543C207.719 201.595 206.145 201.858 206.407 202.383C207.457 202.515 207.588 201.858 208.244 201.595C209.293 197.519 207.981 192.786 206.932 189.368Z" fill="#4C8E13"/>
<path fill-rule="evenodd" clip-rule="evenodd" d="M136.893 190.157C136.237 190.814 136.368 192.129 136.106 193.181C142.008 200.806 147.386 208.957 153.026 216.845C153.419 215.53 153.026 213.427 153.157 211.849C147.91 204.487 141.615 198.177 136.893 190.157Z" fill="white"/>
<path fill-rule="evenodd" clip-rule="evenodd" d="M94.5288 212.769C95.5781 213.032 96.8897 212.112 98.0701 211.981C110.006 205.276 121.154 197.782 134.663 192.523C134.663 191.998 134.663 191.472 134.663 190.814C120.367 195.942 109.481 204.487 95.8404 210.14C95.4469 210.929 95.1846 212.112 94.5288 212.769Z" fill="white"/>
<path fill-rule="evenodd" clip-rule="evenodd" d="M170.076 196.467C164.568 201.2 160.502 207.511 154.993 212.243C154.731 213.558 154.862 215.136 154.6 216.45C157.092 213.032 159.584 209.746 162.207 206.459C163.65 205.013 164.961 203.435 166.273 201.858C167.584 200.28 169.552 199.36 170.339 197.256C170.339 196.862 170.076 196.862 170.076 196.467Z" fill="white"/>
<path fill-rule="evenodd" clip-rule="evenodd" d="M187.389 174.118C191.718 175.301 194.734 177.799 197.882 180.034C201.686 181.612 205.358 184.372 208.244 186.344C208.244 184.767 207.85 183.584 207.85 181.875C202.997 178.062 197.62 174.907 192.111 171.883C187.52 167.939 182.274 164.652 177.552 160.84C177.946 152.558 179.257 144.144 179.782 136.65C179.257 136.65 178.733 136.519 178.471 136.256C177.159 143.355 177.159 151.9 176.11 159.262C173.618 158.736 170.601 157.159 168.502 155.581C168.24 157.685 168.896 160.446 169.027 162.812C175.06 165.573 180.831 168.465 185.291 172.803C182.405 180.56 178.864 187.528 175.323 194.627C179.257 188.185 183.323 180.56 187.389 174.118Z" fill="#FFC229"/>
<path fill-rule="evenodd" clip-rule="evenodd" d="M114.99 144.144C115.908 146.379 117.35 149.534 118.269 152.295C119.056 151.506 119.187 150.191 119.711 149.139C117.875 147.693 116.564 145.721 114.99 144.144Z" fill="white"/>
<path fill-rule="evenodd" clip-rule="evenodd" d="M194.078 120.611C191.98 124.029 190.144 127.842 188.176 131.391C187.258 133.363 186.209 134.941 185.422 136.913C184.11 138.359 183.979 140.988 181.749 141.514C178.339 135.993 176.765 128.631 174.929 121.531C174.405 120.085 172.831 119.296 172.175 117.587C169.945 112.592 171.913 105.098 174.011 101.285C176.11 98.7876 179.651 97.6044 183.848 97.7358C193.423 98.1302 198.669 104.309 197.489 114.958C196.702 117.324 195.259 118.902 194.078 120.611Z" fill="black"/>
<path fill-rule="evenodd" clip-rule="evenodd" d="M195.39 110.225C195.128 114.564 193.291 117.324 191.324 120.085C188.307 122.057 181.618 122.977 177.815 121.005C172.437 118.245 172.175 106.807 176.11 102.074C178.208 100.76 181.881 99.8393 185.16 100.234C191.849 100.234 194.078 104.835 195.39 110.225ZM185.028 102.863C178.077 101.417 175.716 109.173 177.684 114.958C179.126 116.799 180.963 118.113 183.586 118.639C186.209 118.508 188.307 117.85 189.881 116.667C193.291 112.723 191.586 104.572 187.127 103.126C186.34 102.995 185.947 102.732 185.028 102.863Z" fill="#FF4A2C"/>
<path fill-rule="evenodd" clip-rule="evenodd" d="M179.651 108.516C180.7 106.939 182.143 105.624 185.16 105.887C187.127 106.807 188.57 108.122 188.439 111.014C188.307 113.906 186.209 114.695 184.242 115.615C188.439 115.878 190.275 112.723 190.012 109.568C189.488 104.178 180.569 102.074 179.651 108.516Z" fill="white"/>
<path fill-rule="evenodd" clip-rule="evenodd" d="M181.487 112.986C183.192 114.432 186.734 113.38 186.996 111.145C185.947 109.831 184.766 107.201 182.405 108.385C181.487 109.173 180.963 111.277 181.487 112.986Z" fill="white"/>
<path fill-rule="evenodd" clip-rule="evenodd" d="M190.144 123.24C186.602 124.424 180.569 124.949 177.159 123.24C178.602 128.499 180.307 133.232 181.356 138.753C185.028 134.284 187.258 128.368 190.144 123.24Z" fill="#FF4A2C"/>
</g>
<defs>
<clipPath id="clip0_11_2">
<rect width="189" height="216" fill="white" transform="translate(46 4)"/>
</clipPath>
</defs>
</svg>
